<svg width="560" height="418" viewBox="0 0 560 418" fill="none" xmlns="http://www.w3.org/2000/svg">
<path d="M559.95 366.655H-7.62939e-06V366.935H559.95V366.655Z" fill="#EBEBEB"/>
<path d="M503.843 384.674H466.752V384.954H503.843V384.674Z" fill="#EBEBEB"/>
<path d="M305.979 381.169H291.544V381.449H305.979V381.169Z" fill="#EBEBEB"/>
<path d="M391.595 382.356H361.201V382.636H391.595V382.356Z" fill="#EBEBEB"/>
<path d="M465.632 374.282H402.794V374.562H465.632V374.282Z" fill="#EBEBEB"/>
<path d="M88.4609 387.239H58.75V387.519H88.4609V387.239Z" fill="#EBEBEB"/>
<path d="M124.186 387.239H98.428V387.519H124.186V387.239Z" fill="#EBEBEB"/>
<path d="M214.808 381.035H146.707V381.315H214.808V381.035Z" fill="#EBEBEB"/>
<path d="M265.416 316.708H49.1748C47.4808 316.705 45.8572 316.03 44.6604 314.831C43.4635 313.632 42.7914 312.007 42.7914 310.313V6.33863C42.8061 4.65433 43.4848 3.04386 44.68 1.85704C45.8752 0.670213 47.4904 0.0028853 49.1748 0H265.416C267.112 0 268.739 0.673718 269.938 1.87294C271.137 3.07217 271.811 4.69867 271.811 6.39463V310.313C271.811 312.009 271.137 313.636 269.938 314.835C268.739 316.034 267.112 316.708 265.416 316.708ZM49.1748 0.223981C47.555 0.226947 46.0026 0.872475 44.8583 2.01887C43.714 3.16527 43.0713 4.71887 43.0713 6.33863V310.313C43.0713 311.933 43.714 313.486 44.8583 314.633C46.0026 315.779 47.555 316.425 49.1748 316.428H265.416C267.037 316.425 268.591 315.78 269.737 314.634C270.883 313.487 271.528 311.934 271.531 310.313V6.33863C271.528 4.71784 270.883 3.16427 269.737 2.01819C268.591 0.872111 267.037 0.226941 265.416 0.223981H49.1748Z" fill="#EBEBEB"/>
<path d="M507.662 316.708H291.409C289.714 316.705 288.089 316.03 286.891 314.832C285.692 313.633 285.018 312.008 285.015 310.313V6.33863C285.032 4.65331 285.713 3.04285 286.91 1.85634C288.107 0.669822 289.724 0.00285383 291.409 0H507.662C509.344 0.00582852 510.957 0.674459 512.149 1.86097C513.342 3.04748 514.019 4.65627 514.034 6.33863V310.313C514.034 312.005 513.363 313.628 512.169 314.827C510.975 316.025 509.354 316.702 507.662 316.708ZM291.409 0.223981C289.788 0.226941 288.235 0.872111 287.089 2.01819C285.943 3.16427 285.297 4.71784 285.295 6.33863V310.313C285.297 311.934 285.943 313.487 287.089 314.634C288.235 315.78 289.788 316.425 291.409 316.428H507.662C509.283 316.425 510.836 315.78 511.982 314.634C513.128 313.487 513.774 311.934 513.777 310.313V6.33863C513.774 4.71784 513.128 3.16427 511.982 2.01819C510.836 0.872111 509.283 0.226941 507.662 0.223981H291.409Z" fill="#EBEBEB"/>
<path d="M499.845 25.7577H330.348V366.655H499.845V25.7577Z" fill="#FAFAFA"/>
<path d="M445.328 69.4338H384.854V153.796H445.328V69.4338Z" fill="white"/>
<path d="M499.834 366.655H500.886L500.886 25.7577H499.834L499.834 366.655Z" fill="#EBEBEB"/>
<path d="M491.435 366.655H490.315V35.2769H339.867V366.655H338.747V34.157H491.435V366.655Z" fill="#E0E0E0"/>
<path d="M478.41 202.512H455.038C454.571 202.538 454.103 202.469 453.663 202.309C453.223 202.148 452.821 201.9 452.481 201.579C452.141 201.257 451.87 200.87 451.684 200.44C451.499 200.01 451.404 199.547 451.404 199.079C451.404 198.611 451.499 198.148 451.684 197.718C451.87 197.288 452.141 196.901 452.481 196.58C452.821 196.258 453.223 196.01 453.663 195.849C454.103 195.689 454.571 195.62 455.038 195.647H478.41C478.877 195.62 479.345 195.689 479.785 195.849C480.224 196.01 480.627 196.258 480.967 196.58C481.307 196.901 481.578 197.288 481.764 197.718C481.949 198.148 482.044 198.611 482.044 199.079C482.044 199.547 481.949 200.01 481.764 200.44C481.578 200.87 481.307 201.257 480.967 201.579C480.627 201.9 480.224 202.148 479.785 202.309C479.345 202.469 478.877 202.538 478.41 202.512ZM455.038 196.766C454.721 196.744 454.402 196.788 454.102 196.894C453.803 197 453.528 197.167 453.296 197.384C453.063 197.601 452.878 197.863 452.751 198.155C452.624 198.446 452.559 198.761 452.559 199.079C452.559 199.397 452.624 199.712 452.751 200.003C452.878 200.295 453.063 200.557 453.296 200.774C453.528 200.991 453.803 201.158 454.102 201.264C454.402 201.37 454.721 201.414 455.038 201.392H478.41C478.727 201.414 479.046 201.37 479.345 201.264C479.645 201.158 479.92 200.991 480.152 200.774C480.385 200.557 480.57 200.295 480.697 200.003C480.824 199.712 480.889 199.397 480.889 199.079C480.889 198.761 480.824 198.446 480.697 198.155C480.57 197.863 480.385 197.601 480.152 197.384C479.92 197.167 479.645 197 479.345 196.894C479.046 196.788 478.727 196.744 478.41 196.766H455.038Z" fill="#E0E0E0"/>
<path d="M220.329 121.442H62.6808V134.97H220.329V121.442Z" fill="#FAFAFA"/>
<path d="M220.318 134.97H64.6966V366.655H220.318V134.97Z" fill="#FAFAFA"/>
<path d="M220.329 366.655H231.752L231.752 121.453H220.329L220.329 366.655Z" fill="#F0F0F0"/>
<path d="M137.96 148.409H77.7659V285.317H137.96V148.409Z" fill="#F0F0F0"/>
<path d="M120.759 148.409H106.637L94.9675 285.306H109.078L120.759 148.409Z" fill="white"/>
<path d="M205.3 356.128H79.7257C79.0197 356.125 78.3435 355.844 77.8442 355.344C77.345 354.845 77.0633 354.169 77.0603 353.463V296.348C77.0633 295.642 77.345 294.966 77.8442 294.467C78.3435 293.967 79.0197 293.686 79.7257 293.683H205.3C206.006 293.686 206.682 293.967 207.182 294.467C207.681 294.966 207.962 295.642 207.965 296.348V353.463C207.962 354.169 207.681 354.845 207.182 355.344C206.682 355.844 206.006 356.125 205.3 356.128ZM79.7257 295.026C79.391 295.029 79.0708 295.164 78.8341 295.4C78.5974 295.637 78.4631 295.957 78.4602 296.292V353.407C78.4631 353.742 78.5974 354.062 78.8341 354.298C79.0708 354.535 79.391 354.669 79.7257 354.672H205.3C205.635 354.669 205.955 354.535 206.192 354.298C206.428 354.062 206.563 353.742 206.566 353.407V296.292C206.563 295.957 206.428 295.637 206.192 295.4C205.955 295.164 205.635 295.029 205.3 295.026H79.7257Z" fill="#F0F0F0"/>
<path d="M197.102 307.424C196.522 307.424 195.954 307.251 195.471 306.928C194.988 306.606 194.612 306.147 194.391 305.61C194.169 305.073 194.111 304.483 194.225 303.913C194.34 303.344 194.62 302.821 195.032 302.411C195.443 302.001 195.967 301.722 196.537 301.61C197.107 301.499 197.697 301.558 198.233 301.782C198.769 302.006 199.226 302.384 199.547 302.868C199.869 303.352 200.039 303.92 200.037 304.501C200.037 304.886 199.961 305.267 199.813 305.622C199.665 305.977 199.449 306.3 199.176 306.572C198.904 306.843 198.58 307.058 198.224 307.204C197.868 307.351 197.487 307.425 197.102 307.424ZM197.102 302.944C196.799 302.944 196.502 303.034 196.25 303.203C195.998 303.371 195.801 303.611 195.685 303.891C195.569 304.172 195.538 304.48 195.598 304.778C195.657 305.075 195.803 305.349 196.017 305.563C196.232 305.778 196.505 305.924 196.803 305.983C197.101 306.042 197.409 306.012 197.69 305.896C197.97 305.78 198.209 305.583 198.378 305.331C198.547 305.079 198.637 304.782 198.637 304.478C198.635 304.278 198.594 304.081 198.516 303.896C198.439 303.712 198.325 303.545 198.183 303.405C198.04 303.264 197.871 303.153 197.686 303.078C197.501 303.003 197.302 302.965 197.102 302.967V302.944Z" fill="#F0F0F0"/>
<path d="M79.3225 148.409H77.7659V285.317H79.3225V148.409Z" fill="#EBEBEB"/>
<path d="M207.26 148.409H147.065V285.317H207.26V148.409Z" fill="#F0F0F0"/>
<path d="M174.951 148.409H169.139L157.469 285.306H163.281L174.951 148.409Z" fill="white"/>
<path d="M183.697 148.409H177.885L166.204 285.306H172.017L183.697 148.409Z" fill="white"/>
<path d="M148.622 148.409H147.065V285.317H148.622V148.409Z" fill="#EBEBEB"/>
<path d="M220.318 134.97H64.6966V136.684H220.318V134.97Z" fill="#EBEBEB"/>
<path d="M251.227 23.1819H89.592V101.205H251.227V23.1819Z" fill="#FAFAFA"/>
<path d="M191.167 91.1711C185.437 91.1711 179.835 89.4719 175.071 86.2884C170.307 83.105 166.593 78.5802 164.4 73.2863C162.208 67.9924 161.634 62.1671 162.752 56.5471C163.87 50.9271 166.629 45.7649 170.681 41.7131C174.733 37.6613 179.895 34.902 185.515 33.7841C191.135 32.6662 196.96 33.24 202.254 35.4328C207.548 37.6256 212.073 41.339 215.256 46.1034C218.44 50.8678 220.139 56.4692 220.139 62.1992C220.127 69.8794 217.071 77.2416 211.64 82.6723C206.209 88.103 198.847 91.1592 191.167 91.1711ZM191.167 34.3473C185.658 34.3473 180.273 35.9808 175.693 39.0412C171.113 42.1016 167.543 46.4515 165.435 51.5408C163.327 56.63 162.776 62.2301 163.85 67.6329C164.925 73.0356 167.577 77.9984 171.473 81.8935C175.368 85.7887 180.331 88.4413 185.733 89.516C191.136 90.5907 196.736 90.0391 201.825 87.9311C206.915 85.823 211.265 82.2532 214.325 77.6729C217.385 73.0927 219.019 67.7078 219.019 62.1992C219.01 54.8152 216.073 47.7361 210.851 42.5148C205.63 37.2935 198.551 34.3562 191.167 34.3473Z" fill="white"/>
<path d="M223.521 41.6267C224.884 37.973 225.126 33.9956 224.215 30.2037L221.191 30.1029C221.865 33.7841 221.409 37.5831 219.881 40.9995C208.873 40.9099 206.924 52.5233 198.133 49.9587C194.994 49.164 191.723 49.0456 188.535 49.6116C187.21 49.8143 185.9 50.11 184.616 50.4963C172.969 53.5312 158.746 60.7882 156.215 71.6848L158.914 72.2C158.914 72.2 160.672 64.1143 172.353 58.3468C171.242 59.8068 170.418 61.4634 169.922 63.2296C162.744 89.6368 211.426 84.9892 224.338 75.7724C240.129 64.5622 233.398 45.5239 223.521 41.6267Z" fill="#EBEBEB"/>
<path d="M146.337 32.0179H97.5545V35.1313H146.337V32.0179Z" fill="#EBEBEB"/>
<path d="M134.018 39.958H97.5545V43.0714H134.018V39.958Z" fill="#EBEBEB"/>
<path d="M146.337 55.827H97.5545V58.9403H146.337V55.827Z" fill="#EBEBEB"/>
<path d="M121.14 63.7671H97.5545V66.8804H121.14V63.7671Z" fill="#EBEBEB"/>
<path d="M141.757 63.7671H124.958V66.8804H141.757V63.7671Z" fill="#EBEBEB"/>
<path d="M136.818 71.7072H97.5545V74.8205H136.818V71.7072Z" fill="#EBEBEB"/>
<path d="M146.337 79.6361H97.5545V82.7494H146.337V79.6361Z" fill="#EBEBEB"/>
<path d="M302.832 366.655H256.793C256.272 366.654 255.769 366.464 255.378 366.12C254.986 365.776 254.733 365.302 254.665 364.785L245.37 290.816C245.334 290.514 245.362 290.209 245.452 289.919C245.542 289.629 245.693 289.362 245.894 289.134C246.095 288.907 246.341 288.724 246.618 288.599C246.894 288.474 247.194 288.409 247.498 288.408H312.127C312.431 288.409 312.731 288.474 313.007 288.599C313.284 288.724 313.531 288.907 313.732 289.134C313.933 289.362 314.083 289.629 314.173 289.919C314.264 290.209 314.291 290.514 314.255 290.816L304.96 364.785C304.894 365.303 304.642 365.778 304.25 366.123C303.858 366.467 303.354 366.657 302.832 366.655Z" fill="#EBEBEB"/>
<path opacity="0.7" d="M244.373 286.885C242.694 288.094 244.026 306.819 246.232 310.951C248.439 315.084 261.609 311.534 277.332 310.145C293.055 308.756 311.892 314.311 312.71 310.951C313.527 307.592 318.119 289.315 315.711 286.885C313.785 284.936 290.625 284.936 280.445 286.101C270.265 287.266 247.957 284.32 244.373 286.885Z" fill="#F5F5F5"/>
<path d="M279.975 417.23C399.897 417.23 497.112 411.554 497.112 404.553C497.112 397.551 399.897 391.875 279.975 391.875C160.053 391.875 62.8376 397.551 62.8376 404.553C62.8376 411.554 160.053 417.23 279.975 417.23Z" fill="#F5F5F5"/>
<path d="M183.664 51.941C175.208 44.0009 161.266 42.4778 156.047 50.7427C150.828 59.0075 153.807 67.7427 143.101 76.9035C135.821 83.1638 141.219 102.348 182.745 100.589C202.4 99.7607 195.747 79.3113 195.221 69.6466C194.695 59.9818 194.661 48.1557 183.664 51.941Z" fill="#263238"/>
<path d="M167.302 389.076L157.245 389.468L157.055 378.582L167.111 378.19L167.302 389.076Z" fill="#B55B52"/>
<path d="M156.618 387.385H167.985C168.185 387.382 168.38 387.449 168.537 387.573C168.694 387.698 168.804 387.872 168.847 388.068L170.818 397.083C170.864 397.303 170.859 397.53 170.805 397.748C170.751 397.965 170.648 398.168 170.505 398.341C170.363 398.514 170.183 398.653 169.979 398.747C169.775 398.842 169.553 398.889 169.329 398.886C165.353 398.819 163.427 398.584 158.421 398.584C155.341 398.584 147.356 398.908 143.101 398.908C138.845 398.908 138.308 394.698 140.044 394.317C147.883 392.603 152.441 390.252 154.949 388.001C155.409 387.595 156.005 387.375 156.618 387.385Z" fill="#263238"/>
<path opacity="0.2" d="M157.055 378.593L157.144 383.655L167.201 383.219L167.111 378.201L157.055 378.593Z" fill="black"/>
<path d="M142.227 169.833C139.988 181.905 142.563 240.913 145.979 266.973C150.526 301.578 155.229 381.931 155.229 381.931L168.668 381.124C168.668 381.124 172.028 296.505 169.284 268.72C170.841 232.962 174.693 170.505 174.693 170.505L142.227 169.833Z" fill="#6ECD55"/>
<path opacity="0.2" d="M172.465 209.421C172.935 200.361 166.518 192.309 163.931 209.421C162.296 220.296 165.678 239.356 170.113 252.817C170.796 238.808 171.669 223.207 172.465 209.421Z" fill="black"/>
<path d="M241.193 355.221L234.653 361.47L225.794 351.973L232.323 345.736L241.193 355.221Z" fill="#B55B52"/>
<path d="M232.939 361.638L239.659 352.433C239.768 352.273 239.934 352.16 240.124 352.119C240.313 352.077 240.511 352.109 240.678 352.209L248.517 356.823C248.71 356.951 248.875 357.116 249.003 357.31C249.13 357.503 249.218 357.72 249.259 357.948C249.301 358.176 249.297 358.41 249.246 358.636C249.196 358.862 249.1 359.076 248.965 359.264C246.58 362.433 245.269 363.833 242.324 367.887C240.51 370.373 238.416 373.8 235.918 377.25C233.421 380.699 230.005 378.224 230.744 376.555C234.104 369.063 232.682 366.98 232.502 363.408C232.445 362.785 232.599 362.162 232.939 361.638Z" fill="#263238"/>
<path opacity="0.2" d="M225.794 351.985L230.363 356.867L236.848 350.574L232.334 345.736L225.794 351.985Z" fill="black"/>
<path d="M157.816 170.158C157.816 170.158 172.285 246.311 176.048 275.876C178.288 293.537 227.676 357.08 227.676 357.08L236.109 348.199C236.109 348.199 218.033 301.679 196.263 274.084C195.4 241.742 199.073 188.502 186.575 170.751L157.816 170.158Z" fill="#6ECD55"/>
<path d="M145.117 111.766C145.117 118.306 144.814 124.723 144.333 131.207C143.851 137.692 143.213 144.142 142.171 150.638L141.981 151.858L141.723 153.236C141.529 154.139 141.316 155.024 141.085 155.89C140.592 157.604 139.965 159.25 139.405 160.84C138.18 163.958 136.789 167.008 135.239 169.978C132.187 175.786 128.709 181.359 124.835 186.654C124.426 187.203 123.829 187.581 123.158 187.717C122.487 187.852 121.79 187.735 121.2 187.388C120.61 187.041 120.169 186.489 119.961 185.836C119.754 185.184 119.795 184.478 120.076 183.854V183.787C122.707 178.098 125.261 172.263 127.489 166.484C128.609 163.595 129.606 160.672 130.457 157.805C130.86 156.372 131.219 154.949 131.499 153.561C131.644 152.866 131.745 152.183 131.846 151.511L131.958 150.515L132.07 149.395C132.641 143.19 132.977 136.897 133.291 130.592C133.604 124.286 133.75 117.925 133.929 111.676V111.62C133.953 110.135 134.565 108.721 135.632 107.687C136.699 106.654 138.133 106.087 139.618 106.111C141.103 106.134 142.518 106.747 143.551 107.814C144.584 108.881 145.152 110.315 145.128 111.8L145.117 111.766Z" fill="#B55B52"/>
<path d="M141.466 103.58C127.713 107.6 129.483 132.619 129.483 132.619L149.036 137.882C149.036 137.882 152.284 119.561 151.993 112.987C151.702 106.155 149.048 101.373 141.466 103.58Z" fill="#6ECD55"/>
<path d="M121.532 182.409L114.644 188.266L124.298 192.208C124.298 192.208 127.288 187.65 125.899 183.328L121.532 182.409Z" fill="#B55B52"/>
<path d="M115.865 197.203L120.266 197.752C120.755 197.813 121.25 197.711 121.676 197.462C122.101 197.213 122.432 196.831 122.618 196.375L124.298 192.208L114.644 188.266L113.916 194.728C113.85 195.314 114.017 195.903 114.382 196.366C114.747 196.83 115.28 197.13 115.865 197.203Z" fill="#B55B52"/>
<path d="M137.02 110.086C136.404 135.172 142.171 153.482 142.239 169.833L186.575 170.751C186.251 154.378 186.385 143.694 193.429 114.353C193.735 113.075 193.772 111.747 193.536 110.454C193.3 109.162 192.797 107.932 192.06 106.845C191.322 105.757 190.366 104.835 189.252 104.138C188.138 103.441 186.89 102.984 185.59 102.796C182.936 102.404 179.99 102.034 177 101.833C170.299 101.212 163.563 101.069 156.842 101.407C152.116 101.743 147.032 102.437 143.403 102.986C141.68 103.242 140.099 104.092 138.934 105.388C137.769 106.683 137.092 108.345 137.02 110.086Z" fill="#6ECD55"/>
<path d="M178.344 133.268L165.196 133.179C165.066 133.184 164.935 133.161 164.814 133.112C164.692 133.062 164.583 132.987 164.494 132.891C164.405 132.795 164.337 132.681 164.296 132.557C164.255 132.433 164.241 132.301 164.256 132.171L164.984 125.944C165.031 125.666 165.175 125.414 165.39 125.231C165.605 125.049 165.878 124.949 166.16 124.947L179.296 125.037C179.426 125.029 179.557 125.051 179.678 125.099C179.799 125.147 179.909 125.221 179.998 125.316C180.088 125.411 180.156 125.525 180.197 125.649C180.238 125.772 180.252 125.904 180.237 126.034L179.509 132.271C179.464 132.548 179.322 132.8 179.109 132.983C178.896 133.165 178.625 133.266 178.344 133.268Z" fill="white"/>
<path opacity="0.4" d="M156.909 101.418C156.909 101.418 149.675 106.48 157.324 119.18C163.603 113.071 170.185 107.282 177.045 101.833L156.909 101.418Z" fill="white"/>
<path d="M175.522 79.1209C174.122 85.5716 172.599 97.4201 177.045 101.833C170.054 104.586 163.608 108.56 158.007 113.569C153.09 104.543 156.887 101.407 156.887 101.407C164.144 99.8391 164.077 94.4748 162.923 89.4128L175.522 79.1209Z" fill="#B55B52"/>
<path opacity="0.2" d="M174.156 80.2408C173.981 84.0952 172.984 87.8677 171.233 91.3055C170.012 93.6684 166.753 94.6652 163.472 94.8555C163.58 93.025 163.403 91.1887 162.945 89.4128L174.156 80.2408Z" fill="black"/>
<path d="M186.015 71.2256C182.656 81.5511 181.536 85.9859 174.816 90.0176C164.793 96.0762 152.844 89.7488 153.001 78.6506C153.158 68.6611 158.6 53.464 169.878 51.9074C172.375 51.5458 174.923 51.8295 177.28 52.7315C179.637 53.6335 181.723 55.1237 183.341 57.0603C184.959 58.9969 186.054 61.3153 186.522 63.7949C186.99 66.2744 186.816 68.8325 186.015 71.2256Z" fill="#B55B52"/>
<path d="M158.634 57.6636C164.233 59.2427 177.874 60.4186 180.606 58.7835C178.042 62.7256 180.483 73.499 184.448 76.1084C189.789 71.8192 190.977 61.4489 186.038 56.3086C181.099 51.1682 165.488 45.02 158.634 57.6636Z" fill="#263238"/>
<path d="M187.583 77.5419C187.23 78.5256 186.683 79.4287 185.975 80.198C185.267 80.9673 184.413 81.5873 183.462 82.0215C180.931 83.1414 179.251 80.9912 179.61 78.3818C179.934 76.0412 181.648 72.6255 184.358 72.5807C184.943 72.5888 185.517 72.7408 186.029 73.0233C186.541 73.3058 186.976 73.7102 187.295 74.2006C187.613 74.691 187.807 75.2524 187.857 75.8351C187.907 76.4179 187.813 77.0041 187.583 77.5419Z" fill="#B55B52"/>
<path d="M187.292 168.164L189.218 172.185C189.364 172.487 188.994 172.801 188.479 172.789L141.97 171.815C141.578 171.815 141.253 171.602 141.231 171.345L140.906 167.369C140.906 167.1 141.242 166.876 141.679 166.876L186.587 167.817C186.724 167.809 186.862 167.836 186.985 167.897C187.109 167.958 187.215 168.05 187.292 168.164Z" fill="#263238"/>
<path d="M181.166 173.058H182.365C182.6 173.058 182.79 172.935 182.779 172.789L182.32 167.615C182.32 167.47 182.096 167.335 181.861 167.335H180.651C180.416 167.335 180.237 167.447 180.248 167.604L180.696 172.767C180.718 172.935 180.92 173.058 181.166 173.058Z" fill="#6ECD55"/>
<path d="M145.341 172.319H146.55C146.785 172.319 146.976 172.207 146.964 172.05L146.505 166.876C146.505 166.731 146.281 166.608 146.046 166.596H144.837C144.602 166.596 144.411 166.708 144.434 166.865L144.881 172.028C144.904 172.185 145.105 172.308 145.341 172.319Z" fill="#6ECD55"/>
<path d="M163.248 172.689H164.457C164.693 172.689 164.883 172.577 164.872 172.42L164.413 167.257C164.413 167.1 164.189 166.977 163.953 166.977H162.744C162.509 166.977 162.33 167.1 162.341 167.246L162.789 172.42C162.811 172.554 163.013 172.689 163.248 172.689Z" fill="#6ECD55"/>
<path d="M169.9 70.3633C169.676 71.2144 169.049 71.7968 168.489 71.6512C167.929 71.5056 167.66 70.6993 167.873 69.8482C168.086 68.997 168.724 68.4147 169.284 68.5603C169.844 68.7059 170.113 69.5122 169.9 70.3633Z" fill="#263238"/>
<path d="M160.246 67.8995C160.034 68.7619 159.407 69.333 158.847 69.1874C158.287 69.0418 158.007 68.2467 158.231 67.3844C158.455 66.5221 159.071 65.9621 159.631 66.0965C160.19 66.2309 160.47 67.0484 160.246 67.8995Z" fill="#263238"/>
<path d="M159.866 66.2085L157.962 65.0886C157.962 65.0886 158.611 66.97 159.866 66.2085Z" fill="#263238"/>
<path d="M162.386 70.0161C161.132 71.7713 159.643 73.3463 157.962 74.6973C158.317 75.1179 158.759 75.456 159.258 75.6881C159.757 75.9202 160.301 76.0407 160.851 76.0412L162.386 70.0161Z" fill="#A02724"/>
<path d="M162.923 79.3897C162.884 79.3559 162.854 79.3119 162.839 79.2624C162.823 79.213 162.821 79.1601 162.833 79.1097C162.844 79.0773 162.86 79.0472 162.882 79.0212C162.904 78.9952 162.931 78.9737 162.961 78.9581C162.991 78.9425 163.024 78.933 163.058 78.9302C163.092 78.9274 163.126 78.9313 163.158 78.9418C164.204 79.2696 165.313 79.3472 166.394 79.1682C167.476 78.9893 168.5 78.5588 169.385 77.9114C169.437 77.8669 169.504 77.8448 169.573 77.8501C169.641 77.8553 169.704 77.8875 169.749 77.9394C169.793 77.9914 169.815 78.059 169.81 78.1272C169.805 78.1955 169.773 78.2589 169.721 78.3034C168.774 79.0179 167.669 79.4928 166.499 79.6878C165.329 79.8828 164.129 79.7921 163.001 79.4233L162.923 79.3897Z" fill="#263238"/>
<path d="M175.164 66.4325C175.096 66.3718 175.039 66.2998 174.996 66.2197C174.764 65.6127 174.392 65.0695 173.909 64.6352C173.426 64.2009 172.846 63.888 172.218 63.7223C172.083 63.6985 171.963 63.6221 171.884 63.5097C171.805 63.3973 171.775 63.2583 171.798 63.1232C171.822 62.988 171.899 62.8678 172.011 62.7891C172.123 62.7103 172.262 62.6794 172.397 62.7032C173.196 62.9008 173.936 63.2864 174.556 63.828C175.175 64.3696 175.656 65.0513 175.959 65.8165C175.998 65.9218 176.003 66.037 175.972 66.1452C175.942 66.2534 175.877 66.3489 175.788 66.4178C175.699 66.4866 175.591 66.5252 175.478 66.5279C175.366 66.5305 175.256 66.4971 175.164 66.4325Z" fill="#263238"/>
<path d="M158.343 62.4568L158.275 62.3896C158.179 62.293 158.125 62.1621 158.125 62.0257C158.125 61.8892 158.179 61.7583 158.275 61.6617C158.867 61.1068 159.58 60.6991 160.359 60.4714C161.137 60.2438 161.958 60.2027 162.755 60.3514C162.822 60.3683 162.884 60.3983 162.939 60.4398C162.994 60.4812 163.04 60.5332 163.074 60.5927C163.109 60.6522 163.131 60.7179 163.14 60.7861C163.148 60.8543 163.143 60.9236 163.125 60.9898C163.09 61.1219 163.005 61.235 162.888 61.3043C162.77 61.3736 162.63 61.3934 162.498 61.3593C161.859 61.2389 161.2 61.2726 160.577 61.4576C159.954 61.6426 159.383 61.9737 158.914 62.4232C158.833 62.4846 158.735 62.5206 158.633 62.5266C158.532 62.5326 158.431 62.5083 158.343 62.4568Z" fill="#263238"/>
<path d="M193.418 110.713C196.677 115.025 199.723 119.37 202.68 123.883C204.147 126.123 205.602 128.363 206.98 130.782C208.464 133.229 209.795 135.764 210.967 138.375C211.321 139.189 211.628 140.023 211.885 140.872C212.072 141.528 212.199 142.199 212.266 142.877C212.284 143.149 212.284 143.422 212.266 143.694V144.198C212.245 144.42 212.212 144.641 212.165 144.859L212.087 145.206V145.363V145.486L211.997 145.733C211.471 147.076 211.056 148.432 210.429 149.731C209.294 152.393 207.93 154.952 206.353 157.38C204.729 159.83 202.827 162.085 200.686 164.099C199.595 165.122 198.423 166.055 197.181 166.888C196.542 167.302 195.893 167.705 195.221 168.075L194.157 168.59C193.754 168.769 193.463 168.892 192.88 169.105L190.753 163.998C190.904 163.85 191.065 163.712 191.234 163.584L191.85 163.046C192.264 162.677 192.668 162.274 193.06 161.859C193.857 161.003 194.605 160.102 195.299 159.16C196.667 157.237 197.859 155.194 198.861 153.057C199.331 151.937 199.846 150.884 200.238 149.697C200.63 148.51 201.067 147.457 201.425 146.337C201.784 145.217 202.064 143.986 202.411 142.821V142.608V142.496V142.597V142.821C202.411 142.955 202.355 143.157 202.344 143.235C202.338 143.321 202.338 143.407 202.344 143.493V143.818C202.344 144.075 202.344 143.997 202.344 143.885C202.344 143.773 202.03 143.168 201.795 142.698C200.776 140.783 199.409 138.576 198.01 136.471C196.61 134.366 195.154 132.204 193.664 130.088C190.697 125.843 187.639 121.554 184.638 117.343L193.418 110.713Z" fill="#B55B52"/>
<path d="M195.848 167.783L187.214 173.887L183.339 165.062C183.339 165.062 188.58 162.251 192.712 164.133L195.848 167.783Z" fill="#B55B52"/>
<path d="M181.2 174.615L179.038 171.602C178.628 171.021 178.461 170.303 178.571 169.6C178.682 168.898 179.063 168.266 179.632 167.839L183.339 165.062L187.214 173.887L184.839 175.354C184.252 175.715 183.55 175.839 182.874 175.702C182.198 175.565 181.6 175.176 181.2 174.615Z" fill="#B55B52"/>
<path d="M176.138 108.048C173.204 119.706 191.301 139.663 191.301 139.663L206.521 123.861C206.521 123.861 199.566 109.011 190.484 104.352C184.145 101.105 177.437 102.908 176.138 108.048Z" fill="#6ECD55"/>
<path d="M169.519 68.6723L167.615 67.5524C167.615 67.5524 168.254 69.4338 169.519 68.6723Z" fill="#263238"/>
<path d="M150.067 139.192C149.985 139.192 149.905 139.167 149.837 139.121C149.769 139.075 149.717 139.011 149.686 138.935C149.649 138.835 149.654 138.725 149.698 138.629C149.742 138.533 149.822 138.457 149.921 138.42L151.668 137.748C153.304 137.143 154.717 136.054 155.718 134.625C156.719 133.196 157.259 131.496 157.268 129.752L157.391 113.379C157.426 112.132 157.033 110.911 156.276 109.92C155.519 108.929 154.444 108.228 153.233 107.935C152.021 107.641 150.745 107.772 149.618 108.306C148.491 108.841 147.582 109.746 147.043 110.87L139.472 125.429C138.659 126.966 138.331 128.713 138.531 130.441C138.73 132.168 139.449 133.794 140.592 135.105L141.824 136.505C141.866 136.543 141.899 136.59 141.921 136.642C141.943 136.694 141.954 136.75 141.953 136.807C141.952 136.863 141.939 136.919 141.916 136.97C141.892 137.021 141.857 137.067 141.815 137.104C141.772 137.141 141.722 137.169 141.668 137.186C141.614 137.202 141.557 137.207 141.501 137.2C141.445 137.193 141.39 137.175 141.342 137.146C141.294 137.116 141.252 137.077 141.219 137.031L139.988 135.508C138.726 134.084 137.929 132.309 137.703 130.42C137.477 128.531 137.833 126.618 138.722 124.936L146.293 110.377C146.94 109.135 147.986 108.146 149.263 107.571C150.541 106.996 151.975 106.867 153.334 107.206C154.693 107.545 155.899 108.331 156.757 109.439C157.615 110.547 158.075 111.911 158.063 113.311L157.94 129.684C157.93 131.584 157.345 133.435 156.262 134.995C155.178 136.555 153.646 137.749 151.87 138.42L150.123 139.08L150.067 139.192Z" fill="#263238"/>
<path d="M157.671 117.03C157.567 117.027 157.467 116.985 157.393 116.912C157.318 116.84 157.273 116.742 157.268 116.638C157.109 115.344 156.562 114.128 155.698 113.151C154.835 112.174 153.696 111.482 152.431 111.166C151.166 110.849 149.835 110.923 148.613 111.378C147.392 111.833 146.337 112.648 145.587 113.715C145.561 113.761 145.527 113.802 145.485 113.835C145.444 113.868 145.396 113.892 145.345 113.907C145.294 113.921 145.241 113.926 145.188 113.92C145.136 113.914 145.085 113.897 145.038 113.871C144.992 113.846 144.951 113.811 144.918 113.77C144.885 113.728 144.861 113.681 144.846 113.63C144.832 113.579 144.827 113.525 144.833 113.473C144.839 113.42 144.856 113.369 144.881 113.323C145.715 112.091 146.906 111.145 148.295 110.613C149.683 110.081 151.202 109.988 152.645 110.347C154.088 110.707 155.386 111.5 156.363 112.621C157.34 113.743 157.949 115.137 158.107 116.615C158.108 116.721 158.067 116.823 157.994 116.901C157.921 116.978 157.822 117.024 157.716 117.03H157.671Z" fill="#263238"/>
<path d="M153.303 108.082C153.237 108.081 153.172 108.064 153.113 108.033C153.055 108.002 153.005 107.957 152.967 107.902C152.763 107.448 152.657 106.956 152.657 106.458C152.657 105.96 152.763 105.467 152.967 105.013C153.258 104.11 153.748 103.283 154.401 102.595C155.055 101.907 155.854 101.375 156.741 101.037C156.79 101.018 156.843 101.009 156.896 101.011C156.948 101.014 157 101.027 157.047 101.05C157.095 101.073 157.137 101.106 157.171 101.146C157.205 101.186 157.23 101.233 157.245 101.284C157.278 101.383 157.27 101.492 157.224 101.586C157.178 101.68 157.097 101.752 156.999 101.788C156.239 102.099 155.556 102.572 154.998 103.173C154.439 103.775 154.017 104.49 153.762 105.271C153.595 105.617 153.498 105.994 153.477 106.378C153.456 106.763 153.511 107.147 153.639 107.51C153.668 107.555 153.688 107.605 153.697 107.658C153.707 107.71 153.706 107.764 153.694 107.816C153.683 107.868 153.661 107.917 153.631 107.961C153.6 108.005 153.561 108.042 153.516 108.07C153.447 108.091 153.374 108.095 153.303 108.082Z" fill="#263238"/>
<path d="M149.148 138.576C148.958 139.304 149.148 139.999 149.686 140.122C150.223 140.245 150.716 139.741 150.895 139.002C151.075 138.263 150.828 137.569 150.347 137.457C149.865 137.345 149.327 137.837 149.148 138.576Z" fill="#263238"/>
<path d="M180.931 119.236C181.289 120.927 182.499 122.091 183.608 121.856C184.716 121.621 185.321 120.042 184.952 118.362C184.582 116.682 183.384 115.495 182.275 115.742C181.166 115.988 180.561 117.59 180.931 119.236Z" fill="#263238"/>
<path d="M184.436 118.709C184.385 118.711 184.334 118.702 184.285 118.684C184.237 118.666 184.193 118.638 184.156 118.603C184.118 118.567 184.088 118.525 184.067 118.478C184.046 118.431 184.035 118.38 184.033 118.329C183.798 112.136 181.446 104.442 176.866 102.169C176.771 102.12 176.699 102.037 176.666 101.937C176.632 101.836 176.64 101.726 176.687 101.631C176.709 101.583 176.741 101.54 176.781 101.505C176.821 101.47 176.867 101.443 176.917 101.426C176.967 101.41 177.02 101.403 177.073 101.408C177.126 101.412 177.177 101.427 177.224 101.452C182.129 103.882 184.582 111.665 184.828 118.25C184.833 118.303 184.827 118.356 184.81 118.406C184.793 118.456 184.765 118.503 184.729 118.542C184.694 118.581 184.65 118.612 184.601 118.633C184.553 118.654 184.501 118.665 184.448 118.665L184.436 118.709Z" fill="#263238"/>
<path d="M179.733 119.381C179.968 120.826 181.009 121.856 182.062 121.688C183.115 121.52 183.787 120.21 183.552 118.754C183.316 117.298 182.264 116.279 181.211 116.447C180.158 116.615 179.498 117.925 179.733 119.381Z" fill="white"/>
<path d="M179.643 119.505C179.979 121.296 180.92 122.618 181.737 122.461C182.555 122.304 182.924 120.736 182.589 118.945C182.253 117.153 181.312 115.831 180.494 115.988C179.677 116.145 179.296 117.713 179.643 119.505Z" fill="#263238"/>
<path d="M140.682 136.46C140.503 137.199 140.749 137.893 141.231 138.005C141.712 138.117 142.25 137.636 142.44 136.885C142.63 136.135 142.373 135.463 141.891 135.34C141.41 135.217 140.872 135.732 140.682 136.46Z" fill="#263238"/>
<path d="M263.356 45.2664C256.267 46.5318 255.371 45.8823 255.281 40.7868C255.192 35.6912 252.616 27.1912 256.2 24.5258C256.445 24.2926 256.748 24.1279 257.078 24.0483C257.407 23.9686 257.752 23.9769 258.077 24.0721C258.402 24.1673 258.697 24.3462 258.932 24.5908C259.166 24.8355 259.332 25.1375 259.414 25.4665C259.632 24.9076 260.059 24.4546 260.603 24.2022C261.148 23.9497 261.769 23.9172 262.337 24.1114C262.482 23.0587 262.65 20.3598 264.576 19.6318C266.503 18.9039 268.272 20.651 268.272 20.651C268.272 20.651 268.126 16.4961 270.926 16.8993C271.762 17.0329 272.538 17.4153 273.154 17.9966C273.769 18.5779 274.195 19.3312 274.376 20.1582C274.376 20.1582 275.988 17.8064 278.172 18.7359C280.356 19.6654 279.897 22.398 279.897 22.398C279.897 22.398 282.215 21.2781 283.939 22.5436C285.664 23.8091 284.41 25.8361 284.41 25.8361C284.41 25.8361 285.978 21.8045 288.968 24.0331C291.656 26.0489 289.214 29.207 289.214 29.207C289.214 29.207 292.171 28.7254 292.887 30.2149C295.306 35.2881 286.09 40.9547 285.787 49.522C271.632 54.8751 263.356 45.2664 263.356 45.2664Z" fill="#263238"/>
<path d="M212.266 181.424L207.54 180.55L201.291 186.519C200.951 186.843 200.682 187.235 200.503 187.669C200.324 188.103 200.237 188.57 200.249 189.039L200.339 193.922C200.35 194.757 200.671 195.558 201.241 196.168C201.81 196.779 202.587 197.156 203.419 197.226L205.591 197.416C206.382 197.491 207.173 197.283 207.825 196.83C208.477 196.377 208.947 195.708 209.153 194.941L210.272 190.954C210.272 190.954 216.443 183.664 212.266 181.424Z" fill="#E4897B"/>
<path d="M259.996 92.123C256.827 100.332 253.669 108.574 250.622 116.839C247.576 125.104 244.553 133.403 241.719 141.567L241.215 143.078L240.868 144.064C240.734 144.434 240.599 144.814 240.476 145.105C239.95 146.438 239.423 147.536 238.897 148.644C237.844 150.884 236.78 152.889 235.705 154.916C233.544 158.947 231.315 162.833 229.064 166.708C224.585 174.469 220.105 182.051 215.469 189.745L201.212 180.875C205.916 173.562 210.452 166.014 214.797 158.477C216.936 154.692 219.041 150.895 221.001 147.132C221.975 145.251 222.916 143.37 223.745 141.533C224.137 140.648 224.529 139.741 224.786 139.002C224.876 138.789 224.91 138.644 224.966 138.498L225.145 137.916L225.66 136.281C228.359 127.68 231.192 119.37 233.925 110.937L242.122 85.7284L259.996 92.123Z" fill="#6ECD55"/>
<path opacity="0.6" d="M259.996 92.123C256.827 100.332 253.669 108.574 250.622 116.839C247.576 125.104 244.553 133.403 241.719 141.567L241.215 143.078L240.868 144.064C240.734 144.434 240.599 144.814 240.476 145.105C239.95 146.438 239.423 147.536 238.897 148.644C237.844 150.884 236.78 152.889 235.705 154.916C233.544 158.947 231.315 162.833 229.064 166.708C224.585 174.469 220.105 182.051 215.469 189.745L201.212 180.875C205.916 173.562 210.452 166.014 214.797 158.477C216.936 154.692 219.041 150.895 221.001 147.132C221.975 145.251 222.916 143.37 223.745 141.533C224.137 140.648 224.529 139.741 224.786 139.002C224.876 138.789 224.91 138.644 224.966 138.498L225.145 137.916L225.66 136.281C228.359 127.68 231.192 119.37 233.925 110.937L242.122 85.7284L259.996 92.123Z" fill="white"/>
<path d="M217.283 391.864L207.238 392.357L211.986 366.196L221.539 368.391L217.283 391.864Z" fill="#E4897B"/>
<path d="M289.349 392.245H279.303L279.337 368.985H289.371L289.349 392.245Z" fill="#E4897B"/>
<path d="M278.351 391.08H290.592C290.788 391.077 290.98 391.144 291.132 391.269C291.284 391.395 291.386 391.57 291.42 391.763L293.033 400.723C293.069 400.944 293.056 401.171 292.995 401.387C292.934 401.603 292.827 401.804 292.681 401.974C292.535 402.145 292.354 402.281 292.15 402.375C291.945 402.468 291.723 402.516 291.499 402.515C287.557 402.447 284.69 402.212 279.729 402.212C276.683 402.212 267.41 402.526 263.244 402.526C259.078 402.526 258.652 398.36 260.388 397.979C268.227 396.288 274.129 393.958 276.694 391.73C277.148 391.318 277.738 391.087 278.351 391.08Z" fill="#263238"/>
<path opacity="0.2" d="M211.986 366.207L209.791 378.302L219.344 380.497L221.539 368.402L211.986 366.207Z" fill="black"/>
<path opacity="0.2" d="M289.371 368.985H279.326V380.968H289.371V368.985Z" fill="black"/>
<path d="M297.457 91.8318C289.617 127.097 291.7 161.904 290.86 169.441L237.251 165.902C231.651 123.346 237.9 96.1994 241.45 85.0676C242.028 83.2301 243.119 81.5965 244.596 80.36C246.072 79.1235 247.872 78.336 249.783 78.0906C257.754 77.2169 265.782 76.966 273.793 77.3403C279.217 77.6648 284.599 78.4819 289.875 79.7817C292.477 80.3771 294.736 81.9802 296.157 84.2392C297.579 86.4982 298.046 89.2287 297.457 91.8318Z" fill="#6ECD55"/>
<path d="M281.296 53.4417C279.527 60.0827 277.433 71.8416 280.804 77.7883C281.33 78.7178 280.322 79.5129 280.277 80.588C280.154 83.8805 275.697 84.8661 267.723 84.9108C259.75 84.9556 256.334 81.6295 258.507 78.4938C258.84 78.0158 259.346 77.6864 259.918 77.5755C267.387 75.9068 267.533 70.0498 266.514 64.4615L281.296 53.4417Z" fill="#E4897B"/>
<path opacity="0.4" d="M267.152 83.0854C269.247 85.9983 270.575 89.3911 271.016 92.9517C278.978 89.2112 282.775 80.1288 282.775 80.1288L280.378 77.5643C280.378 77.5643 271.531 79.2329 267.152 83.0854Z" fill="black"/>
<path opacity="0.4" d="M266.368 83.119C263.436 85.5054 260.962 88.4045 259.066 91.675C253.501 88.2257 255.337 78.393 255.337 78.393L259.873 77.4971C259.873 77.4971 261.9 79.3673 266.368 83.119Z" fill="black"/>
<path d="M266.727 82.8726L265.013 83.0406L262.113 84.9556C261.928 86.1091 262.133 87.2914 262.695 88.3153C264.38 88.6444 266.099 88.761 267.813 88.6625C268.963 88.1073 269.879 87.1631 270.4 85.9971L268.272 83.2758L266.727 82.8726Z" fill="#263238"/>
<path d="M266.727 82.8726C268.878 85.5653 270.528 88.6227 271.598 91.899C279.561 88.1585 284.197 79.2217 284.197 79.2217L280.356 75.862C280.356 75.862 271.105 79.0425 266.727 82.8726Z" fill="#6ECD55"/>
<path d="M266.727 82.8726C263.653 84.8116 260.965 87.3023 258.798 90.2192C253.198 86.7811 255.337 77.5195 255.337 77.5195L259.873 76.6236C259.873 76.6236 262.269 79.1433 266.727 82.8726Z" fill="#6ECD55"/>
<path opacity="0.2" d="M275.271 57.9324L266.536 64.4503C266.801 65.7974 266.947 67.1652 266.973 68.5379C270.12 68.3027 274.644 65.1782 275.193 61.9081C275.456 60.5981 275.483 59.2517 275.271 57.9324Z" fill="black"/>
<path d="M282.898 42.4666C281.632 52.3553 281.397 58.1452 276.044 62.972C267.992 70.1281 256.043 64.775 254.329 54.7071C252.784 45.6471 255.113 30.9988 265.092 27.6951C267.288 26.9546 269.638 26.7882 271.918 27.2117C274.197 27.6352 276.33 28.6345 278.114 30.1147C279.899 31.5949 281.275 33.5068 282.112 35.6687C282.949 37.8306 283.22 40.1707 282.898 42.4666Z" fill="#E4897B"/>
<path d="M280.479 51.4034C278.239 49.242 279.639 38.8941 280.77 35.9264C275.171 36.4639 257.073 36.4415 257.756 31.4468C258.439 26.452 265.024 22.2076 275.787 25.7129C284.746 28.6358 286.986 33.1042 286.986 36.7551C287.12 44.2584 280.479 51.4034 280.479 51.4034Z" fill="#263238"/>
<path d="M286.37 51.5154C285.306 53.5479 283.489 55.0835 281.308 55.7934C278.452 56.6781 277.041 54.0464 277.847 51.2242C278.564 48.6933 280.927 45.1656 283.783 45.5239C286.638 45.8823 287.68 48.9956 286.37 51.5154Z" fill="#E4897B"/>
<path d="M206.521 375.234L223.129 378.896C223.129 378.896 239.278 315.61 244.071 284.679C245.538 275.271 248.943 261.844 252.045 247.722C255.953 229.916 260.87 210.653 264.901 195.568C269.157 179.677 272.315 168.254 272.315 168.254L237.251 165.936C237.251 165.936 220.934 248.707 217.641 279.18C214.203 310.851 206.521 375.234 206.521 375.234Z" fill="#263238"/>
<path opacity="0.2" d="M252.045 247.7C255.953 229.893 260.87 210.631 264.901 195.546L261.217 187.706C252.515 198.099 250.286 230.251 252.045 247.7Z" fill="black"/>
<path d="M253.96 167.011C253.96 167.011 261.217 251.597 264.039 280.882C267.175 312.956 275.585 378.661 275.585 378.661H292.451C292.451 378.661 293.212 308.689 290.211 277.713C289.785 216.813 290.849 169.452 290.849 169.452L253.96 167.011Z" fill="#263238"/>
<path d="M273.435 379.053H295.094V372.58L272.595 371.336L273.435 379.053Z" fill="#6ECD55"/>
<path d="M204.348 375.167L224.137 379.534L225.548 373.14L204.83 367.921L204.348 375.167Z" fill="#6ECD55"/>
<path d="M268.44 44.2361C268.44 45.0424 267.914 45.6695 267.387 45.6359C266.861 45.6023 266.469 44.9192 266.525 44.1129C266.581 43.3065 267.051 42.6794 267.578 42.713C268.104 42.7466 268.496 43.4297 268.44 44.2361Z" fill="#263238"/>
<path d="M259.302 43.6761C259.302 44.4824 258.775 45.1096 258.249 45.076C257.723 45.0424 257.331 44.3592 257.387 43.5529C257.443 42.7466 257.913 42.1194 258.439 42.153C258.966 42.1866 259.358 42.825 259.302 43.6761Z" fill="#263238"/>
<path d="M261.396 44.2361C260.267 46.6386 258.816 48.8764 257.084 50.8883C258.417 52.3217 260.892 51.8738 260.892 51.8738L261.396 44.2361Z" fill="#ED893E"/>
<path d="M264.162 54.2591C265.07 54.208 265.957 53.9732 266.772 53.5689C267.586 53.1647 268.31 52.5994 268.899 51.9074C268.941 51.8636 268.964 51.8055 268.964 51.745C268.964 51.6845 268.941 51.6263 268.899 51.5826C268.854 51.5401 268.794 51.5164 268.731 51.5164C268.669 51.5164 268.609 51.5401 268.563 51.5826C267.898 52.3414 267.064 52.9334 266.129 53.3107C265.193 53.6881 264.182 53.8404 263.177 53.7552C263.146 53.7521 263.114 53.7552 263.085 53.7642C263.055 53.7733 263.027 53.7881 263.003 53.8079C262.979 53.8277 262.96 53.852 262.945 53.8795C262.931 53.907 262.922 53.937 262.919 53.968C262.916 54.0315 262.937 54.0938 262.979 54.1418C263.021 54.1899 263.08 54.2198 263.143 54.2256C263.482 54.2573 263.822 54.2685 264.162 54.2591Z" fill="#263238"/>
<path d="M270.669 41.4363C270.748 41.4272 270.825 41.4004 270.893 41.3579C270.999 41.289 271.074 41.1811 271.101 41.0574C271.128 40.9337 271.106 40.8043 271.038 40.6972C270.638 40.0528 270.09 39.5134 269.44 39.1238C268.789 38.7342 268.055 38.5057 267.298 38.4574C267.184 38.4749 267.08 38.5325 267.005 38.6198C266.931 38.7071 266.889 38.8183 266.889 38.9333C266.889 39.0484 266.931 39.1596 267.005 39.2469C267.08 39.3342 267.184 39.3918 267.298 39.4093C267.895 39.4534 268.474 39.6389 268.986 39.9504C269.498 40.2619 269.929 40.6906 270.243 41.2011C270.285 41.2762 270.347 41.3381 270.422 41.3797C270.497 41.4212 270.583 41.4409 270.669 41.4363Z" fill="#263238"/>
<path d="M254.788 40.238C254.866 40.2326 254.942 40.2083 255.008 40.1673C255.074 40.1264 255.13 40.0699 255.169 40.0028C255.455 39.4824 255.859 39.0368 256.35 38.7021C256.84 38.3674 257.403 38.1531 257.991 38.0766C258.116 38.0653 258.232 38.0068 258.315 37.9132C258.398 37.8196 258.443 37.6979 258.439 37.5727C258.431 37.4469 258.373 37.3295 258.279 37.2458C258.185 37.162 258.061 37.1185 257.935 37.1247C257.184 37.2155 256.464 37.4858 255.839 37.9126C255.213 38.3394 254.699 38.9103 254.341 39.5773C254.28 39.6858 254.265 39.8138 254.299 39.9334C254.332 40.053 254.412 40.1544 254.52 40.2156C254.604 40.2537 254.699 40.2616 254.788 40.238Z" fill="#263238"/>
<path d="M274.958 392.827C275.849 392.806 276.736 392.686 277.601 392.469C277.646 392.459 277.687 392.435 277.719 392.401C277.751 392.367 277.772 392.325 277.78 392.279C277.792 392.235 277.79 392.189 277.774 392.146C277.758 392.104 277.728 392.068 277.69 392.043C277.332 391.808 274.174 389.804 273.032 390.386C272.908 390.451 272.804 390.547 272.729 390.665C272.654 390.783 272.612 390.918 272.606 391.058C272.566 391.289 272.586 391.526 272.662 391.747C272.738 391.968 272.869 392.166 273.043 392.323C273.604 392.707 274.28 392.885 274.958 392.827ZM276.918 392.133C275.204 392.48 273.894 392.413 273.368 391.954C273.248 391.848 273.159 391.713 273.108 391.561C273.057 391.41 273.046 391.248 273.076 391.092C273.076 390.912 273.166 390.845 273.233 390.812C273.827 390.52 275.641 391.372 276.918 392.133Z" fill="#6ECD55"/>
<path d="M277.545 392.48C277.584 392.496 277.628 392.496 277.668 392.48C277.706 392.46 277.738 392.429 277.76 392.391C277.781 392.354 277.792 392.311 277.791 392.267C277.791 392.144 277.668 389.244 276.537 388.292C276.4 388.172 276.24 388.083 276.066 388.031C275.892 387.979 275.709 387.965 275.529 387.989C275.35 387.99 275.176 388.051 275.035 388.163C274.895 388.275 274.797 388.431 274.756 388.605C274.499 389.725 276.414 391.965 277.433 392.491C277.47 392.499 277.509 392.495 277.545 392.48ZM275.686 388.404C275.885 388.406 276.077 388.482 276.223 388.617C276.94 389.221 277.198 390.912 277.276 391.763C276.279 390.98 275.036 389.311 275.215 388.65C275.215 388.594 275.215 388.449 275.574 388.415H275.686V388.404Z" fill="#6ECD55"/>
<path d="M205.737 387.933L217.518 391.293C217.706 391.347 217.87 391.465 217.98 391.626C218.09 391.788 218.141 391.983 218.123 392.178L217.249 401.215C217.221 401.438 217.145 401.651 217.026 401.841C216.908 402.032 216.749 402.194 216.562 402.317C216.375 402.441 216.163 402.522 215.942 402.556C215.72 402.59 215.494 402.576 215.278 402.515C211.504 401.395 208.817 400.375 204.079 399.02C201.145 398.192 191.593 394.765 188.11 392.391C184.627 390.016 186.676 386.354 188.322 387.026C195.725 390.028 200.932 389.546 204.001 388.146C204.536 387.872 205.151 387.797 205.737 387.933Z" fill="#263238"/>
<path d="M201.985 388.695C202.851 388.91 203.737 389.034 204.628 389.065C204.676 389.068 204.724 389.056 204.766 389.033C204.808 389.009 204.842 388.973 204.863 388.93C204.89 388.892 204.904 388.847 204.904 388.801C204.904 388.755 204.89 388.71 204.863 388.673C204.583 388.359 202.086 385.582 200.843 385.817C200.705 385.847 200.576 385.913 200.47 386.007C200.365 386.101 200.285 386.221 200.238 386.354C200.141 386.564 200.098 386.794 200.111 387.025C200.125 387.256 200.195 387.479 200.317 387.676C200.743 388.192 201.331 388.551 201.985 388.695ZM204.068 388.561C202.321 388.426 201.078 388.001 200.708 387.441C200.633 387.301 200.593 387.145 200.593 386.987C200.593 386.829 200.633 386.673 200.708 386.534C200.776 386.354 200.865 386.321 200.944 386.31C201.582 386.164 203.038 387.485 204.068 388.605V388.561Z" fill="#6ECD55"/>
<path d="M204.572 389.053C204.616 389.065 204.662 389.065 204.707 389.053C204.75 389.042 204.789 389.02 204.821 388.989C204.853 388.957 204.875 388.917 204.886 388.874C204.886 388.762 205.58 385.94 204.763 384.708C204.662 384.558 204.532 384.431 204.38 384.334C204.227 384.238 204.056 384.174 203.878 384.148C203.704 384.1 203.519 384.111 203.353 384.18C203.187 384.249 203.048 384.372 202.959 384.529C202.4 385.537 203.654 388.18 204.471 389.009C204.501 389.032 204.535 389.047 204.572 389.053ZM203.889 384.63C204.081 384.683 204.245 384.807 204.348 384.977C204.886 385.761 204.662 387.463 204.516 388.337C203.766 387.317 203.049 385.38 203.396 384.786C203.396 384.731 203.497 384.607 203.811 384.652L203.889 384.63Z" fill="#6ECD55"/>
<path d="M281.464 76.9147C281.345 76.8956 281.223 76.9039 281.108 76.9389C280.993 76.9738 280.887 77.0346 280.798 77.1167C280.71 77.1987 280.641 77.2997 280.597 77.4122C280.554 77.5247 280.536 77.6456 280.546 77.7659C280.938 83.7685 271.587 94.5643 269.347 126.896C268.014 146.561 266.794 207.876 267.69 239.771C267.703 240.189 267.811 240.599 268.006 240.97C268.202 241.34 268.479 241.661 268.817 241.908C269.155 242.155 269.544 242.322 269.957 242.396C270.369 242.47 270.792 242.449 271.195 242.335C287.725 237.721 295.53 248.909 298.711 235.717C298.543 219.915 293.761 163.181 294.993 149.731C296.225 136.281 301.343 99.7383 302.619 89.9952C303.751 81.5287 286.09 77.7547 281.464 76.9147Z" fill="#6ECD55"/>
<path opacity="0.7" d="M281.464 76.9147C281.345 76.8956 281.223 76.9039 281.108 76.9389C280.993 76.9738 280.887 77.0346 280.798 77.1167C280.71 77.1987 280.641 77.2997 280.597 77.4122C280.554 77.5247 280.536 77.6456 280.546 77.7659C280.938 83.7685 271.587 94.5643 269.347 126.896C268.014 146.561 266.794 207.876 267.69 239.771C267.703 240.189 267.811 240.599 268.006 240.97C268.202 241.34 268.479 241.661 268.817 241.908C269.155 242.155 269.544 242.322 269.957 242.396C270.369 242.47 270.792 242.449 271.195 242.335C287.725 237.721 295.53 248.909 298.711 235.717C298.543 219.915 293.761 163.181 294.993 149.731C296.225 136.281 301.343 99.7383 302.619 89.9952C303.751 81.5287 286.09 77.7547 281.464 76.9147Z" fill="white"/>
<path opacity="0.2" d="M292.361 104.319C291.633 109.313 291.353 129.494 296.158 139.204C296.964 132.484 298.017 124.499 299.036 116.806L292.361 104.319Z" fill="#6ECD55"/>
<path d="M299.226 191.593L294.455 192.152L290.233 199.689C290.002 200.097 289.858 200.549 289.812 201.016C289.766 201.483 289.818 201.954 289.965 202.4L291.488 207.036C291.746 207.829 292.291 208.498 293.015 208.912C293.74 209.326 294.592 209.456 295.407 209.276L297.535 208.828C298.317 208.669 299.017 208.237 299.509 207.609C300.002 206.981 300.255 206.198 300.223 205.401L300.088 201.28C300.088 201.28 303.874 192.533 299.226 191.593Z" fill="#E4897B"/>
<path d="M301.847 86.2323C303.37 90.7119 304.781 95.1355 306.181 99.6151C307.581 104.095 308.98 108.574 310.302 113.054C311.623 117.534 312.9 122.114 314.076 126.784C314.658 129.124 315.196 131.487 315.711 133.962C315.946 135.206 316.181 136.471 316.372 137.815C316.461 138.509 316.562 139.148 316.618 139.92L316.719 141.04L316.775 142.306C316.797 142.731 316.797 143.157 316.775 143.582C316.775 144.03 316.775 144.456 316.719 144.803L316.618 145.923L316.495 146.931C316.338 148.286 316.137 149.518 315.935 150.75C315.532 153.191 315.061 155.543 314.58 157.872C313.617 162.531 312.542 167.089 311.455 171.625C310.369 176.16 309.216 180.685 308.096 185.198L304.736 198.737L288.52 194.336C291.028 185.59 293.313 176.687 295.43 167.839C296.46 163.36 297.423 158.97 298.285 154.591C298.711 152.351 299.114 150.223 299.405 148.118C299.573 147.065 299.708 146.024 299.797 145.083C299.884 144.34 299.914 143.591 299.887 142.843V142.373L299.808 141.768C299.808 141.387 299.674 140.883 299.607 140.447C299.45 139.506 299.249 138.509 299.025 137.49C298.565 135.452 298.017 133.346 297.423 131.23C296.303 126.985 294.881 122.685 293.436 118.407C290.58 109.851 287.366 101.239 284.051 92.8621L301.847 86.2323Z" fill="#6ECD55"/>
<path opacity="0.7" d="M301.847 86.2323C303.37 90.7119 304.781 95.1355 306.181 99.6151C307.581 104.095 308.98 108.574 310.302 113.054C311.623 117.534 312.9 122.114 314.076 126.784C314.658 129.124 315.196 131.487 315.711 133.962C315.946 135.206 316.181 136.471 316.372 137.815C316.461 138.509 316.562 139.148 316.618 139.92L316.719 141.04L316.775 142.306C316.797 142.731 316.797 143.157 316.775 143.582C316.775 144.03 316.775 144.456 316.719 144.803L316.618 145.923L316.495 146.931C316.338 148.286 316.137 149.518 315.935 150.75C315.532 153.191 315.061 155.543 314.58 157.872C313.617 162.531 312.542 167.089 311.455 171.625C310.369 176.16 309.216 180.685 308.096 185.198L304.736 198.737L288.52 194.336C291.028 185.59 293.313 176.687 295.43 167.839C296.46 163.36 297.423 158.97 298.285 154.591C298.711 152.351 299.114 150.223 299.405 148.118C299.573 147.065 299.708 146.024 299.797 145.083C299.884 144.34 299.914 143.591 299.887 142.843V142.373L299.808 141.768C299.808 141.387 299.674 140.883 299.607 140.447C299.45 139.506 299.249 138.509 299.025 137.49C298.565 135.452 298.017 133.346 297.423 131.23C296.303 126.985 294.881 122.685 293.436 118.407C290.58 109.851 287.366 101.239 284.051 92.8621L301.847 86.2323Z" fill="white"/>
<path d="M259.682 76.0748C259.929 76.073 260.17 76.1412 260.379 76.2714C260.588 76.4016 260.756 76.5885 260.862 76.8103C260.969 77.0321 261.011 77.2797 260.982 77.5242C260.954 77.7687 260.856 78.0001 260.702 78.1914C258.036 81.2823 256.356 85.5268 253.198 99.1447C249.391 115.574 241.282 198.234 239.759 238.74C239.752 239.077 239.671 239.408 239.524 239.71C239.376 240.013 239.164 240.28 238.904 240.492C238.643 240.705 238.339 240.859 238.013 240.943C237.687 241.028 237.347 241.04 237.016 240.98C229.109 239.524 223.689 243.354 222.827 238.281C221.875 232.682 225.425 179.195 232.066 154.042C231.024 131.734 234.787 86.9826 242.302 81.036C246.378 77.7323 255.046 76.1532 259.682 76.0748Z" fill="#6ECD55"/>
<path opacity="0.7" d="M259.682 76.0748C259.929 76.073 260.17 76.1412 260.379 76.2714C260.588 76.4016 260.756 76.5885 260.862 76.8103C260.969 77.0321 261.011 77.2797 260.982 77.5242C260.954 77.7687 260.856 78.0001 260.702 78.1914C258.036 81.2823 256.356 85.5268 253.198 99.1447C249.391 115.574 241.282 198.234 239.759 238.74C239.752 239.077 239.671 239.408 239.524 239.71C239.376 240.013 239.164 240.28 238.904 240.492C238.643 240.705 238.339 240.859 238.013 240.943C237.687 241.028 237.347 241.04 237.016 240.98C229.109 239.524 223.689 243.354 222.827 238.281C221.875 232.682 225.425 179.195 232.066 154.042C231.024 131.734 234.787 86.9826 242.302 81.036C246.378 77.7323 255.046 76.1532 259.682 76.0748Z" fill="white"/>
<path d="M264.039 87.173C264.039 87.173 254.363 114.353 250.958 137.132C250.69 143.325 253.635 155.319 256.02 160.549C261.004 149.697 264.117 143.302 264.61 137.132C265.405 127.848 266.715 87.3522 266.715 87.3522L264.039 87.173Z" fill="#263238"/>
<path d="M284.287 119.505C284.189 119.501 284.094 119.466 284.018 119.404C283.942 119.342 283.889 119.257 283.866 119.161C283.843 119.066 283.852 118.966 283.892 118.876C283.931 118.786 283.999 118.712 284.085 118.665L285.922 117.702C287.636 116.82 289.041 115.436 289.95 113.735C290.858 112.035 291.226 110.098 291.006 108.182L289.013 90.1296C288.866 88.7839 288.27 87.5268 287.321 86.5612C286.372 85.5955 285.126 84.9775 283.783 84.8067C282.44 84.636 281.079 84.9224 279.919 85.6199C278.759 86.3174 277.867 87.3852 277.388 88.6513L270.937 105.618C270.243 107.416 270.112 109.383 270.562 111.257C271.012 113.132 272.022 114.825 273.457 116.111L275.003 117.511C275.085 117.595 275.131 117.707 275.131 117.825C275.131 117.942 275.085 118.055 275.003 118.138C274.919 118.22 274.806 118.266 274.689 118.266C274.572 118.266 274.459 118.22 274.376 118.138L272.83 116.75C271.266 115.338 270.169 113.484 269.683 111.434C269.197 109.384 269.345 107.234 270.109 105.271L276.615 88.3377C277.171 86.891 278.196 85.6726 279.526 84.8777C280.857 84.0827 282.415 83.7573 283.952 83.9535C285.49 84.1497 286.917 84.8561 288.005 85.9597C289.093 87.0633 289.779 88.5001 289.953 90.04L291.947 108.082C292.183 110.181 291.773 112.302 290.773 114.163C289.772 116.024 288.229 117.535 286.347 118.497L284.511 119.449C284.444 119.491 284.365 119.511 284.287 119.505Z" fill="#263238"/>
<path d="M289.841 94.0716C289.735 94.0725 289.631 94.0342 289.551 93.9641C289.47 93.8939 289.418 93.7967 289.405 93.6908C289.144 92.2389 288.407 90.9153 287.31 89.9295C286.212 88.9437 284.817 88.352 283.346 88.2481C280.86 87.9346 277.478 88.7185 276.123 91.9886C276.103 92.0465 276.072 92.0999 276.031 92.1454C275.99 92.1909 275.941 92.2275 275.885 92.253C275.829 92.2786 275.769 92.2925 275.708 92.2939C275.647 92.2953 275.586 92.2841 275.53 92.2612C275.473 92.2382 275.422 92.2039 275.379 92.1603C275.336 92.1167 275.302 92.0649 275.28 92.0078C275.258 91.9508 275.248 91.8899 275.25 91.8288C275.253 91.7677 275.267 91.7078 275.294 91.6526C276.051 90.1881 277.24 88.9918 278.7 88.2257C280.16 87.4597 281.82 87.1609 283.456 87.3699C285.091 87.5789 286.623 88.2856 287.843 89.3942C289.063 90.5028 289.914 91.9598 290.278 93.5676C290.294 93.6819 290.264 93.7979 290.195 93.8903C290.126 93.9826 290.023 94.0438 289.909 94.0604L289.841 94.0716Z" fill="#263238"/>
<path d="M283.816 84.81C283.758 84.8072 283.701 84.7927 283.648 84.7674C283.595 84.742 283.548 84.7064 283.51 84.6625C283.471 84.6186 283.442 84.5675 283.423 84.512C283.405 84.4566 283.397 84.398 283.402 84.3397C283.536 82.1559 283.223 78.1802 281.162 77.1499C281.057 77.095 280.977 77.0004 280.942 76.887C280.906 76.7736 280.917 76.6506 280.972 76.5452C281.027 76.4397 281.121 76.3604 281.235 76.3247C281.348 76.289 281.471 76.2998 281.576 76.3548C284.555 77.8891 284.287 83.7349 284.242 84.3957C284.236 84.5057 284.189 84.6095 284.11 84.6863C284.031 84.7632 283.926 84.8074 283.816 84.81Z" fill="#263238"/>
<path d="M275.697 117.959C275.585 118.799 275.059 119.415 274.51 119.337C273.961 119.258 273.603 118.541 273.715 117.713C273.827 116.884 274.342 116.257 274.891 116.335C275.439 116.414 275.798 117.13 275.697 117.959Z" fill="#263238"/>
<path d="M249.659 99.8055C248.954 101.586 247.42 102.661 246.3 102.202C245.18 101.743 244.743 99.9623 245.449 98.1368C246.154 96.3114 247.688 95.2811 248.808 95.7403C249.928 96.1994 250.354 98.0248 249.659 99.8055Z" fill="#263238"/>
<path d="M245.975 98.652H245.885C245.77 98.6277 245.668 98.5588 245.603 98.4603C245.538 98.3617 245.515 98.2414 245.538 98.1256C247.016 90.7679 253.131 79.0874 258.518 75.7277C258.567 75.6855 258.624 75.6543 258.686 75.6364C258.748 75.6185 258.813 75.6142 258.877 75.6238C258.941 75.6334 259.002 75.6567 259.056 75.6921C259.11 75.7275 259.156 75.7741 259.19 75.8288C259.224 75.8835 259.246 75.945 259.255 76.009C259.263 76.0731 259.257 76.1381 259.238 76.1998C259.219 76.2615 259.187 76.3182 259.144 76.3662C259.1 76.4143 259.047 76.4524 258.988 76.478C253.781 79.7593 247.856 91.0367 246.412 98.2824C246.393 98.3853 246.34 98.4786 246.26 98.546C246.18 98.6135 246.079 98.651 245.975 98.652Z" fill="#263238"/>
<path d="M250.936 100.175C250.421 101.709 249.099 102.661 247.979 102.292C246.86 101.922 246.356 100.365 246.86 98.82C247.363 97.2745 248.696 96.3338 249.816 96.7034C250.936 97.073 251.451 98.6296 250.936 100.175Z" fill="white"/>
<path d="M251.014 100.332C250.331 102.224 249.066 103.512 248.203 103.199C247.341 102.885 247.196 101.093 247.89 99.1896C248.584 97.2857 249.839 96.009 250.701 96.3226C251.563 96.6362 251.709 98.428 251.014 100.332Z" fill="#263238"/>
<path d="M285.283 119.191C285.183 120.02 284.645 120.636 284.096 120.568C283.547 120.501 283.189 119.762 283.301 118.933C283.413 118.105 283.939 117.489 284.488 117.556C285.037 117.623 285.395 118.351 285.283 119.191Z" fill="#263238"/>
<path d="M348.782 70.6657C352.522 80.8904 342.577 86.0307 336.06 101.093C329.542 116.156 345.265 134.119 369.399 134.511C393.533 134.903 394.294 111.788 390.554 95.2027C386.813 78.617 394.63 75.918 392.973 63.252C390.845 46.6102 366.868 34.0002 357.349 49.2756C348.882 48.4805 345.512 61.7289 348.782 70.6657Z" fill="#263238"/>
<path d="M420.265 208.301V207.002C420.243 206.379 420.086 205.768 419.806 205.211L415.752 197.214L411.003 196.319C407.644 199.936 411.003 207.148 411.003 207.148V208.301C411.004 209.246 411.313 210.165 411.882 210.919C412.452 211.673 413.252 212.22 414.161 212.479L414.8 212.669C415.457 212.843 416.146 212.86 416.811 212.719C417.477 212.579 418.1 212.284 418.631 211.86C419.162 211.435 419.587 210.893 419.87 210.275C420.154 209.657 420.289 208.981 420.265 208.301Z" fill="#FFC3BD"/>
<path d="M400.14 105.439L401.887 117.69L403.724 129.908C404.329 133.996 404.967 138.061 405.617 142.138L407.554 154.277L407.789 155.476C407.868 155.868 408.002 156.372 408.103 156.808L408.439 158.186L408.831 159.608C409.335 161.49 409.951 163.438 410.488 165.364C411.608 169.228 412.896 173.137 414.161 177.023C416.737 184.784 419.425 192.578 422.292 200.238L406.457 205.838L398.528 182.163C397.217 178.21 395.885 174.256 394.619 170.225C393.992 168.198 393.365 166.193 392.771 164.099L392.312 162.542L391.875 160.918C391.73 160.359 391.573 159.866 391.439 159.25L391.024 157.413L388.684 145.094C387.937 141.033 387.157 136.971 386.343 132.91L383.947 120.725L381.449 108.63L400.14 105.439Z" fill="#6ECD55"/>
<path opacity="0.6" d="M400.14 105.439L401.887 117.69L403.724 129.908C404.329 133.996 404.967 138.061 405.617 142.138L407.554 154.277L407.789 155.476C407.868 155.868 408.002 156.372 408.103 156.808L408.439 158.186L408.831 159.608C409.335 161.49 409.951 163.438 410.488 165.364C411.608 169.228 412.896 173.137 414.161 177.023C416.737 184.784 419.425 192.578 422.292 200.238L406.457 205.838L398.528 182.163C397.217 178.21 395.885 174.256 394.619 170.225C393.992 168.198 393.365 166.193 392.771 164.099L392.312 162.542L391.875 160.918C391.73 160.359 391.573 159.866 391.439 159.25L391.024 157.413L388.684 145.094C387.937 141.033 387.157 136.971 386.343 132.91L383.947 120.725L381.449 108.63L400.14 105.439Z" fill="white"/>
<path d="M397.621 104.498C398.147 110.467 397.677 125.317 391.685 162.128H350.249C350.91 146.136 350.954 135.945 344.089 105.427C343.933 104.741 343.92 104.03 344.049 103.338C344.179 102.647 344.448 101.989 344.842 101.405C345.235 100.822 345.744 100.325 346.337 99.9462C346.93 99.567 347.594 99.3133 348.289 99.2008C352.335 98.5362 356.413 98.0914 360.507 97.8681C366.778 97.4196 373.073 97.4196 379.344 97.8681C384.495 98.3384 390.084 99.268 393.466 99.8839C394.567 100.093 395.57 100.657 396.321 101.491C397.071 102.324 397.528 103.38 397.621 104.498Z" fill="#263238"/>
<path d="M362.332 76.6572C363.52 82.7158 364.707 93.8252 360.462 97.8681C360.462 97.8681 365.771 104.319 373.901 104.319C382.031 104.319 379.31 97.8681 379.31 97.8681C372.591 96.2554 372.725 91.2383 373.901 86.5347L362.332 76.6572Z" fill="#FFC3BD"/>
<path opacity="0.2" d="M367.047 80.6888L373.89 86.5235C373.599 87.6246 373.405 88.7486 373.307 89.8832C370.721 89.5136 366.666 87.3074 366.107 84.4965C365.849 83.1638 366.823 81.316 367.047 80.6888Z" fill="black"/>
<path d="M355.199 64.7638C356.778 74.7757 357.237 79.0426 362.814 83.7237C371.213 90.7679 383.163 86.6355 384.607 76.3548C385.906 67.1044 383.095 52.2769 372.86 49.2196C370.605 48.5337 368.212 48.4355 365.908 48.9344C363.604 49.4332 361.466 50.5124 359.697 52.0697C357.928 53.627 356.586 55.6106 355.798 57.8323C355.011 60.0539 354.805 62.44 355.199 64.7638Z" fill="#FFC3BD"/>
<path d="M356.867 71.976C362.601 66.2981 364.572 58.4028 364.035 55.1775C369.556 56.7117 373.61 54.5391 373.364 53.5984C377.261 57.4061 384.327 60.4186 383.532 56.3198C382.737 52.2209 377.507 44.6616 366.599 47.3606C355.691 50.0595 351.492 61.2585 351.649 65.8053C351.805 70.3521 356.867 71.976 356.867 71.976Z" fill="#263238"/>
<path d="M369.567 65.8949C369.645 66.7236 370.138 67.3396 370.687 67.2948C371.236 67.25 371.594 66.5333 371.516 65.7157C371.437 64.8982 370.933 64.2711 370.396 64.3159C369.858 64.3607 369.567 65.0774 369.567 65.8949Z" fill="#263238"/>
<path d="M378.873 65.0102C378.952 65.8277 379.456 66.4549 379.993 66.3989C380.531 66.3429 380.9 65.6486 380.822 64.831C380.744 64.0135 380.24 63.3864 379.702 63.4312C379.165 63.4759 378.795 64.1927 378.873 65.0102Z" fill="#263238"/>
<path d="M379.478 63.4983L381.393 62.748C381.393 62.748 380.52 64.3831 379.478 63.4983Z" fill="#263238"/>
<path d="M376.163 66.7572C377.069 68.5599 378.218 70.2293 379.579 71.7184C379.189 72.0557 378.731 72.3045 378.236 72.4475C377.741 72.5906 377.221 72.6246 376.712 72.5471L376.163 66.7572Z" fill="#ED847E"/>
<path d="M372.546 76.1532C372.952 76.181 373.36 76.181 373.767 76.1532C373.83 76.1448 373.888 76.1121 373.927 76.0619C373.967 76.0117 373.986 75.9481 373.979 75.8844C373.978 75.8529 373.97 75.822 373.956 75.7937C373.942 75.7655 373.923 75.7405 373.898 75.7204C373.874 75.7003 373.846 75.6856 373.815 75.6772C373.785 75.6688 373.753 75.6669 373.722 75.6716C372.703 75.7897 371.67 75.6667 370.707 75.3127C369.745 74.9587 368.878 74.3835 368.178 73.6334C368.135 73.5942 368.079 73.5716 368.021 73.5697C367.963 73.5678 367.905 73.5867 367.86 73.623C367.814 73.6593 367.782 73.7107 367.771 73.768C367.76 73.8253 367.769 73.8848 367.798 73.9358C368.403 74.6007 369.135 75.139 369.95 75.5196C370.765 75.9002 371.647 76.1156 372.546 76.1532Z" fill="#263238"/>
<path d="M352.981 72.9055C353.729 74.7183 355.162 76.1629 356.968 76.9259C359.365 77.9115 360.877 75.806 360.462 73.4206C360.093 71.1808 358.39 68.0787 355.859 68.1235C355.308 68.1504 354.773 68.3126 354.299 68.5957C353.826 68.8788 353.429 69.2741 353.145 69.7467C352.86 70.2194 352.696 70.7548 352.668 71.3057C352.64 71.8566 352.747 72.406 352.981 72.9055Z" fill="#FFC3BD"/>
<path d="M366.375 61.5945C366.472 61.6285 366.576 61.6317 366.675 61.6036C366.773 61.5755 366.86 61.5175 366.924 61.4377C368.335 59.7019 371.213 59.8698 371.236 59.8698C371.363 59.8761 371.487 59.833 371.583 59.7495C371.679 59.666 371.739 59.5486 371.751 59.4219C371.757 59.3583 371.75 59.2941 371.731 59.2333C371.711 59.1725 371.679 59.1162 371.638 59.068C371.596 59.0198 371.544 58.9806 371.487 58.9529C371.429 58.9252 371.367 58.9095 371.303 58.9067C371.168 58.9067 367.887 58.7051 366.174 60.833C366.094 60.9332 366.056 61.0606 366.069 61.1882C366.081 61.3157 366.143 61.4333 366.241 61.5161L366.375 61.5945Z" fill="#263238"/>
<path d="M382.244 60.5754C382.35 60.5819 382.456 60.553 382.544 60.4932C382.632 60.4335 382.698 60.3463 382.731 60.2453C382.764 60.1442 382.763 60.035 382.728 59.9347C382.692 59.8344 382.625 59.7486 382.535 59.6907C381.909 59.2484 381.186 58.9618 380.426 58.8546C379.667 58.7475 378.892 58.823 378.168 59.0747C378.05 59.1265 377.957 59.2222 377.909 59.3415C377.861 59.4608 377.861 59.5941 377.91 59.7131C377.935 59.7724 377.971 59.8262 378.016 59.8713C378.062 59.9165 378.116 59.9521 378.175 59.9761C378.235 60.0001 378.298 60.012 378.363 60.011C378.427 60.0101 378.49 59.9964 378.549 59.9707C379.124 59.779 379.737 59.7267 380.337 59.8182C380.936 59.9097 381.506 60.1424 381.998 60.497C382.072 60.5446 382.157 60.5717 382.244 60.5754Z" fill="#263238"/>
<path d="M417.432 393.97L427.746 393.477L424.688 370.183L414.385 370.687L417.432 393.97Z" fill="#FFC3BD"/>
<g opacity="0.2">
<path opacity="0.2" d="M424.688 370.194L426.268 382.2L415.953 382.692L414.374 370.687L424.688 370.194Z" fill="black"/>
</g>
<path d="M391.685 162.128C391.685 162.128 404.665 240.801 409.951 271.475C415.461 303.37 427.869 378.437 427.869 378.437L414.229 380.676C414.229 380.676 395.84 305.531 388.471 274.286C380.475 240.185 361.101 194.459 361.302 162.218L391.685 162.128Z" fill="#6ECD55"/>
<path opacity="0.2" d="M370.844 186.273C368.895 183.44 365.143 179.464 362.265 176.194C364.875 196.24 372.344 219.5 379.165 241.406C380.979 224.719 379.948 199.409 370.844 186.273Z" fill="black"/>
<path d="M353.799 392.391H364.012L364.695 368.738H354.471L353.799 392.391Z" fill="#FFC3BD"/>
<path d="M364.494 390.845H353.015C352.816 390.843 352.624 390.914 352.473 391.044C352.323 391.174 352.225 391.354 352.197 391.551L350.887 400.622C350.864 400.852 350.889 401.085 350.961 401.305C351.033 401.525 351.15 401.728 351.305 401.9C351.46 402.072 351.65 402.209 351.861 402.304C352.073 402.398 352.302 402.447 352.533 402.447C356.531 402.369 358.458 402.134 363.508 402.134C366.61 402.134 373.028 402.458 377.317 402.458C381.606 402.458 381.796 398.225 380.049 397.833C372.042 396.12 368.85 393.746 366.196 391.472C365.719 391.072 365.117 390.851 364.494 390.845Z" fill="#263238"/>
<g opacity="0.2">
<path opacity="0.2" d="M364.684 368.75L364.337 380.945H354.124L354.471 368.75H364.684Z" fill="black"/>
</g>
<path d="M380.027 162.128C380.027 162.128 375.883 241.809 373.084 272.83C370.161 305.106 366.644 378.246 366.644 378.246H352.825C352.825 378.246 350.361 305.386 351.324 273.558C352.365 238.841 344.022 194.37 349.655 162.128H380.027Z" fill="#6ECD55"/>
<path d="M351.626 378.739L367.831 379.041L368.078 369.164L351.559 370.194L351.626 378.739Z" fill="#263238"/>
<path d="M368.324 392.671C369.196 392.751 370.07 392.529 370.799 392.043C370.964 391.897 371.09 391.712 371.166 391.504C371.242 391.297 371.266 391.075 371.236 390.856C371.228 390.725 371.186 390.597 371.116 390.485C371.046 390.374 370.948 390.282 370.832 390.218C369.578 389.524 365.502 391.607 365.043 391.853C365 391.877 364.965 391.914 364.943 391.957C364.921 392.001 364.913 392.051 364.919 392.099C364.926 392.149 364.948 392.195 364.982 392.231C365.016 392.268 365.061 392.292 365.11 392.301C366.167 392.527 367.243 392.65 368.324 392.671ZM370.149 390.554C370.303 390.55 370.457 390.581 370.597 390.644C370.644 390.668 370.684 390.705 370.712 390.75C370.739 390.796 370.754 390.848 370.754 390.901C370.779 391.043 370.766 391.189 370.717 391.325C370.668 391.46 370.584 391.581 370.474 391.674C369.858 392.234 368.178 392.335 365.916 391.954C367.237 391.249 368.669 390.775 370.149 390.554Z" fill="#6ECD55"/>
<path d="M365.155 392.312H365.255C366.476 391.763 368.884 389.557 368.694 388.404C368.694 388.124 368.458 387.788 367.786 387.721C367.546 387.693 367.302 387.715 367.071 387.787C366.84 387.858 366.626 387.977 366.442 388.135C365.166 389.199 364.931 391.954 364.919 392.066C364.915 392.109 364.922 392.152 364.94 392.191C364.958 392.231 364.985 392.265 365.02 392.29C365.063 392.308 365.109 392.316 365.155 392.312ZM367.596 388.169H367.742C368.178 388.169 368.212 388.381 368.212 388.449C368.335 389.143 366.7 390.868 365.457 391.618C365.553 390.459 366.007 389.36 366.756 388.471C366.99 388.271 367.289 388.164 367.596 388.169Z" fill="#6ECD55"/>
<path d="M427.623 390.845H416.144C416.052 390.839 415.959 390.854 415.873 390.888C415.788 390.922 415.71 390.975 415.647 391.042C415.584 391.11 415.537 391.19 415.508 391.278C415.48 391.366 415.471 391.459 415.483 391.551L416.065 400.622C416.133 401.114 416.373 401.567 416.741 401.901C417.11 402.235 417.584 402.428 418.081 402.447C422.068 402.369 423.949 402.134 428.989 402.134C432.102 402.134 438.586 402.458 442.876 402.458C447.165 402.458 446.504 398.225 444.645 397.833C436.28 396.12 432.629 393.746 429.459 391.472C428.926 391.08 428.285 390.861 427.623 390.845Z" fill="#263238"/>
<path d="M431.453 392.671C432.329 392.751 433.206 392.529 433.939 392.043C434.102 391.895 434.227 391.71 434.303 391.504C434.379 391.297 434.404 391.075 434.376 390.856C434.365 390.724 434.322 390.596 434.25 390.484C434.177 390.373 434.078 390.281 433.961 390.218C432.707 389.524 428.642 391.607 428.183 391.853C428.138 391.876 428.101 391.911 428.077 391.955C428.053 391.999 428.043 392.05 428.048 392.099C428.057 392.148 428.08 392.192 428.114 392.228C428.148 392.264 428.191 392.289 428.239 392.301C429.296 392.527 430.372 392.65 431.453 392.671ZM433.278 390.554C433.432 390.547 433.586 390.578 433.726 390.644C433.775 390.668 433.816 390.704 433.845 390.749C433.875 390.795 433.892 390.847 433.894 390.901C433.913 391.043 433.898 391.187 433.849 391.322C433.8 391.457 433.72 391.577 433.614 391.674C432.987 392.234 431.307 392.335 429.045 391.954C430.366 391.25 431.798 390.777 433.278 390.554Z" fill="#6ECD55"/>
<path d="M428.295 392.312H428.395C429.605 391.763 432.013 389.557 431.822 388.404C431.822 388.124 431.587 387.788 430.915 387.721C430.676 387.693 430.435 387.716 430.205 387.787C429.976 387.858 429.763 387.977 429.582 388.135C428.295 389.199 428.059 391.954 428.048 392.066C428.047 392.108 428.055 392.151 428.073 392.189C428.09 392.228 428.116 392.263 428.149 392.29C428.195 392.309 428.245 392.316 428.295 392.312ZM430.725 388.169H430.87C431.307 388.169 431.341 388.381 431.352 388.449C431.464 389.143 429.829 390.868 428.586 391.618C428.686 390.461 429.139 389.362 429.885 388.471C430.12 388.273 430.418 388.166 430.725 388.169Z" fill="#6ECD55"/>
<path d="M413.086 381.315L429.09 378.739L427.287 370.183L411.429 373.923L413.086 381.315Z" fill="#263238"/>
<path d="M370.205 64.3831L372.12 63.6327C372.12 63.6327 371.258 65.2678 370.205 64.3831Z" fill="#263238"/>
<path d="M349.577 159.698L348.524 163.416C348.378 163.696 348.714 163.998 349.196 163.998H391.887C392.267 163.998 392.57 163.808 392.592 163.573L392.973 159.866C392.973 159.608 392.671 159.384 392.267 159.384H350.26C350.129 159.373 349.997 159.396 349.877 159.451C349.757 159.506 349.654 159.591 349.577 159.698Z" fill="#263238"/>
<path d="M355.367 164.39H354.247C354.023 164.39 353.855 164.278 353.866 164.144L354.392 159.317C354.392 159.171 354.605 159.059 354.829 159.059H355.949C356.173 159.059 356.341 159.171 356.33 159.317L355.792 164.144C355.781 164.278 355.591 164.39 355.367 164.39Z" fill="#6ECD55"/>
<path d="M388.728 164.39H387.609C387.385 164.39 387.205 164.278 387.228 164.144L387.754 159.317C387.754 159.171 387.967 159.059 388.191 159.059H389.311C389.535 159.059 389.703 159.171 389.692 159.317L389.165 164.144C389.143 164.278 388.952 164.39 388.728 164.39Z" fill="#6ECD55"/>
<path d="M372.109 164.39H370.989C370.765 164.39 370.597 164.278 370.609 164.144L371.135 159.317C371.135 159.171 371.348 159.059 371.572 159.059H372.692C372.916 159.059 373.084 159.171 373.061 159.317L372.535 164.144C372.535 164.278 372.333 164.39 372.109 164.39Z" fill="#6ECD55"/>
<path d="M358.67 97.5321C352.164 98.1256 342.219 96.8937 342.521 106.872C342.824 116.85 340.886 143.28 341.402 155.655C341.917 168.03 338.691 248.159 343.91 271.385C344.828 275.473 378.537 274.947 382.614 274.555V270.87C382.614 270.87 407.106 267.578 413.165 268.63C412.638 254.676 399.076 184.19 398.55 164.39C398.024 144.59 400.252 110.568 400.118 105.17C399.984 99.7719 389.255 97.3977 382.681 97.5321C384.137 102.404 380.923 111.553 375.782 121.756C363.139 109.437 359.41 103.322 358.67 97.5321Z" fill="#6ECD55"/>
<path opacity="0.7" d="M358.67 97.5321C352.164 98.1256 342.219 96.8937 342.521 106.872C342.824 116.85 340.886 143.28 341.402 155.655C341.917 168.03 338.691 248.159 343.91 271.385C344.828 275.473 378.537 274.947 382.614 274.555V270.87C382.614 270.87 407.106 267.578 413.165 268.63C412.638 254.676 399.076 184.19 398.55 164.39C398.024 144.59 400.252 110.568 400.118 105.17C399.984 99.7719 389.255 97.3977 382.681 97.5321C384.137 102.404 380.923 111.553 375.782 121.756C363.139 109.437 359.41 103.322 358.67 97.5321Z" fill="white"/>
<path opacity="0.2" d="M346.284 121.196L342.118 124.141C341.793 132.764 341.357 142.429 341.312 149.899C345.187 141.331 347.371 128.968 346.284 121.196Z" fill="#6ECD55"/>
<path d="M359.555 112.248C359.344 112.562 359.116 112.865 358.872 113.155L358.637 113.423L358.514 113.558L358.29 113.793L357.842 114.275L356.946 115.271C356.341 115.932 355.759 116.615 355.176 117.31C354.012 118.698 352.892 120.113 351.817 121.554C349.62 124.432 347.575 127.422 345.691 130.513C341.987 136.22 339.311 142.53 337.784 149.159C337.502 150.638 337.326 152.135 337.258 153.639C337.328 154.387 337.545 155.114 337.896 155.778C339.318 158.788 341.028 161.654 343.003 164.334C345.075 167.291 347.427 170.169 349.834 173.013C351.044 174.447 352.298 175.836 353.564 177.213C354.829 178.59 356.151 180.002 357.382 181.222L345.31 192.892C343.843 191.29 342.544 189.834 341.189 188.3L337.236 183.675C334.615 180.573 332.095 177.347 329.609 173.965C326.91 170.393 324.576 166.559 322.643 162.52C322.078 161.269 321.595 159.982 321.199 158.667C320.965 157.885 320.782 157.088 320.65 156.282C320.564 155.819 320.504 155.352 320.471 154.882C320.426 154.391 320.407 153.897 320.415 153.404C320.441 150.999 320.647 148.6 321.031 146.225C321.806 141.74 323.06 137.351 324.771 133.134C326.381 129.14 328.252 125.257 330.371 121.509C332.431 117.813 334.693 114.286 337.034 110.837C338.221 109.112 339.431 107.421 340.696 105.752L342.611 103.255L343.608 102L344.112 101.373L344.369 101.071L344.481 100.925L344.324 101.105C344.123 101.362 343.933 101.62 343.753 101.888L359.555 112.248Z" fill="#6ECD55"/>
<path opacity="0.7" d="M359.555 112.248C359.344 112.562 359.116 112.865 358.872 113.155L358.637 113.423L358.514 113.558L358.29 113.793L357.842 114.275L356.946 115.271C356.341 115.932 355.759 116.615 355.176 117.31C354.012 118.698 352.892 120.113 351.817 121.554C349.62 124.432 347.575 127.422 345.691 130.513C341.987 136.22 339.311 142.53 337.784 149.159C337.502 150.638 337.326 152.135 337.258 153.639C337.328 154.387 337.545 155.114 337.896 155.778C339.318 158.788 341.028 161.654 343.003 164.334C345.075 167.291 347.427 170.169 349.834 173.013C351.044 174.447 352.298 175.836 353.564 177.213C354.829 178.59 356.151 180.002 357.382 181.222L345.31 192.892C343.843 191.29 342.544 189.834 341.189 188.3L337.236 183.675C334.615 180.573 332.095 177.347 329.609 173.965C326.91 170.393 324.576 166.559 322.643 162.52C322.078 161.269 321.595 159.982 321.199 158.667C320.965 157.885 320.782 157.088 320.65 156.282C320.564 155.819 320.504 155.352 320.471 154.882C320.426 154.391 320.407 153.897 320.415 153.404C320.441 150.999 320.647 148.6 321.031 146.225C321.806 141.74 323.06 137.351 324.771 133.134C326.381 129.14 328.252 125.257 330.371 121.509C332.431 117.813 334.693 114.286 337.034 110.837C338.221 109.112 339.431 107.421 340.696 105.752L342.611 103.255L343.608 102L344.112 101.373L344.369 101.071L344.481 100.925L344.324 101.105C344.123 101.362 343.933 101.62 343.753 101.888L359.555 112.248Z" fill="white"/>
<path opacity="0.3" d="M375.794 121.756C376.97 145.654 383.353 228.997 382.625 270.87L384.574 270.613C384.574 270.613 381.55 206.218 380.184 178.042C378.817 149.865 375.794 121.756 375.794 121.756Z" fill="#6ECD55"/>
<path opacity="0.3" d="M356.442 181.424L344.481 194.37C344.481 198.715 341.446 207.406 349.487 210.564C357.528 213.722 357.741 190.809 356.442 181.424Z" fill="#6ECD55"/>
<path opacity="0.3" d="M395.437 181.021L400.7 194.213C400.857 198.693 402.391 207.652 399.278 211.068C396.165 214.483 395.258 190.73 395.437 181.021Z" fill="#6ECD55"/>
<path d="M382.367 130.076L395.504 129.987C395.635 129.993 395.765 129.97 395.887 129.92C396.008 129.871 396.117 129.795 396.206 129.7C396.296 129.604 396.363 129.49 396.404 129.365C396.446 129.241 396.459 129.109 396.445 128.979L395.717 122.752C395.673 122.483 395.538 122.236 395.334 122.055C395.13 121.873 394.87 121.768 394.597 121.756L381.449 121.834C381.319 121.83 381.189 121.854 381.069 121.904C380.948 121.955 380.84 122.03 380.751 122.125C380.662 122.221 380.594 122.334 380.553 122.457C380.511 122.581 380.496 122.712 380.508 122.842L381.236 129.08C381.282 129.35 381.42 129.597 381.626 129.778C381.831 129.96 382.093 130.065 382.367 130.076Z" fill="white" stroke="#6ECD55" stroke-width="0.5" stroke-miterlimit="10"/>
</svg>
