<svg width="415" height="428" viewBox="0 0 415 428" fill="none" xmlns="http://www.w3.org/2000/svg">
<path d="M180.285 50.135C180.285 50.135 151.117 72.4691 148.158 83.6271C145.199 94.785 149.294 114.389 148.158 118.264C147.022 122.139 128.792 133.068 128.563 148.788C128.334 164.508 135.397 180.008 192.13 186.833C248.863 193.658 270.501 161.54 270.501 144.226C270.501 126.912 255.926 115.974 253.416 107.775C250.906 99.5761 261.395 84.763 246.353 66.5512C231.311 48.3394 192.13 30.7689 180.285 50.135Z" fill="#263238" stroke="#263238" stroke-linejoin="round"/>
<path d="M306.833 252.48C306.833 252.48 312.101 297.725 313.2 309.799C314.299 321.873 311.441 328.909 302.876 333.306C294.31 337.703 289.702 340.552 280.89 331.547C272.077 322.542 278.251 305.191 277.811 298.376C277.372 291.56 271.225 265.397 271.225 265.397L306.833 252.48Z" fill="#E4897B" stroke="#263238" stroke-linejoin="round"/>
<path d="M307.868 265.168L274.541 276.289L271.252 265.433L306.833 252.471L307.868 265.168Z" fill="#263238" stroke="#263238" stroke-linejoin="round"/>
<path d="M286.624 295.747C286.624 295.747 301.996 291.789 309.242 306.071Z" fill="#E4897B"/>
<path d="M286.624 295.747C286.624 295.747 301.996 291.789 309.242 306.071" stroke="#263238" stroke-linejoin="round"/>
<path d="M255.257 310.89L264.088 259.341L306.906 247.57C306.906 247.57 305.358 212.245 296.087 198.468C286.817 184.69 262.76 176.921 247.535 172.029C232.309 167.137 217.954 164.252 217.954 164.252C217.954 164.252 190.582 160.477 178.444 167.147C178.444 167.147 136.945 185.358 129.662 188.913C122.379 192.467 114.217 196.471 111.12 213.574C108.024 230.677 106.485 246.012 106.485 246.012L134.957 260.23L143.568 310.89L141.736 325.226L109.884 388.83H289.675L257.337 324.246L255.257 310.89Z" fill="#6ECD55" stroke="#263238" stroke-linejoin="round"/>
<path d="M209.096 245.16C210.067 245.16 210.855 244.373 210.855 243.402C210.855 242.43 210.067 241.643 209.096 241.643C208.124 241.643 207.337 242.43 207.337 243.402C207.337 244.373 208.124 245.16 209.096 245.16Z" stroke="#263238" stroke-linejoin="round"/>
<path d="M209.096 272.075C210.067 272.075 210.855 271.288 210.855 270.316C210.855 269.345 210.067 268.557 209.096 268.557C208.124 268.557 207.337 269.345 207.337 270.316C207.337 271.288 208.124 272.075 209.096 272.075Z" stroke="#263238" stroke-linejoin="round"/>
<path d="M209.096 298.981C210.067 298.981 210.855 298.193 210.855 297.222C210.855 296.25 210.067 295.463 209.096 295.463C208.124 295.463 207.337 296.25 207.337 297.222C207.337 298.193 208.124 298.981 209.096 298.981Z" stroke="#263238" stroke-linejoin="round"/>
<path d="M210.855 324.127C210.855 324.475 210.752 324.815 210.558 325.104C210.365 325.393 210.09 325.619 209.769 325.752C209.448 325.885 209.094 325.92 208.753 325.852C208.411 325.784 208.098 325.617 207.852 325.371C207.606 325.125 207.439 324.811 207.371 324.47C207.303 324.129 207.338 323.775 207.471 323.454C207.604 323.132 207.829 322.858 208.119 322.664C208.408 322.471 208.748 322.368 209.096 322.368C209.562 322.368 210.01 322.553 210.34 322.883C210.669 323.213 210.855 323.66 210.855 324.127Z" stroke="#263238" stroke-linejoin="round"/>
<path d="M209.096 352.791C210.067 352.791 210.855 352.004 210.855 351.032C210.855 350.061 210.067 349.274 209.096 349.274C208.124 349.274 207.337 350.061 207.337 351.032C207.337 352.004 208.124 352.791 209.096 352.791Z" stroke="#263238" stroke-linejoin="round"/>
<path d="M210.855 377.947C210.855 378.295 210.752 378.635 210.558 378.924C210.365 379.213 210.09 379.439 209.769 379.572C209.448 379.705 209.094 379.74 208.753 379.672C208.411 379.604 208.098 379.437 207.852 379.191C207.606 378.945 207.439 378.631 207.371 378.29C207.303 377.949 207.338 377.595 207.471 377.274C207.604 376.952 207.829 376.678 208.119 376.485C208.408 376.291 208.748 376.188 209.096 376.188C209.562 376.188 210.01 376.373 210.34 376.703C210.669 377.033 210.855 377.48 210.855 377.947Z" stroke="#263238" stroke-linejoin="round"/>
<path d="M202.702 233.352V368.75" stroke="#263238" stroke-linejoin="round"/>
<path d="M264.592 242.192L262.275 255.787L270.785 241.304" stroke="#263238" stroke-linejoin="round"/>
<path d="M137.797 242.192L140.115 255.787L131.604 241.304" stroke="#263238" stroke-linejoin="round"/>
<path d="M165.096 206.685C165.096 206.685 159.462 215.937 162.284 215.131C165.105 214.325 180.789 203.872 180.789 203.872C180.789 203.872 174.752 213.125 179.58 216.34C184.407 219.556 204.103 228.891 204.103 228.891C204.103 228.891 227.454 219.565 227.857 215.937C228.26 212.31 227.051 210.706 227.051 208.7C227.051 206.694 224.633 204.276 229.47 205.879C234.307 207.482 251.996 217.147 250.787 214.737C249.578 212.328 229.992 173.513 227.317 172.194C224.642 170.875 188.429 169.666 181.989 173.294C175.549 176.921 165.096 206.685 165.096 206.685Z" fill="#263238" stroke="#263238" stroke-linejoin="round"/>
<path d="M101.016 234.415L97.6357 250.813L137.678 270.49L141.58 256.547L101.016 234.415Z" fill="#6ECD55" stroke="#263238" stroke-linejoin="round"/>
<path d="M262.275 255.787L266.021 270.234L313.484 256.016L307.08 238.904L262.275 255.787Z" fill="#6ECD55" stroke="#263238" stroke-linejoin="round"/>
<path d="M181.494 155.851C181.494 155.851 171.234 168.292 170.135 170.279C169.035 172.267 160.891 204.642 157.575 211.045C154.259 217.449 159.343 215.452 162.87 211.485C166.397 207.518 181.192 198.66 180.752 201.326C180.312 203.991 176.337 210.377 178.764 211.705C181.192 213.033 201.062 229.587 202.821 229.587C204.58 229.587 229.754 213.473 230.633 211.265C231.512 209.057 225.778 200.272 228.654 200.666C231.531 201.06 252.473 220.316 254.918 218.768C257.364 217.22 243.88 185.88 237.513 171.754C235.556 167.186 232.416 163.223 228.416 160.274C224.415 157.325 219.7 155.498 214.757 154.981C211.194 154.77 181.494 155.851 181.494 155.851Z" fill="#6ECD55" stroke="#263238" stroke-linejoin="round"/>
<path d="M182.117 151.005C182.117 151.005 178.141 168.887 178.141 173.742C178.141 178.598 199.962 235.285 204.149 228.891C208.335 222.496 227.363 175.758 227.363 172.194C227.363 168.631 225.595 149.677 225.595 149.677C225.595 149.677 210.149 160.056 203.526 160.716C196.903 161.375 182.117 151.005 182.117 151.005Z" fill="#E4897B" stroke="#263238" stroke-linejoin="round"/>
<path d="M180.926 153.644C180.926 153.644 174.788 177.672 181.311 179.505C187.833 181.337 225.1 155.97 225.1 155.97L180.926 153.644Z" fill="#263238" stroke="#263238" stroke-linejoin="round"/>
<path d="M186.698 76.793C185.366 84.274 183.069 91.5505 179.864 98.4401C174.853 108.691 164.821 116.89 164.821 116.89C164.821 116.89 163.227 121.901 165.279 125.135C166.525 127.07 168.252 128.648 170.29 129.715C170.29 129.715 175.53 145.435 177.619 149.31C179.708 153.185 194.484 168.218 198.35 169.812C202.216 171.406 209.746 171.186 212.934 169.363C216.122 167.54 228.123 153.579 229.754 149.475C231.384 145.371 235.25 128.744 235.25 128.744C235.25 128.744 238.218 127.828 240.041 123.248C241.2 120.098 241.891 116.796 242.093 113.446C242.093 113.446 235.937 112.31 226.593 109.781C217.249 107.253 215.435 105.686 215.435 105.686C215.435 105.686 207.914 105.915 198.57 99.0722C189.226 92.229 186.698 76.793 186.698 76.793Z" fill="#E4897B" stroke="#263238" stroke-linejoin="round"/>
<path d="M195.547 80.4391C195.547 80.4391 196.463 92.7421 202.381 97.5241C208.299 102.306 211.954 101.399 211.954 101.399C211.954 101.399 200.329 91.1481 195.547 80.4391Z" fill="#E4897B" stroke="#263238" stroke-linejoin="round"/>
<path d="M182.117 123.275C184.106 124.344 186.322 124.923 188.58 124.963C190.838 125.002 193.072 124.502 195.098 123.504" stroke="#263238" stroke-width="2" stroke-linejoin="round"/>
<path d="M212.183 123.275C214.172 124.344 216.388 124.923 218.646 124.963C220.904 125.002 223.138 124.502 225.164 123.504" stroke="#263238" stroke-width="2" stroke-linejoin="round"/>
<path d="M195.089 113.024C195.089 113.024 188.255 109.598 180.734 115.772" stroke="#263238" stroke-linejoin="round"/>
<path d="M212.403 113.024C212.403 113.024 219.237 109.598 226.758 115.772" stroke="#263238" stroke-linejoin="round"/>
<path d="M198.277 141.725C198.277 141.725 200.329 144.473 203.068 144.693C205.807 144.913 208.565 144.235 209.902 142.412" stroke="#263238" stroke-linejoin="round"/>
<path d="M193.724 149.933C193.724 149.933 199.22 153.598 204.433 153.121C209.646 152.645 214.684 149.017 214.684 149.017" stroke="#263238" stroke-linejoin="round"/>
<path d="M292.771 301.894C292.771 301.894 287.943 294.208 285.745 291.349C283.546 288.491 278.718 287.181 272.562 280.585C266.406 273.99 263.997 280.365 265.976 284.763C267.954 289.16 273.222 292.669 275.64 294.208C278.059 295.747 280.038 299.915 280.038 301.894C280.038 303.872 278.718 308.48 278.718 308.48C276.683 305.9 274.512 303.429 272.214 301.078C266.855 295.307 262.907 290.69 261.807 295.527C260.708 300.364 262.724 302.773 266.388 306.071C270.052 309.369 274.074 313.537 274.514 314.416C274.953 315.296 276.272 322.102 278.251 323.422C280.23 324.741 282.639 325.611 282.639 326.71C282.639 327.81 280.89 331.767 285.058 336.595C289.226 341.423 294.283 340.772 296.967 333.737C299.651 326.701 299.376 313.977 296.747 307.821C294.118 301.664 292.771 301.894 292.771 301.894Z" fill="#E4897B" stroke="#263238" stroke-linejoin="round"/>
<path d="M290.792 299.915C290.792 299.915 285.085 305.631 278.718 308.48C272.352 311.329 268.174 312.658 267.725 315.076C267.276 317.495 267.945 319.656 272.993 319.244C278.04 318.832 293.422 312.832 296.06 309.58C298.698 306.327 297.168 296.406 290.792 299.915Z" fill="#E4897B" stroke="#263238" stroke-linejoin="round"/>
<path d="M298.542 321.15C298.542 321.15 299.578 323.641 294.97 327.81C290.362 331.978 281.348 336.595 277.619 337.474C273.891 338.354 270.813 336.558 273.222 334.176C275.631 331.795 282.667 326.71 282.667 326.71C288.129 325.384 293.447 323.521 298.542 321.15V321.15Z" fill="#E4897B" stroke="#263238" stroke-linejoin="round"/>
<path d="M296.069 309.589C296.069 309.589 299.797 308.05 300.897 315.736C301.996 323.422 286.404 327.379 280.257 327.819C274.11 328.259 269.933 325.84 270.813 323.871C271.692 321.901 272.562 321.672 280.038 318.594C287.513 315.516 296.069 309.589 296.069 309.589Z" fill="#E4897B" stroke="#263238" stroke-linejoin="round"/>
<path d="M103.874 239.05C103.874 239.05 93.7241 242.797 97.0312 252.507C100.338 262.218 101.667 264.875 102.775 270.829C103.883 276.784 99.9077 281.208 96.1517 303.057C92.3958 324.906 105.422 329.541 112.046 333.517C118.669 337.493 128.599 315.195 129.699 308.572C130.798 301.949 122.856 282.308 121.317 271.718C119.778 261.128 117.561 255.155 122.636 247.899C127.711 240.644 119.329 238.189 116.681 236.65C114.034 235.111 103.874 239.05 103.874 239.05Z" fill="#E4897B" stroke="#263238" stroke-linejoin="round"/>
<path d="M110.278 269.977C117.561 269.977 122.416 262.914 122.416 262.914C124.757 262.156 126.851 260.783 128.48 258.938C130.798 256.071 130.807 250.776 130.807 250.776C130.807 250.776 136.359 242.815 140.518 240.397C144.677 237.978 147.581 236.421 148.909 232.234C150.237 228.048 148.24 225.822 142.945 230.247C137.65 234.671 135.223 235.542 135.223 235.542L116.901 239.297" fill="#E4897B"/>
<path d="M110.278 269.977C117.561 269.977 122.416 262.914 122.416 262.914C124.757 262.156 126.851 260.783 128.48 258.938C130.798 256.071 130.807 250.776 130.807 250.776C130.807 250.776 136.359 242.815 140.518 240.397C144.677 237.978 147.581 236.421 148.909 232.234C150.237 228.048 148.24 225.822 142.945 230.247C137.65 234.671 135.223 235.542 135.223 235.542L116.901 239.297" stroke="#263238" stroke-linejoin="round"/>
<path d="M139.075 236.198L113.552 247.835L134.23 293.187L159.753 281.55L139.075 236.198Z" fill="white" stroke="#263238" stroke-linejoin="round"/>
<path d="M128.361 245.17L145.675 283.132" stroke="#263238" stroke-linejoin="round"/>
<path d="M122.773 258.288C123.273 258.513 123.841 258.532 124.355 258.342C124.87 258.152 125.288 257.767 125.521 257.271L128.132 251.665C128.352 251.163 128.368 250.596 128.176 250.083C127.984 249.57 127.601 249.151 127.106 248.916V248.916C126.606 248.696 126.039 248.679 125.526 248.869C125.013 249.058 124.594 249.44 124.358 249.933L121.756 255.54C121.534 256.04 121.515 256.607 121.705 257.121C121.895 257.634 122.278 258.053 122.773 258.288V258.288Z" fill="white" stroke="#263238" stroke-linejoin="round"/>
<path d="M126.895 267.33C127.396 267.552 127.963 267.571 128.477 267.381C128.99 267.191 129.409 266.807 129.644 266.313L132.245 260.706C132.471 260.207 132.49 259.638 132.3 259.124C132.11 258.61 131.725 258.191 131.229 257.958C130.728 257.736 130.161 257.717 129.647 257.907C129.134 258.097 128.715 258.48 128.48 258.975L125.879 264.581C125.656 265.082 125.638 265.649 125.828 266.163C126.018 266.676 126.401 267.095 126.895 267.33Z" fill="white" stroke="#263238" stroke-linejoin="round"/>
<path d="M131.018 276.362C131.518 276.587 132.086 276.607 132.6 276.417C133.114 276.226 133.533 275.842 133.766 275.345L136.368 269.739C136.593 269.239 136.612 268.671 136.422 268.157C136.232 267.642 135.847 267.224 135.351 266.991V266.991C134.851 266.768 134.283 266.75 133.77 266.94C133.256 267.13 132.837 267.513 132.603 268.007L130.001 273.614C129.778 274.114 129.76 274.682 129.95 275.195C130.14 275.709 130.523 276.127 131.018 276.362Z" fill="white" stroke="#263238" stroke-linejoin="round"/>
<path d="M135.14 285.404C135.64 285.627 136.208 285.645 136.721 285.455C137.235 285.265 137.654 284.882 137.889 284.387L140.49 278.781C140.713 278.281 140.731 277.713 140.541 277.2C140.351 276.686 139.968 276.267 139.473 276.033V276.033C138.973 275.81 138.406 275.792 137.892 275.982C137.379 276.172 136.96 276.555 136.725 277.049L134.123 282.656C133.898 283.156 133.879 283.724 134.069 284.238C134.259 284.752 134.644 285.171 135.14 285.404Z" fill="white" stroke="#263238" stroke-linejoin="round"/>
<path d="M134.636 252.883C135.137 253.106 135.704 253.124 136.217 252.934C136.731 252.744 137.15 252.361 137.385 251.866L139.986 246.26C140.209 245.76 140.227 245.192 140.037 244.679C139.847 244.165 139.464 243.746 138.969 243.511V243.511C138.469 243.289 137.902 243.271 137.388 243.461C136.875 243.651 136.456 244.034 136.221 244.528L133.61 250.135C133.388 250.636 133.371 251.204 133.563 251.718C133.755 252.232 134.14 252.65 134.636 252.883V252.883Z" fill="white" stroke="#263238" stroke-linejoin="round"/>
<path d="M138.75 261.952C139.251 262.174 139.819 262.191 140.333 261.999C140.847 261.808 141.265 261.422 141.498 260.926L144.109 255.329C144.331 254.829 144.35 254.261 144.16 253.748C143.97 253.234 143.586 252.815 143.092 252.581V252.581C142.842 252.463 142.571 252.397 142.295 252.384C142.019 252.372 141.743 252.414 141.484 252.509C141.224 252.603 140.986 252.748 140.782 252.935C140.579 253.122 140.414 253.347 140.298 253.597L137.696 259.204C137.478 259.709 137.467 260.279 137.663 260.792C137.86 261.306 138.25 261.722 138.75 261.952V261.952Z" fill="white" stroke="#263238" stroke-linejoin="round"/>
<path d="M142.872 270.957C143.372 271.18 143.94 271.198 144.453 271.008C144.967 270.818 145.385 270.435 145.62 269.941L148.231 264.334C148.453 263.833 148.47 263.264 148.278 262.751C148.087 262.237 147.701 261.819 147.205 261.586V261.586C146.705 261.366 146.138 261.349 145.625 261.538C145.112 261.728 144.693 262.11 144.457 262.603L141.855 268.209C141.632 268.709 141.614 269.277 141.804 269.79C141.994 270.304 142.377 270.723 142.872 270.957Z" fill="white" stroke="#263238" stroke-linejoin="round"/>
<path d="M146.994 279.999C147.495 280.222 148.062 280.24 148.576 280.05C149.089 279.86 149.508 279.477 149.743 278.982L152.344 273.376C152.569 272.876 152.589 272.308 152.399 271.793C152.209 271.279 151.824 270.861 151.328 270.628V270.628C150.828 270.402 150.259 270.383 149.745 270.573C149.231 270.763 148.812 271.148 148.579 271.644L145.978 277.251C145.755 277.751 145.737 278.318 145.927 278.832C146.117 279.345 146.5 279.764 146.994 279.999Z" fill="#263238" stroke="#263238" stroke-linejoin="round"/>
<path d="M118.669 231.346C118.669 231.346 124.624 225.171 127.711 226.271C130.798 227.37 138.704 235.541 138.969 237.529C139.235 239.517 142.066 245.921 140.957 246.36C139.849 246.8 132.575 242.165 129.479 239.032C126.382 235.899 118.669 231.346 118.669 231.346Z" fill="#E4897B" stroke="#263238" stroke-linejoin="round"/>
<path d="M106.751 239.966C106.751 239.966 111.606 229.367 114.913 229.367C118.22 229.367 130.148 234.671 131.687 236.879C133.226 239.087 140.298 245.93 138.53 246.809C136.762 247.689 133.033 245.893 130.367 243.942C129.021 242.91 127.62 241.949 126.172 241.066L118.669 238.858" fill="#E4897B"/>
<path d="M106.751 239.966C106.751 239.966 111.606 229.367 114.913 229.367C118.22 229.367 130.148 234.671 131.687 236.879C133.226 239.087 140.298 245.93 138.53 246.809C136.762 247.689 133.033 245.893 130.367 243.942C129.021 242.91 127.62 241.949 126.172 241.066L118.669 238.858" stroke="#263238" stroke-linejoin="round"/>
<path d="M99.019 243.933C99.019 243.933 103.874 233.334 107.19 233.334C110.507 233.334 122.416 238.629 123.964 240.836C125.512 243.044 132.575 249.887 130.807 250.776C129.039 251.665 125.311 249.86 122.636 247.899C121.292 246.87 119.894 245.913 118.449 245.032L110.937 242.824" fill="#E4897B"/>
<path d="M99.019 243.933C99.019 243.933 103.874 233.334 107.19 233.334C110.507 233.334 122.416 238.629 123.964 240.836C125.512 243.044 132.575 249.887 130.807 250.776C129.039 251.665 125.311 249.86 122.636 247.899C121.292 246.87 119.894 245.913 118.449 245.032L110.937 242.824" stroke="#263238" stroke-linejoin="round"/>
<path d="M97.031 248.788C97.031 248.788 94.6034 243.484 97.031 242.375C99.4587 241.267 115.133 237.52 116.681 236.641C118.229 235.761 121.097 237.08 117.597 241.047C114.098 245.014 103.691 247.46 102.592 247.67" fill="#E4897B"/>
<path d="M97.031 248.788C97.031 248.788 94.6034 243.484 97.031 242.375C99.4587 241.267 115.133 237.52 116.681 236.641C118.229 235.761 121.097 237.08 117.597 241.047C114.098 245.014 103.691 247.46 102.592 247.67" stroke="#263238" stroke-linejoin="round"/>
<path d="M66.7729 172.286L54.3599 180.805C54.3599 180.805 47.8282 184.57 44.4479 190.635L30.789 227.278C30.789 227.278 29.195 229.23 27.482 228.735C26.3806 228.416 25.3005 228.027 24.2482 227.571C23.3132 227.086 22.2886 226.797 21.2377 226.723C20.1867 226.649 19.1317 226.791 18.1379 227.141C15.124 228.396 12.5314 230.998 11.8719 235.78C11.2123 240.562 12.7879 244.299 15.9576 245.646C19.1273 246.992 22.0679 246.782 24.7612 244.647C27.4545 242.513 29.6531 237.758 30.2577 236.146C30.6791 234.983 31.2837 233.242 31.5769 232.363L42.6523 204.559L44.6586 203.9C44.6586 203.9 51.291 191.414 54.2317 189.206C57.1723 186.998 65.7102 180.475 67.0569 178.213C68.4035 175.95 66.7729 172.286 66.7729 172.286ZM24.3947 243.2C23.0756 244.482 19.9975 245.463 16.4706 243.979C12.9437 242.494 12.4398 238.244 12.9345 235.541C13.4292 232.839 16.3698 228.387 19.283 228.469C22.1961 228.552 25.4391 229.623 26.8407 232.262C28.2423 234.9 27.0789 238.674 27.0789 238.674C26.1811 240.882 25.7139 241.908 24.3947 243.2Z" fill="white" stroke="black" stroke-linejoin="round"/>
<path d="M53.8651 235.047C51.4741 232.922 46.7471 233.288 46.7471 233.288C46.4433 233.271 46.1461 233.193 45.8737 233.057C45.6013 232.921 45.3595 232.731 45.1631 232.499C44.9667 232.266 44.8198 231.996 44.7315 231.705C44.6431 231.414 44.6152 231.108 44.6493 230.805C44.8417 228.533 50.7687 193.347 50.7687 193.347L51.6848 188.766L63.3466 166.679L64.9223 162.557C64.9223 162.557 64.2444 161.952 63.8688 161.998L61.0564 165.04C61.0564 165.04 45.5287 184.891 45.1715 186.384C44.8142 187.878 44.4478 190.635 44.4478 190.635L42.6797 202.544C42.6797 202.544 45.7944 204.926 45.8585 206.483C45.9227 207.894 41.2781 237.09 40.362 242.925C40.2809 243.256 40.2258 243.593 40.1971 243.933C40.0231 246.938 41.5896 252.095 46.0417 251.994C50.4939 251.894 53.6178 249.494 55.4591 245.38C57.3004 241.267 56.2469 237.218 53.8651 235.047ZM54.1674 245.124C52.6834 248.44 50.155 250.364 46.5456 250.446C42.9362 250.529 41.6537 246.351 41.7911 243.933C41.8747 242.589 42.2266 241.276 42.8261 240.071C43.4256 238.866 44.2604 237.793 45.2814 236.916C46.283 235.99 47.5829 235.454 48.9457 235.404C50.3628 235.464 51.7291 235.949 52.8666 236.797C54.7812 238.528 55.6973 241.798 54.1583 245.142L54.1674 245.124Z" fill="white" stroke="black" stroke-linejoin="round"/>
<path d="M47.0129 186.513L51.7124 188.748" stroke="black" stroke-linejoin="round"/>
<path d="M49.413 194.858C49.279 195.142 49.0653 195.381 48.7979 195.546C48.5305 195.711 48.2209 195.795 47.9069 195.787C47.5928 195.78 47.2877 195.681 47.0287 195.503C46.7697 195.325 46.5679 195.076 46.4479 194.786C46.3279 194.495 46.2949 194.176 46.3528 193.867C46.4107 193.559 46.5571 193.273 46.7741 193.046C46.9912 192.819 47.2696 192.66 47.5754 192.588C47.8812 192.516 48.2014 192.535 48.4969 192.641C48.7027 192.726 48.8898 192.851 49.0472 193.009C49.2047 193.167 49.3296 193.354 49.4146 193.56C49.4997 193.766 49.5434 193.986 49.5431 194.209C49.5428 194.432 49.4986 194.652 49.413 194.858V194.858Z" fill="white" stroke="black" stroke-linejoin="round"/>
<path d="M49.413 194.858L46.3807 193.768" stroke="black" stroke-linejoin="round"/>
<path d="M53.2789 185.276C53.2078 184.738 52.989 184.231 52.6468 183.81C52.0697 183.068 51.2177 182.445 51.7948 181.263C52.372 180.082 61.5511 165.553 61.5511 165.553L62.6321 166.405" fill="white"/>
<path d="M53.2789 185.276C53.2078 184.738 52.989 184.231 52.6468 183.81C52.0697 183.068 51.2177 182.445 51.7948 181.263C52.372 180.082 61.5511 165.553 61.5511 165.553L62.6321 166.405" stroke="black" stroke-linejoin="round"/>
<path d="M132.053 39.0777C129.048 31.7491 123.882 26.8663 120.51 28.2404C120.019 28.4402 119.583 28.7543 119.237 29.1565L63.7772 69.0337L74.6603 95.6918L131.393 54.9169C134.765 53.5244 135.058 46.4431 132.053 39.0777Z" fill="white" stroke="black" stroke-linejoin="round"/>
<path d="M127.775 42.0917C124.77 34.763 119.594 29.8711 116.223 31.2452C115.728 31.4632 115.291 31.7961 114.95 32.2163L59.4899 72.0752L70.3546 98.7424L127.152 57.9491C130.477 56.575 130.816 49.4845 127.775 42.0917Z" fill="white" stroke="black" stroke-linejoin="round"/>
<path d="M75.7779 80.7688C71.7654 70.93 64.8581 64.4441 60.351 66.2855C59.6836 66.5663 59.0977 67.0104 58.6471 67.5771L41.956 79.4313L56.5034 115.067L74.9351 101.921C79.4056 100.08 79.7995 90.6442 75.7779 80.7688Z" fill="white" stroke="black" stroke-linejoin="round"/>
<path d="M57.3737 93.9147C61.3862 103.763 61.0381 113.226 56.4576 115.067C51.8772 116.908 45.0707 110.423 41.0399 100.584C37.0091 90.745 37.3756 81.2727 41.956 79.4313C46.5364 77.59 53.3521 84.0759 57.3737 93.9147Z" fill="white" stroke="black" stroke-linejoin="round"/>
<path d="M55.5559 112.766C59.4811 111.164 59.8259 102.916 56.3261 94.344C52.8263 85.7723 46.8071 80.1227 42.8819 81.7254C38.9567 83.328 38.6119 91.576 42.1117 100.148C45.6115 108.719 51.6307 114.369 55.5559 112.766Z" fill="white" stroke="black" stroke-linejoin="round"/>
<path d="M82.6859 73.1755L79.6138 68.908L73.7478 73.1309L76.82 77.3984L82.6859 73.1755Z" fill="white" stroke="black" stroke-linejoin="round"/>
<path d="M372.967 81.3826L363.313 50.1359L307.787 67.2923L317.441 98.539L372.967 81.3826Z" fill="white" stroke="black" stroke-linejoin="round"/>
<path d="M364.189 67.6505L317.716 82.0147" stroke="black" stroke-linejoin="round"/>
<path d="M359.907 65.9998L360.279 65.411C360.897 64.4312 360.604 63.1357 359.624 62.5174L352.945 58.3036C351.966 57.6854 350.67 57.9785 350.052 58.9584L349.68 59.5472C349.062 60.5271 349.355 61.8226 350.335 62.4408L357.013 66.6546C357.993 67.2729 359.289 66.9797 359.907 65.9998Z" fill="white" stroke="black" stroke-linejoin="round"/>
<path d="M348.815 69.3971L349.186 68.8083C349.805 67.8286 349.512 66.533 348.532 65.9146L341.854 61.6996C340.875 61.0812 339.579 61.3741 338.961 62.3539L338.589 62.9426C337.971 63.9224 338.263 65.218 339.243 65.8364L345.921 70.0513C346.901 70.6697 348.196 70.3768 348.815 69.3971Z" fill="white" stroke="black" stroke-linejoin="round"/>
<path d="M337.752 72.8175L338.123 72.2287C338.742 71.249 338.449 69.9534 337.469 69.335L330.791 65.12C329.812 64.5016 328.516 64.7945 327.898 65.7743L327.526 66.363C326.908 67.3428 327.2 68.6384 328.18 69.2568L334.858 73.4717C335.838 74.0901 337.133 73.7972 337.752 72.8175Z" fill="white" stroke="black" stroke-linejoin="round"/>
<path d="M326.705 76.2457L327.076 75.6569C327.694 74.677 327.401 73.3815 326.421 72.7633L319.743 68.5495C318.763 67.9312 317.467 68.2244 316.849 69.2043L316.478 69.7931C315.859 70.7729 316.153 72.0684 317.132 72.6867L323.811 76.9005C324.791 77.5187 326.086 77.2256 326.705 76.2457Z" fill="white" stroke="black" stroke-linejoin="round"/>
<path d="M364.394 80.5229L364.765 79.9342C365.384 78.9544 365.091 77.6588 364.111 77.0404L357.433 72.8255C356.454 72.2071 355.158 72.5 354.54 73.4797L354.168 74.0685C353.55 75.0482 353.843 76.3438 354.822 76.9622L361.5 81.1772C362.48 81.7956 363.775 81.5027 364.394 80.5229Z" fill="white" stroke="black" stroke-linejoin="round"/>
<path d="M353.303 83.916L353.675 83.3272C354.293 82.3475 354 81.0519 353.021 80.4335L346.343 76.2185C345.363 75.6001 344.068 75.893 343.449 76.8728L343.078 77.4616C342.459 78.4413 342.752 79.7369 343.732 80.3553L350.409 84.5703C351.389 85.1887 352.685 84.8957 353.303 83.916Z" fill="white" stroke="black" stroke-linejoin="round"/>
<path d="M342.232 87.3315L342.604 86.7428C343.223 85.763 342.93 84.4674 341.95 83.849L335.272 79.6341C334.292 79.0156 332.997 79.3086 332.378 80.2883L332.007 80.8771C331.388 81.8568 331.681 83.1524 332.661 83.7708L339.339 87.9858C340.318 88.6042 341.614 88.3113 342.232 87.3315Z" fill="white" stroke="black" stroke-linejoin="round"/>
<path d="M331.169 90.7521L331.541 90.1634C332.16 89.1836 331.867 87.8881 330.887 87.2697L324.209 83.0547C323.229 82.4363 321.934 82.7292 321.315 83.709L320.944 84.2977C320.325 85.2775 320.618 86.5731 321.598 87.1915L328.276 91.4064C329.255 92.0248 330.551 91.7319 331.169 90.7521Z" fill="white" stroke="black" stroke-linejoin="round"/>
<path d="M341.644 169.428L335.772 174.814L328.315 164.307L331.833 161.082L341.644 169.428Z" fill="white" stroke="black" stroke-linejoin="round"/>
<path d="M338.768 169.107L336.148 171.516C335.544 172.074 335.056 172.745 334.713 173.491C334.369 174.238 334.176 175.045 334.144 175.866C334.113 176.687 334.244 177.506 334.529 178.277C334.815 179.048 335.25 179.754 335.809 180.356L376.813 224.576L381.256 232.564L398.524 215.232L390.536 210.798L347.297 169.171C346.148 168.082 344.628 167.469 343.045 167.457C341.462 167.445 339.933 168.035 338.768 169.107V169.107Z" fill="white" stroke="black" stroke-linejoin="round"/>
<path d="M370.299 217.586L378.407 208.077L347.434 177.965L339.959 184.873L370.299 217.586Z" fill="white" stroke="black" stroke-linejoin="round"/>
<path d="M368.229 344.638H345.831V388.83H368.229V344.638Z" fill="white" stroke="#263238" stroke-linejoin="round"/>
<path d="M364.079 358.224H349.972V375.245H364.079V358.224Z" fill="white" stroke="#263238" stroke-linejoin="round"/>
<path d="M363.246 333.123H350.805V344.473H363.246V333.123Z" fill="white" stroke="#263238" stroke-linejoin="round"/>
<path d="M358.995 315.158H355.056L353.746 333.196H360.314L358.995 315.158Z" fill="white" stroke="#263238" stroke-linejoin="round"/>
<path d="M363.246 338.592H350.805V344.473H363.246V338.592Z" fill="white" stroke="#263238" stroke-linejoin="round"/>
<path d="M330.633 358.599H297.242V388.83H330.633V358.599Z" fill="white" stroke="#263238" stroke-linejoin="round"/>
<path d="M330.633 371.095H297.242V388.83H330.633V371.095Z" fill="white" stroke="#263238" stroke-linejoin="round"/>
<path d="M324.239 374.274H297.242V385.661H324.239V374.274Z" fill="white" stroke="#263238" stroke-linejoin="round"/>
<path d="M92.8263 336.632H59.435V388.83H92.8263V336.632Z" fill="white" stroke="#263238" stroke-linejoin="round"/>
<path d="M75.9245 337.135V388.555" stroke="#263238" stroke-linejoin="round"/>
<path d="M70.8037 341.542H62.0001V355.466H70.8037V341.542Z" stroke="#263238" stroke-linejoin="round"/>
<path d="M69.2921 343.942H63.5208V353.066H69.2921V343.942Z" stroke="#263238" stroke-linejoin="round"/>
<path d="M89.556 341.542H80.7524V355.466H89.556V341.542Z" stroke="#263238" stroke-linejoin="round"/>
<path d="M88.0443 343.942H82.273V353.066H88.0443V343.942Z" stroke="#263238" stroke-linejoin="round"/>
<path d="M80.7706 345.023H70.7853V351.435H80.7706V345.023Z" stroke="#263238" stroke-linejoin="round"/>
<path d="M70.8037 365.268H62.0001V379.193H70.8037V365.268Z" stroke="#263238" stroke-linejoin="round"/>
<path d="M69.2921 367.668H63.5208V376.793H69.2921V367.668Z" stroke="#263238" stroke-linejoin="round"/>
<path d="M89.556 365.268H80.7524V379.193H89.556V365.268Z" stroke="#263238" stroke-linejoin="round"/>
<path d="M88.0443 367.668H82.273V376.793H88.0443V367.668Z" stroke="#263238" stroke-linejoin="round"/>
<path d="M80.7706 368.749H70.7853V375.162H80.7706V368.749Z" stroke="#263238" stroke-linejoin="round"/>
<path d="M266.983 273.742H135.928V388.839H266.983V273.742Z" fill="#263238" stroke="#263238" stroke-linejoin="round"/>
<path d="M266.983 308.728H135.928V388.83H266.983V308.728Z" fill="#92E3A9" stroke="#263238" stroke-linejoin="round"/>
<path d="M222.81 340.241H210.122V327.745H192.79V340.241H180.102V357.317H192.79V369.821H210.122V357.317H222.81V340.241Z" fill="white" stroke="#263238" stroke-linejoin="round"/>
<path d="M266.791 267.604H136.185V279.193H266.791V267.604Z" fill="#92E3A9" stroke="#263238" stroke-linejoin="round"/>
<path d="M14.8217 388.83H397.837" stroke="#263238" stroke-linejoin="round"/>
</svg>
