<svg width="560" height="418" viewBox="0 0 560 418" fill="none" xmlns="http://www.w3.org/2000/svg">
<path d="M560 366.688H0V366.968H560V366.688Z" fill="#EBEBEB"/>
<path d="M503.888 384.709H466.794V384.989H503.888V384.709Z" fill="#EBEBEB"/>
<path d="M370.966 387.755H361.234V388.035H370.966V387.755Z" fill="#EBEBEB"/>
<path d="M465.674 374.315H444.181V374.595H465.674V374.315Z" fill="#EBEBEB"/>
<path d="M107.128 376.197H58.7552V376.477H107.128V376.197Z" fill="#EBEBEB"/>
<path d="M124.197 376.197H117.107V376.477H124.197V376.197Z" fill="#EBEBEB"/>
<path d="M252.168 380.923H147.246V381.203H252.168V380.923Z" fill="#EBEBEB"/>
<path d="M265.44 316.736H49.1792C47.4851 316.733 45.8613 316.058 44.6644 314.859C43.4675 313.66 42.7952 312.035 42.7952 310.341V6.33919C42.81 4.65474 43.4887 3.04413 44.684 1.8572C45.8794 0.670266 47.4947 0.00287792 49.1792 -7.62939e-06H265.44C267.136 -7.62939e-06 268.763 0.673771 269.962 1.8731C271.161 3.07244 271.835 4.69908 271.835 6.39519V310.341C271.835 312.037 271.161 313.664 269.962 314.863C268.763 316.062 267.136 316.736 265.44 316.736V316.736ZM49.1792 0.223993C47.5593 0.22696 46.0068 0.872545 44.8624 2.01905C43.718 3.16555 43.0752 4.71928 43.0752 6.33919V310.341C43.0752 311.961 43.718 313.514 44.8624 314.661C46.0068 315.807 47.5593 316.453 49.1792 316.456H265.44C267.061 316.453 268.615 315.808 269.761 314.662C270.907 313.515 271.552 311.962 271.555 310.341V6.33919C271.552 4.71825 270.907 3.16454 269.761 2.01836C268.615 0.872181 267.061 0.226954 265.44 0.223993H49.1792Z" fill="#EBEBEB"/>
<path d="M507.707 316.736H291.435C289.74 316.733 288.115 316.058 286.916 314.86C285.718 313.661 285.043 312.036 285.04 310.341V6.33919C285.058 4.65372 285.739 3.04312 286.936 1.8565C288.133 0.669874 289.75 0.00284646 291.435 -7.62939e-06H507.707C509.39 0.00582141 511.002 0.674511 512.195 1.86113C513.388 3.04774 514.065 4.65667 514.08 6.33919V310.341C514.08 312.033 513.409 313.656 512.215 314.855C511.02 316.054 509.399 316.73 507.707 316.736V316.736ZM291.435 0.223993C289.814 0.226954 288.261 0.872181 287.114 2.01836C285.968 3.16454 285.323 4.71825 285.32 6.33919V310.341C285.323 311.962 285.968 313.515 287.114 314.662C288.261 315.808 289.814 316.453 291.435 316.456H507.707C509.328 316.453 510.882 315.808 512.028 314.662C513.174 313.515 513.819 311.962 513.822 310.341V6.33919C513.819 4.71825 513.174 3.16454 512.028 2.01836C510.882 0.872181 509.328 0.226954 507.707 0.223993H291.435Z" fill="#EBEBEB"/>
<path d="M487.749 268.52H66.528V366.587H487.749V268.52Z" fill="#F0F0F0"/>
<path d="M468.675 61.8016H290.237C288.925 61.8016 287.862 62.8647 287.862 64.176V66.7184C287.862 68.0298 288.925 69.0928 290.237 69.0928H468.675C469.987 69.0928 471.05 68.0298 471.05 66.7184V64.176C471.05 62.8647 469.987 61.8016 468.675 61.8016Z" fill="#E0E0E0"/>
<path d="M460.163 67.6032H298.738V210.851H460.163V67.6032Z" fill="#E6E6E6"/>
<path d="M455.918 71.5232H302.781V206.987H455.918V71.5232Z" fill="#F0F0F0"/>
<path d="M338.722 71.5232L302.781 206.696V143.181L321.765 71.5232H338.722Z" fill="white"/>
<path d="M351.456 71.5232L315.202 206.998H309.411L345.666 71.5232H351.456Z" fill="white"/>
<path d="M455.918 157.013V178.651L448.582 206.998H442.803L455.918 157.013Z" fill="white"/>
<path d="M356.194 69.0928H353.618V210.022H356.194V69.0928Z" fill="#E6E6E6"/>
<path d="M406.179 69.0928H403.603V210.022H406.179V69.0928Z" fill="#E6E6E6"/>
<path d="M433.866 64.1312C433.866 64.1312 437.573 112.594 458.931 137.29C458.931 137.29 443.374 199.662 443.386 221.413L472.293 216.07L461.877 137.67L466.861 64.1424L433.866 64.1312Z" fill="#E0E0E0"/>
<path d="M325.046 64.1312C325.046 64.1312 321.339 112.594 299.981 137.29C299.981 137.29 315.538 199.662 315.526 221.413L286.619 216.07L297.035 137.67L292.051 64.1424L325.046 64.1312Z" fill="#E0E0E0"/>
<path d="M487.749 257.6H66.528V265.821H487.749V257.6Z" fill="#F0F0F0"/>
<path d="M88.4128 268.621H86.6768V366.486H88.4128V268.621Z" fill="#E0E0E0"/>
<path d="M110.578 268.621H108.842V366.486H110.578V268.621Z" fill="#E0E0E0"/>
<path d="M132.731 268.621H130.995V366.486H132.731V268.621Z" fill="#E0E0E0"/>
<path d="M154.896 268.621H153.16V366.486H154.896V268.621Z" fill="#E0E0E0"/>
<path d="M177.05 268.621H175.314V366.486H177.05V268.621Z" fill="#E0E0E0"/>
<path d="M199.214 268.621H197.478V366.486H199.214V268.621Z" fill="#E0E0E0"/>
<path d="M221.368 268.621H219.632V366.486H221.368V268.621Z" fill="#E0E0E0"/>
<path d="M243.533 268.621H241.797V366.486H243.533V268.621Z" fill="#E0E0E0"/>
<path d="M265.686 268.621H263.95V366.486H265.686V268.621Z" fill="#E0E0E0"/>
<path d="M287.851 268.621H286.115V366.486H287.851V268.621Z" fill="#E0E0E0"/>
<path d="M310.016 268.621H308.28V366.486H310.016V268.621Z" fill="#E0E0E0"/>
<path d="M332.17 268.621H330.434V366.486H332.17V268.621Z" fill="#E0E0E0"/>
<path d="M354.334 268.621H352.598V366.486H354.334V268.621Z" fill="#E0E0E0"/>
<path d="M376.488 268.621H374.752V366.486H376.488V268.621Z" fill="#E0E0E0"/>
<path d="M398.653 268.621H396.917V366.486H398.653V268.621Z" fill="#E0E0E0"/>
<path d="M420.806 268.621H419.07V366.486H420.806V268.621Z" fill="#E0E0E0"/>
<path d="M442.971 268.621H441.235V366.486H442.971V268.621Z" fill="#E0E0E0"/>
<path d="M465.136 268.621H463.4V366.486H465.136V268.621Z" fill="#E0E0E0"/>
<path d="M280 417.267C399.932 417.267 497.157 411.591 497.157 404.589C497.157 397.587 399.932 391.91 280 391.91C160.068 391.91 62.8432 397.587 62.8432 404.589C62.8432 411.591 160.068 417.267 280 417.267Z" fill="#F5F5F5"/>
<path d="M216.72 92.344H148.49V185.606H216.72V92.344Z" fill="#6ECD55"/>
<path opacity="0.2" d="M216.72 92.344H148.49V185.606H216.72V92.344Z" fill="white"/>
<path opacity="0.4" d="M211.12 180.006V97.944H154.09V180.006H211.12Z" fill="black"/>
<path d="M102.189 89.6896L100.778 89.9472V187.914L102.189 188.205L148.243 185.606V92.344L102.189 89.6896Z" fill="#6ECD55"/>
<path opacity="0.6" d="M106.232 182.146V95.816L143.427 97.6976V180.253L106.232 182.146Z" fill="white"/>
<path opacity="0.2" d="M143.427 180.253L144.659 180.186V97.7648L143.427 97.6976V180.253Z" fill="black"/>
<path opacity="0.2" d="M102.189 188.205V89.6896L100.778 89.9472V187.914L102.189 188.205Z" fill="black"/>
<path d="M132.261 137.021L127.299 137.01V128.15L123.458 128.094V136.998L118.395 136.987V140.963L123.458 140.952V149.856L127.299 149.8V140.941L132.261 140.93V137.021Z" fill="#6ECD55"/>
<path d="M149.251 103.611H148.243V118.339H149.251V103.611Z" fill="#263238"/>
<path d="M149.251 159.611H148.243V174.339H149.251V159.611Z" fill="#263238"/>
<path d="M209.854 120.232H155.579V123.458H209.854V120.232Z" fill="#6ECD55"/>
<path d="M209.854 147.918H155.579V151.144H209.854V147.918Z" fill="#6ECD55"/>
<path opacity="0.6" d="M162.792 134.994H167.104C167.443 134.994 167.767 135.128 168.007 135.368C168.246 135.607 168.381 135.932 168.381 136.27V147.918H161.515V136.27C161.515 135.932 161.65 135.607 161.889 135.368C162.129 135.128 162.453 134.994 162.792 134.994Z" fill="white"/>
<path d="M166.902 131.085H162.994V134.994H166.902V131.085Z" fill="#263238"/>
<path opacity="0.3" d="M182.818 136.102H171.595V147.84H182.818V136.102Z" fill="white"/>
<path d="M192.125 144.962H186.962L185.842 129.158H193.245L192.125 144.962Z" fill="#6ECD55"/>
<path d="M192.136 144.962H186.962V147.84H192.136V144.962Z" fill="#263238"/>
<path opacity="0.3" d="M206.226 133.963H197.221V147.851H206.226V133.963Z" fill="white"/>
<path d="M206.226 133.963H197.221V135.442H206.226V133.963Z" fill="#6ECD55"/>
<path d="M180.286 163.722H159.869V180.006H180.286V163.722Z" fill="#6ECD55"/>
<path opacity="0.3" d="M180.286 163.722H159.869V180.006H180.286V163.722Z" fill="white"/>
<path d="M188.563 159.555C188.555 159.515 188.538 159.477 188.513 159.444C188.488 159.411 188.456 159.384 188.42 159.365C188.384 159.346 188.344 159.335 188.303 159.333C188.261 159.331 188.22 159.338 188.182 159.354C187.604 159.616 187.111 160.038 186.762 160.569C186.413 161.1 186.222 161.72 186.211 162.355C186.144 164.842 188.843 164.595 188.843 164.595L191.24 178.696H191.822L188.563 159.555ZM186.771 162.658C186.724 162.148 186.816 161.636 187.037 161.174C187.258 160.713 187.599 160.32 188.026 160.037L188.72 163.99C188.503 164.054 188.275 164.069 188.052 164.034C187.828 163.999 187.616 163.914 187.429 163.787C187.243 163.659 187.087 163.492 186.973 163.296C186.859 163.101 186.79 162.883 186.771 162.658Z" fill="#263238"/>
<path d="M188.451 178.718H189.045L191.43 164.64C191.43 164.64 194.141 164.864 194.062 162.4C194.052 161.766 193.863 161.147 193.516 160.616C193.169 160.085 192.679 159.663 192.102 159.398C192.065 159.38 192.023 159.372 191.981 159.373C191.939 159.373 191.898 159.384 191.861 159.404C191.824 159.423 191.793 159.451 191.768 159.485C191.744 159.519 191.728 159.559 191.722 159.6L188.451 178.718ZM191.52 163.99L192.226 160.037C192.65 160.321 192.99 160.715 193.211 161.176C193.432 161.637 193.525 162.148 193.48 162.658C193.459 162.883 193.389 163.102 193.274 163.297C193.159 163.492 193.002 163.659 192.815 163.787C192.627 163.914 192.414 163.999 192.19 164.034C191.966 164.069 191.737 164.054 191.52 163.99V163.99Z" fill="#263238"/>
<path d="M201.133 162.619L199.865 162.474L198.319 175.983L199.587 176.128L201.133 162.619Z" fill="#6ECD55"/>
<path d="M197.221 163.755H195.944V177.352H197.221V163.755Z" fill="#6ECD55"/>
<path d="M204.534 166.981H186.514V180.006H204.534V166.981Z" fill="#263238"/>
<path opacity="0.3" d="M204.534 166.981H186.514V180.006H204.534V166.981Z" fill="white"/>
<path opacity="0.3" d="M205.195 104.944H193.749V120.232H205.195V104.944Z" fill="white"/>
<path d="M181.642 109.816C180.612 109.816 179.605 110.121 178.748 110.694C177.892 111.266 177.224 112.079 176.83 113.031C176.436 113.983 176.333 115.03 176.534 116.04C176.735 117.05 177.231 117.978 177.959 118.707C178.687 119.435 179.615 119.931 180.626 120.132C181.636 120.333 182.683 120.23 183.635 119.836C184.586 119.441 185.4 118.774 185.972 117.917C186.544 117.061 186.85 116.054 186.85 115.024C186.85 113.643 186.301 112.318 185.324 111.341C184.347 110.365 183.023 109.816 181.642 109.816ZM181.642 117.421C181.168 117.421 180.704 117.28 180.31 117.017C179.916 116.754 179.609 116.379 179.427 115.941C179.246 115.503 179.198 115.021 179.291 114.556C179.383 114.091 179.612 113.664 179.947 113.329C180.282 112.994 180.709 112.766 181.174 112.673C181.639 112.581 182.121 112.628 182.559 112.81C182.997 112.991 183.371 113.298 183.634 113.692C183.898 114.087 184.038 114.55 184.038 115.024C184.038 115.66 183.786 116.269 183.336 116.719C182.887 117.168 182.277 117.421 181.642 117.421Z" fill="#263238"/>
<path opacity="0.3" d="M181.642 109.816C180.612 109.816 179.605 110.121 178.748 110.694C177.892 111.266 177.224 112.079 176.83 113.031C176.436 113.983 176.333 115.03 176.534 116.04C176.735 117.05 177.231 117.978 177.959 118.707C178.687 119.435 179.615 119.931 180.626 120.132C181.636 120.333 182.683 120.23 183.635 119.836C184.586 119.441 185.4 118.774 185.972 117.917C186.544 117.061 186.85 116.054 186.85 115.024C186.85 113.643 186.301 112.318 185.324 111.341C184.347 110.365 183.023 109.816 181.642 109.816ZM181.642 117.421C181.168 117.421 180.704 117.28 180.31 117.017C179.916 116.754 179.609 116.379 179.427 115.941C179.246 115.503 179.198 115.021 179.291 114.556C179.383 114.091 179.612 113.664 179.947 113.329C180.282 112.994 180.709 112.766 181.174 112.673C181.639 112.581 182.121 112.628 182.559 112.81C182.997 112.991 183.371 113.298 183.634 113.692C183.898 114.087 184.038 114.55 184.038 115.024C184.038 115.66 183.786 116.269 183.336 116.719C182.887 117.168 182.277 117.421 181.642 117.421Z" fill="white"/>
<path d="M191.419 112C190.599 112 189.797 112.243 189.116 112.699C188.434 113.155 187.903 113.803 187.59 114.561C187.276 115.319 187.195 116.152 187.356 116.957C187.516 117.761 187.912 118.499 188.493 119.078C189.074 119.657 189.813 120.051 190.618 120.21C191.422 120.368 192.256 120.285 193.013 119.969C193.77 119.654 194.416 119.121 194.87 118.438C195.324 117.755 195.565 116.953 195.563 116.133C195.563 115.589 195.456 115.051 195.248 114.549C195.039 114.047 194.734 113.59 194.349 113.207C193.964 112.823 193.507 112.518 193.004 112.311C192.501 112.104 191.963 111.999 191.419 112V112ZM191.419 118.037C191.043 118.035 190.676 117.921 190.364 117.711C190.053 117.5 189.811 117.202 189.668 116.854C189.526 116.506 189.49 116.123 189.564 115.755C189.639 115.386 189.821 115.048 190.088 114.783C190.355 114.517 190.694 114.337 191.063 114.265C191.432 114.192 191.814 114.23 192.162 114.375C192.509 114.519 192.806 114.763 193.014 115.076C193.223 115.389 193.334 115.757 193.334 116.133C193.323 116.632 193.115 117.106 192.757 117.454C192.399 117.802 191.918 117.995 191.419 117.992V118.037Z" fill="#6ECD55"/>
<path opacity="0.6" d="M169.982 116.536H160.451V120.232H169.982V116.536Z" fill="white"/>
<path opacity="0.3" d="M171.046 112.84H161.515V116.536H171.046V112.84Z" fill="white"/>
<path d="M169.982 109.133H160.451V112.829H169.982V109.133Z" fill="#263238"/>
<path opacity="0.2" d="M209.854 120.232H155.579V123.458H209.854V120.232Z" fill="white"/>
<path opacity="0.2" d="M209.854 147.918H155.579V151.144H209.854V147.918Z" fill="white"/>
<path d="M108.181 369.701C108.349 368.581 112.269 341.499 104.418 332.169C103.636 331.185 102.646 330.386 101.519 329.831C100.392 329.275 99.1558 328.976 97.8993 328.955C82.0513 328.585 79.8785 341.275 79.8561 341.443L81.7264 341.734C81.8048 341.275 83.6753 330.534 97.8545 330.848C98.8423 330.862 99.8145 331.096 100.7 331.534C101.586 331.972 102.362 332.603 102.973 333.379C110.275 342.082 106.333 369.141 106.333 369.421L108.181 369.701Z" fill="#6ECD55"/>
<path d="M109.144 368.48L111.026 368.413C111.026 368.166 110.398 343.493 122.562 338.397C134.467 333.413 139.832 343.672 140.056 344.109L141.747 343.258C141.68 343.134 135.397 330.938 121.822 336.661C108.472 342.238 109.11 367.36 109.144 368.48Z" fill="#6ECD55"/>
<path d="M109.088 370.406C109.088 370.014 109.2 330.994 116.805 319.581C124.107 308.616 135.845 313.779 136.394 313.981L137.178 312.256C137.032 312.2 123.435 306.197 115.237 318.506C107.307 330.389 107.195 368.749 107.195 370.384L109.088 370.406Z" fill="#6ECD55"/>
<path d="M95.6256 329.896C95.6256 329.896 102.547 332.45 100.498 338.464C98.448 344.478 76.552 354.402 76.552 354.402C76.552 354.402 67.3792 346.002 75.8016 332.338C84.224 318.674 95.4464 325.584 95.6256 329.896Z" fill="#6ECD55"/>
<path d="M117.152 317.52C117.152 317.52 112.235 316.994 112.672 314.003C113.109 311.013 131.779 303.307 142.811 315.762C142.811 315.762 135.744 327.902 125.53 328.082C115.315 328.261 117.152 317.52 117.152 317.52Z" fill="#6ECD55"/>
<path d="M122.192 337.512C122.192 337.512 118.832 334.779 122.461 333.446C126.09 332.114 144.077 332.483 144.267 350.246C144.267 350.246 123.346 353.73 120.747 346.954C118.149 340.178 122.192 337.512 122.192 337.512Z" fill="#6ECD55"/>
<path opacity="0.2" d="M95.6256 329.896C95.6256 329.896 102.547 332.45 100.498 338.464C98.448 344.478 76.552 354.402 76.552 354.402C76.552 354.402 67.3792 346.002 75.8016 332.338C84.224 318.674 95.4464 325.584 95.6256 329.896Z" fill="black"/>
<path opacity="0.2" d="M117.152 317.52C117.152 317.52 112.235 316.994 112.672 314.003C113.109 311.013 131.779 303.307 142.811 315.762C142.811 315.762 135.744 327.902 125.53 328.082C115.315 328.261 117.152 317.52 117.152 317.52Z" fill="black"/>
<path opacity="0.2" d="M122.192 337.512C122.192 337.512 118.832 334.779 122.461 333.446C126.09 332.114 144.077 332.483 144.267 350.246C144.267 350.246 123.346 353.73 120.747 346.954C118.149 340.178 122.192 337.512 122.192 337.512Z" fill="black"/>
<path d="M91.9072 405.933H124.365L127.87 370.406H88.4128L91.9072 405.933Z" fill="#6ECD55"/>
<path opacity="0.5" d="M91.9072 405.933H124.365L127.87 370.406H88.4128L91.9072 405.933Z" fill="white"/>
<path d="M86.6768 374.315H129.595V366.475H86.6768V374.315Z" fill="#6ECD55"/>
<path opacity="0.2" d="M86.6768 374.315H129.595V366.475H86.6768V374.315Z" fill="white"/>
<path d="M436.397 328.686V327.04H327.891V328.698V405.978H331.251V353.808H433.037V405.608H436.397V328.686ZM419.44 330.4L382.144 338.71L344.848 330.4H419.44ZM331.251 330.814L374.416 340.424L331.251 350.034V330.814ZM344.848 350.448L382.144 342.138L419.44 350.448H344.848ZM389.872 340.368L433.037 330.758V349.978L389.872 340.368Z" fill="#263238"/>
<path opacity="0.2" d="M436.397 328.686V327.04H327.891V328.698V405.978H331.251V353.808H433.037V405.608H436.397V328.686ZM419.44 330.4L382.144 338.71L344.848 330.4H419.44ZM331.251 330.814L374.416 340.424L331.251 350.034V330.814ZM344.848 350.448L382.144 342.138L419.44 350.448H344.848ZM389.872 340.368L433.037 330.758V349.978L389.872 340.368Z" fill="white"/>
<path d="M337.232 307.765H427.056C428.494 307.765 429.872 308.336 430.889 309.353C431.906 310.369 432.477 311.748 432.477 313.186V319.794H331.811V313.186C331.811 311.748 332.382 310.369 333.399 309.353C334.416 308.336 335.794 307.765 337.232 307.765Z" fill="#6ECD55"/>
<path d="M435.613 317.733H328.686C327.678 317.733 326.861 318.55 326.861 319.558V325.696C326.861 326.704 327.678 327.522 328.686 327.522H435.613C436.621 327.522 437.438 326.704 437.438 325.696V319.558C437.438 318.55 436.621 317.733 435.613 317.733Z" fill="#263238"/>
<path opacity="0.3" d="M435.613 317.733H328.686C327.678 317.733 326.861 318.55 326.861 319.558V325.696C326.861 326.704 327.678 327.522 328.686 327.522H435.613C436.621 327.522 437.438 326.704 437.438 325.696V319.558C437.438 318.55 436.621 317.733 435.613 317.733Z" fill="white"/>
<path d="M370.989 246.96L371.829 258.16C371.829 258.16 360.539 261.923 357.84 259.403C355.141 256.883 357.123 250.746 370.989 246.96Z" fill="#E4897B"/>
<path d="M377.182 244.485L374.685 258.138L374.382 259.795L365.904 260.826L364.784 260.96L363.418 250.566C363.418 250.566 370.72 245.28 377.182 244.485Z" fill="#6ECD55"/>
<path opacity="0.2" d="M374.685 258.138L374.382 259.795L365.904 260.826C367.438 255.987 373.206 252.93 373.206 252.93C374.248 254.461 374.767 256.288 374.685 258.138V258.138Z" fill="black"/>
<path d="M408.453 268.072C408.173 272.272 407.736 277.032 407.098 281.904C406.728 284.838 406.28 287.851 405.742 290.864L363.451 279.832C366.264 272.026 368.476 264.018 370.07 255.875C370.35 254.296 370.552 252.773 370.675 251.395C370.819 249.678 371.541 248.059 372.723 246.804C373.905 245.55 375.476 244.732 377.182 244.485C381.246 243.985 385.358 244.018 389.413 244.586C403.178 246.266 409.091 250.477 409.091 250.477C409.091 250.477 409.192 257.757 408.453 268.072Z" fill="#6ECD55"/>
<path d="M387.296 241.494C387.47 242.308 387.479 243.149 387.323 243.966C387.168 244.784 386.85 245.562 386.389 246.254C386.228 246.5 386.052 246.736 385.862 246.96C385.559 247.306 385.23 247.628 384.877 247.923C385.854 249.248 387.226 250.229 388.796 250.724C390.366 251.22 392.053 251.203 393.613 250.678L398.899 248.909L400.019 248.506C399.14 247.116 398.565 245.557 398.332 243.93C398.098 242.303 398.212 240.644 398.664 239.064C399.105 237.439 399.805 235.896 400.736 234.494L390.23 236.544L385.448 237.474C386.348 238.664 386.978 240.036 387.296 241.494V241.494Z" fill="#E4897B"/>
<path opacity="0.2" d="M387.296 241.494C387.47 242.308 387.479 243.149 387.323 243.966C387.168 244.784 386.85 245.562 386.389 246.254C386.228 246.5 386.052 246.736 385.862 246.96C391.619 246.882 396.278 242.144 398.709 239.064C399.15 237.439 399.849 235.896 400.781 234.494L390.275 236.544L385.493 237.474C386.376 238.668 386.992 240.04 387.296 241.494Z" fill="black"/>
<path d="M384.294 207.536C384.294 207.536 372.49 215.298 383.51 226.262C395.965 238.65 384.294 207.536 384.294 207.536Z" fill="#263238"/>
<path d="M409.002 225.12C407.501 233.43 401.789 242.2 394.71 242.704C388.36 243.163 383.992 242.704 381.136 240.946C378.571 239.4 377.227 236.858 376.768 233.106C376.69 232.467 376.645 231.795 376.611 231.078C376.219 222.432 380.688 209.306 391.485 207.95C402.282 206.595 411.04 213.618 409.002 225.12Z" fill="#E4897B"/>
<path d="M382.424 212.979C386.266 214.776 390.525 215.492 394.744 215.051C394.744 215.051 399.75 216.429 398.026 222.051C396.301 227.674 402.629 231.504 402.069 239.131C402.069 239.131 410.088 239.03 413.112 222.51C415.352 210.482 405.272 204.646 394.453 203.706C385.336 202.91 378.246 208.746 382.424 212.979Z" fill="#263238"/>
<path d="M389.626 225.501C389.469 226.621 388.774 227.349 388.08 227.237C387.386 227.125 386.96 226.184 387.117 225.12C387.274 224.056 387.957 223.294 388.651 223.395C389.346 223.496 389.76 224.448 389.626 225.501Z" fill="#263238"/>
<path d="M391.406 221.413C391.44 221.511 391.44 221.617 391.406 221.715C391.387 221.776 391.357 221.832 391.316 221.88C391.275 221.928 391.225 221.968 391.169 221.997C391.113 222.026 391.051 222.044 390.988 222.05C390.925 222.055 390.862 222.048 390.802 222.029C390.064 221.818 389.389 221.434 388.831 220.908C388.274 220.381 387.851 219.729 387.598 219.005C387.581 218.944 387.577 218.88 387.584 218.817C387.592 218.754 387.612 218.693 387.643 218.638C387.674 218.583 387.716 218.535 387.766 218.496C387.816 218.457 387.873 218.428 387.934 218.411V218.411C388.056 218.379 388.185 218.395 388.296 218.456C388.406 218.516 388.489 218.616 388.528 218.736C388.739 219.31 389.085 219.825 389.538 220.236C389.99 220.648 390.535 220.944 391.126 221.099C391.193 221.128 391.253 221.17 391.302 221.225C391.35 221.279 391.386 221.343 391.406 221.413V221.413Z" fill="#263238"/>
<path d="M383.186 217.28C383.285 217.289 383.378 217.328 383.454 217.392C383.543 217.484 383.592 217.606 383.592 217.734C383.592 217.861 383.543 217.983 383.454 218.075C382.91 218.616 382.242 219.015 381.508 219.24C380.774 219.464 379.997 219.506 379.243 219.363C379.182 219.349 379.123 219.322 379.072 219.285C379.021 219.248 378.978 219.2 378.946 219.146C378.913 219.092 378.892 219.031 378.884 218.968C378.875 218.906 378.879 218.842 378.896 218.781V218.781C378.93 218.659 379.01 218.556 379.118 218.491C379.226 218.427 379.355 218.406 379.478 218.434V218.434C380.087 218.535 380.712 218.486 381.297 218.291C381.883 218.096 382.412 217.76 382.838 217.314C382.947 217.262 383.069 217.251 383.186 217.28V217.28Z" fill="#263238"/>
<path d="M383.242 225.579L382.48 230.194C381.328 230.012 380.258 229.484 379.411 228.682C380.868 227.892 382.167 226.841 383.242 225.579V225.579Z" fill="#DE5753"/>
<path d="M399.022 229.208C399.022 229.208 401.878 224.347 404.331 226.296C406.784 228.245 405.171 236.757 401.229 236.264C397.286 235.771 396.894 231.75 399.022 229.208Z" fill="#E4897B"/>
<path d="M384.574 234.55H384.496C384.455 234.54 384.417 234.522 384.383 234.496C384.35 234.471 384.322 234.439 384.301 234.402C384.28 234.365 384.266 234.325 384.262 234.283C384.257 234.241 384.26 234.199 384.272 234.158C384.272 234.158 385.538 229.869 389.267 230.922C389.348 230.945 389.417 230.999 389.458 231.072C389.5 231.145 389.512 231.232 389.491 231.314C389.463 231.394 389.406 231.461 389.332 231.502C389.258 231.544 389.171 231.556 389.088 231.538C385.974 230.642 384.933 234.181 384.888 234.338C384.865 234.401 384.822 234.456 384.765 234.494C384.709 234.533 384.642 234.552 384.574 234.55V234.55Z" fill="#263238"/>
<path d="M392.952 203.638C387.979 203.638 376.981 206.584 377.787 216.63L379.12 214.267L380.016 217.28L382.144 214.346L384.037 217.963L386.053 214.323L386.725 217.963L388.371 215.376L390.051 217.963L393.411 216.182L394.89 218.77V216.63C394.89 216.63 398.149 220.909 402.248 219.475C406.347 218.042 392.952 203.638 392.952 203.638Z" fill="#263238"/>
<path d="M379.165 223.384C379.165 223.384 380.901 222.555 381.326 224.829C381.326 224.829 380.206 223.53 379.086 223.866L379.165 223.384Z" fill="#263238"/>
<path opacity="0.2" d="M387.083 236.32L381.136 241.013C378.571 239.467 377.227 236.925 376.768 233.173L378.045 230.698L386.053 231.157L387.083 236.32Z" fill="black"/>
<path opacity="0.6" d="M408.453 268.094C408.173 272.294 407.736 277.054 407.098 281.926C406.728 284.861 406.28 287.874 405.742 290.886L363.451 279.854C366.264 272.049 368.476 264.04 370.07 255.898C374.864 250.354 384.126 249.043 384.126 249.043C387.699 255.024 395.618 251.698 395.618 251.698C398.72 255.472 400.938 267.154 400.938 267.154L408.453 268.094Z" fill="white"/>
<path opacity="0.2" d="M408.464 268.072C408.173 272.283 407.736 277.032 407.098 281.938C397.746 275.307 402.931 260.96 402.931 260.96C403.894 264.768 407.546 267.456 408.464 268.072Z" fill="black"/>
<path d="M406.19 288.288L364.459 276.909C364.179 277.334 363.922 277.749 363.664 278.163L352.195 280.582C352.195 280.582 344.355 300.832 352.699 307.026C356.227 309.646 364.336 307.922 368.166 307.989C371.291 309.456 374.886 308.314 379.501 309.501C409.315 317.139 406.19 288.288 406.19 288.288Z" fill="#263238"/>
<path d="M363.003 301.672C363.003 301.672 353.472 299.936 348.23 299.23C347.155 299.033 346.064 298.936 344.971 298.939C344.702 298.939 342.787 299.622 339.864 300.608C327.712 304.685 298.222 314.854 298.222 314.854L295.075 309.344C295.075 309.344 324.957 289.99 338.027 284.547L338.968 284.178L339.763 283.875L340.021 283.786L340.424 283.651L341.824 283.158L342.944 282.778L343.93 282.475C344.366 282.33 344.814 282.206 345.262 282.072L346.629 281.725L347.749 281.467C352.285 280.513 356.947 280.316 361.547 280.885C362.038 281.684 362.483 282.51 362.88 283.36C364.739 287.381 367.45 295.4 363.003 301.672Z" fill="#E4897B"/>
<path d="M294.19 304.472C294.255 304.303 294.366 304.155 294.511 304.046C294.655 303.937 294.828 303.871 295.008 303.856C295.12 303.83 295.237 303.831 295.348 303.861C295.459 303.89 295.562 303.946 295.646 304.024C296.363 304.73 295.915 307.328 295.87 307.619C295.86 307.654 295.842 307.685 295.816 307.711C295.791 307.736 295.759 307.755 295.725 307.765C295.692 307.773 295.657 307.771 295.625 307.759C295.593 307.747 295.565 307.726 295.546 307.698C295.111 307.153 294.736 306.563 294.426 305.939C294.165 305.497 294.081 304.973 294.19 304.472ZM295.366 304.293C295.324 304.255 295.274 304.229 295.219 304.215C295.165 304.201 295.108 304.201 295.053 304.214C294.94 304.227 294.832 304.269 294.74 304.336C294.647 304.402 294.574 304.492 294.526 304.595C294.358 305.077 294.739 306.006 295.546 307.149C295.691 306.107 295.747 304.674 295.366 304.293V304.293Z" fill="#6ECD55"/>
<path d="M297.013 304.786C297.188 304.737 297.374 304.74 297.547 304.796C297.72 304.852 297.873 304.957 297.987 305.099C298.075 305.171 298.143 305.265 298.184 305.371C298.225 305.477 298.239 305.592 298.222 305.704C298.066 306.701 295.691 307.843 295.422 307.944C295.391 307.961 295.357 307.969 295.322 307.969C295.286 307.969 295.252 307.961 295.221 307.944C295.204 307.915 295.195 307.882 295.195 307.849C295.195 307.815 295.204 307.783 295.221 307.754C295.413 307.087 295.68 306.445 296.016 305.838C296.204 305.375 296.56 304.999 297.013 304.786V304.786ZM297.842 305.637C297.846 305.581 297.839 305.525 297.819 305.473C297.8 305.421 297.769 305.374 297.73 305.334C297.652 305.252 297.555 305.19 297.448 305.153C297.34 305.116 297.226 305.105 297.114 305.122C296.621 305.267 296.083 306.118 295.624 307.44C296.565 306.947 297.763 306.163 297.864 305.637H297.842Z" fill="#6ECD55"/>
<path d="M296.8 307.888L300.373 315.728C300.436 315.859 300.445 316.01 300.399 316.147C300.353 316.285 300.255 316.4 300.126 316.467L294.078 319.67C293.754 319.82 293.384 319.836 293.049 319.714C292.713 319.592 292.439 319.343 292.286 319.021C291.088 316.254 290.651 314.877 289.106 311.416C287.589 308.402 286.286 305.284 285.208 302.086C284.346 298.984 287.448 298.222 288.075 299.454C289.987 302.549 292.664 305.098 295.848 306.858C296.267 307.09 296.601 307.451 296.8 307.888Z" fill="#263238"/>
<path opacity="0.2" d="M363.003 301.672C363.003 301.672 353.472 299.936 348.23 299.23C347.155 299.033 346.064 298.936 344.971 298.939C344.702 298.939 342.787 299.622 339.864 300.608C340.944 297.559 342.332 294.628 344.008 291.861C346.674 288.378 362.88 283.36 362.88 283.36C364.739 287.381 367.45 295.4 363.003 301.672Z" fill="black"/>
<path d="M349.966 338.654C349.966 338.654 350.795 287.706 362.645 284.155C370.082 281.915 376.589 284.39 389.906 288.31C389.906 288.31 391.821 299.309 385.65 308.011C385.65 308.011 369.298 303.587 367.875 303.867C366.453 304.147 357.19 340.357 357.19 340.357L349.966 338.654Z" fill="#E4897B"/>
<path d="M345.195 334.88C345.096 334.729 345.043 334.552 345.043 334.371C345.043 334.189 345.096 334.012 345.195 333.861C345.246 333.756 345.321 333.666 345.415 333.598C345.509 333.529 345.618 333.485 345.733 333.469C346.73 333.368 348.443 335.373 348.634 335.597C348.652 335.627 348.662 335.662 348.662 335.698C348.662 335.733 348.652 335.768 348.634 335.799C348.619 335.83 348.595 335.856 348.565 335.872C348.534 335.888 348.5 335.894 348.466 335.888C347.774 335.877 347.087 335.787 346.416 335.619C345.933 335.529 345.499 335.266 345.195 334.88V334.88ZM345.8 333.861C345.744 333.868 345.691 333.889 345.646 333.922C345.601 333.956 345.565 334 345.542 334.051C345.487 334.151 345.459 334.262 345.459 334.376C345.459 334.49 345.487 334.601 345.542 334.701C345.8 335.138 346.763 335.44 348.163 335.541C347.446 334.757 346.382 333.805 345.845 333.861H345.8Z" fill="#6ECD55"/>
<path d="M347.2 332.898C347.272 332.733 347.392 332.593 347.543 332.495C347.694 332.398 347.871 332.347 348.051 332.349C348.165 332.326 348.283 332.334 348.393 332.371C348.504 332.408 348.602 332.474 348.678 332.562C349.339 333.323 348.678 335.922 348.678 336.168C348.664 336.199 348.641 336.225 348.612 336.243C348.584 336.262 348.55 336.271 348.516 336.271C348.482 336.271 348.449 336.262 348.42 336.243C348.391 336.225 348.368 336.199 348.354 336.168C347.963 335.599 347.64 334.986 347.39 334.342C347.149 333.901 347.081 333.386 347.2 332.898V332.898ZM348.376 332.808C348.339 332.766 348.292 332.734 348.239 332.716C348.185 332.699 348.128 332.695 348.074 332.707C347.959 332.711 347.848 332.744 347.75 332.803C347.652 332.861 347.571 332.944 347.514 333.043C347.312 333.514 347.626 334.477 348.354 335.664C348.578 334.634 348.734 333.211 348.354 332.808H348.376Z" fill="#6ECD55"/>
<path d="M349.44 335.07L357.762 337.31C357.832 337.326 357.899 337.356 357.959 337.398C358.018 337.44 358.068 337.493 358.107 337.554C358.145 337.616 358.171 337.684 358.183 337.756C358.195 337.827 358.193 337.901 358.176 337.971V337.971L356.798 344.691C356.753 344.863 356.674 345.025 356.566 345.166C356.458 345.308 356.323 345.427 356.169 345.516C356.015 345.606 355.845 345.664 355.669 345.688C355.492 345.711 355.313 345.7 355.141 345.654C352.251 344.826 350.918 344.277 347.301 343.258C344.006 342.504 340.769 341.52 337.613 340.312C334.678 338.99 336.067 336.123 337.434 336.426C341.034 336.93 344.703 336.494 348.085 335.16C348.516 334.991 348.99 334.959 349.44 335.07Z" fill="#263238"/>
<path d="M410.48 256.872C410.48 256.872 417.57 268.587 418.891 305.682L414.68 306.275C414.68 306.275 409.371 276.976 404.499 266.336C399.627 255.696 410.48 256.872 410.48 256.872Z" fill="#E4897B"/>
<path d="M409.091 250.477C414.355 254.218 416.506 267.03 416.506 267.03L404.32 274.333C404.32 274.333 399.168 267.736 400.714 260.098C402.259 252.459 406.414 248.573 409.091 250.477Z" fill="#6ECD55"/>
<path d="M356.798 256.67C355.678 247.139 375.67 234.494 375.67 234.494L378.045 237.653C378.045 237.653 367.181 248.371 364.314 256.133L356.798 256.67Z" fill="#E4897B"/>
<path d="M373.498 236.387L378.258 231.056L385.616 231.112L386.882 236.365L373.867 240.352L373.498 236.387Z" fill="#E4897B"/>
<path d="M414.68 306.275C414.659 306.772 414.678 307.27 414.736 307.765C415.094 309.064 425.096 309.165 425.096 309.165L428.12 311.83L432.107 309.534C432.107 309.534 427.022 303.262 426.126 303.262C425.23 303.262 416.506 304.002 416.506 304.002L414.68 306.275Z" fill="#E4897B"/>
<path d="M347.894 281.949C347.603 282.352 346.674 281.534 347.301 282.912C347.928 284.29 347.357 283.853 346.629 283.842C345.901 283.83 345.374 285.118 344.747 284.738C344.616 284.657 344.47 284.605 344.318 284.583C344.166 284.562 344.011 284.572 343.863 284.613C343.714 284.654 343.576 284.725 343.457 284.821C343.337 284.918 343.239 285.038 343.168 285.174C342.955 285.701 342.227 286.35 341.566 285.634C340.906 284.917 339.987 286.014 339.181 285.466C338.758 285.225 338.379 284.915 338.061 284.547L339.002 284.178L339.797 283.875L340.054 283.786L340.458 283.651L341.858 283.158L342.978 282.778L343.963 282.475C344.4 282.33 344.848 282.206 345.296 282.072L346.662 281.725L347.782 281.467C347.917 281.602 348.029 281.77 347.894 281.949Z" fill="#6ECD55"/>
<path opacity="0.4" d="M347.894 281.949C347.603 282.352 346.674 281.534 347.301 282.912C347.928 284.29 347.357 283.853 346.629 283.842C345.901 283.83 345.374 285.118 344.747 284.738C344.616 284.657 344.47 284.605 344.318 284.583C344.166 284.562 344.011 284.572 343.863 284.613C343.714 284.654 343.576 284.725 343.457 284.821C343.337 284.918 343.239 285.038 343.168 285.174C342.955 285.701 342.227 286.35 341.566 285.634C340.906 284.917 339.987 286.014 339.181 285.466C338.758 285.225 338.379 284.915 338.061 284.547L339.002 284.178L339.797 283.875L340.054 283.786L340.458 283.651L341.858 283.158L342.978 282.778L343.963 282.475C344.4 282.33 344.848 282.206 345.296 282.072L346.662 281.725L347.782 281.467C347.917 281.602 348.029 281.77 347.894 281.949Z" fill="white"/>
<path d="M348.443 282.677L346.562 281.949L346.674 281.725L345.307 282.072L345.778 282.251L345.408 283.024L343.974 282.475L342.989 282.778L342.642 283.472L341.824 283.158L340.424 283.651L340.222 284.054L339.763 283.875L338.968 284.178L339.976 284.558L339.27 285.958C339.254 285.991 339.244 286.027 339.242 286.064C339.239 286.101 339.245 286.138 339.257 286.173C339.27 286.207 339.289 286.239 339.315 286.266C339.34 286.292 339.371 286.314 339.405 286.328C339.445 286.34 339.488 286.34 339.528 286.328C339.58 286.328 339.631 286.314 339.674 286.286C339.718 286.258 339.753 286.218 339.774 286.171L340.502 284.726L341.768 285.208L341.41 285.925C341.378 285.99 341.373 286.066 341.396 286.135C341.419 286.204 341.468 286.261 341.533 286.294H341.656C341.709 286.296 341.762 286.281 341.808 286.254C341.853 286.226 341.89 286.186 341.914 286.138L342.294 285.376L343.986 286.026H344.086C344.142 286.025 344.197 286.007 344.243 285.976C344.289 285.944 344.324 285.899 344.344 285.846C344.359 285.812 344.366 285.775 344.366 285.737C344.366 285.7 344.358 285.663 344.344 285.629C344.329 285.594 344.308 285.563 344.281 285.537C344.254 285.511 344.222 285.49 344.187 285.477L342.541 284.85L342.922 284.088L344.523 284.704L344.355 285.04C344.323 285.107 344.318 285.184 344.341 285.255C344.364 285.326 344.413 285.385 344.478 285.421H344.602C344.653 285.421 344.704 285.407 344.748 285.379C344.792 285.351 344.826 285.311 344.848 285.264L345.05 284.883L345.778 285.152C345.81 285.162 345.846 285.162 345.878 285.152C345.934 285.151 345.989 285.134 346.035 285.102C346.081 285.07 346.116 285.025 346.136 284.973C346.15 284.939 346.158 284.903 346.157 284.866C346.157 284.83 346.15 284.793 346.135 284.76C346.12 284.726 346.099 284.696 346.072 284.671C346.045 284.646 346.014 284.627 345.979 284.614L345.296 284.357L345.677 283.595L347.57 284.312H347.67C347.726 284.311 347.781 284.294 347.827 284.262C347.873 284.23 347.908 284.185 347.928 284.133C347.943 284.098 347.95 284.061 347.95 284.024C347.95 283.986 347.942 283.949 347.928 283.915C347.913 283.88 347.892 283.849 347.865 283.823C347.838 283.797 347.806 283.777 347.771 283.763L345.923 283.069L346.304 282.296L348.242 283.035C348.274 283.046 348.31 283.046 348.342 283.035C348.398 283.035 348.453 283.017 348.499 282.985C348.545 282.953 348.58 282.908 348.6 282.856C348.589 282.816 348.569 282.78 348.542 282.749C348.514 282.718 348.481 282.693 348.443 282.677V282.677ZM342.014 284.738L340.749 284.256L341.13 283.494L342.395 283.976L342.014 284.738ZM344.77 284.29L343.168 283.674L343.549 282.912L345.15 283.528L344.77 284.29Z" fill="#6ECD55"/>
<path d="M473.274 121.464C467.48 122.498 466.748 121.967 466.674 117.802C466.601 113.638 464.496 106.691 467.425 104.513C467.626 104.322 467.873 104.187 468.143 104.122C468.412 104.057 468.694 104.064 468.959 104.142C469.225 104.219 469.466 104.366 469.658 104.566C469.849 104.766 469.985 105.012 470.052 105.281C470.231 104.825 470.579 104.454 471.024 104.248C471.469 104.042 471.977 104.015 472.441 104.174C472.56 103.313 472.697 101.108 474.271 100.513C475.846 99.9178 477.292 101.346 477.292 101.346C477.292 101.346 477.173 97.9499 479.461 98.2794C480.144 98.3886 480.779 98.7011 481.281 99.1762C481.784 99.6514 482.132 100.267 482.28 100.943C482.28 100.943 483.598 99.0208 485.383 99.7805C487.168 100.54 486.792 102.773 486.792 102.773C486.792 102.773 488.687 101.858 490.097 102.892C491.506 103.927 490.481 105.583 490.481 105.583C490.481 105.583 491.762 102.288 494.206 104.11C496.403 105.757 494.408 108.338 494.408 108.338C494.408 108.338 496.824 107.945 497.41 109.162C499.387 113.308 491.854 117.94 491.607 124.942C480.038 129.317 473.274 121.464 473.274 121.464Z" fill="#263238"/>
<path d="M431.518 232.744L427.656 232.03L422.549 236.908C422.271 237.173 422.051 237.493 421.905 237.848C421.758 238.203 421.687 238.584 421.697 238.968L421.771 242.958C421.78 243.641 422.042 244.295 422.508 244.795C422.973 245.294 423.608 245.602 424.288 245.659L426.063 245.814C426.709 245.875 427.356 245.706 427.889 245.335C428.421 244.965 428.806 244.418 428.974 243.791L429.889 240.533C429.889 240.533 434.932 234.574 431.518 232.744Z" fill="#E4897B"/>
<path d="M470.528 159.759C467.938 166.468 465.356 173.205 462.867 179.959C460.377 186.714 457.906 193.497 455.59 200.169L455.178 201.405L454.895 202.21C454.785 202.512 454.675 202.823 454.574 203.061C454.144 204.15 453.714 205.047 453.284 205.954C452.423 207.784 451.554 209.422 450.675 211.079C448.909 214.374 447.087 217.55 445.248 220.717C441.586 227.06 437.925 233.256 434.136 239.544L422.484 232.295C426.329 226.319 430.036 220.15 433.587 213.99C435.335 210.896 437.056 207.793 438.658 204.718C439.454 203.18 440.223 201.643 440.9 200.141C441.22 199.418 441.541 198.677 441.751 198.073C441.824 197.899 441.852 197.78 441.898 197.661L442.044 197.185L442.465 195.849C444.671 188.819 446.987 182.028 449.22 175.136L455.92 154.533L470.528 159.759Z" fill="#6ECD55"/>
<path opacity="0.6" d="M470.528 159.759C467.938 166.468 465.356 173.205 462.867 179.959C460.377 186.714 457.906 193.497 455.59 200.169L455.178 201.405L454.895 202.21C454.785 202.512 454.675 202.823 454.574 203.061C454.144 204.15 453.714 205.047 453.284 205.954C452.423 207.784 451.554 209.422 450.675 211.079C448.909 214.374 447.087 217.55 445.248 220.717C441.586 227.06 437.925 233.256 434.136 239.544L422.484 232.295C426.329 226.319 430.036 220.15 433.587 213.99C435.335 210.896 437.056 207.793 438.658 204.718C439.454 203.18 440.223 201.643 440.9 200.141C441.22 199.418 441.541 198.677 441.751 198.073C441.824 197.899 441.852 197.78 441.898 197.661L442.044 197.185L442.465 195.849C444.671 188.819 446.987 182.028 449.22 175.136L455.92 154.533L470.528 159.759Z" fill="white"/>
<path d="M435.619 404.735L427.409 405.138L431.29 383.757L439.097 385.551L435.619 404.735Z" fill="#E4897B"/>
<path d="M494.517 405.046H486.307L486.335 386.036H494.536L494.517 405.046Z" fill="#E4897B"/>
<path d="M485.529 404.094H495.533C495.694 404.092 495.851 404.147 495.975 404.249C496.099 404.351 496.182 404.494 496.211 404.653L497.529 411.975C497.558 412.156 497.547 412.341 497.498 412.518C497.448 412.695 497.36 412.858 497.241 412.998C497.122 413.137 496.974 413.249 496.807 413.325C496.64 413.401 496.458 413.44 496.275 413.439C493.053 413.385 490.71 413.192 486.655 413.192C484.165 413.192 476.587 413.449 473.182 413.449C469.777 413.449 469.429 410.044 470.848 409.733C477.255 408.35 482.079 406.447 484.175 404.625C484.546 404.289 485.028 404.1 485.529 404.094V404.094Z" fill="#263238"/>
<path opacity="0.2" d="M431.289 383.766L429.496 393.651L437.303 395.445L439.097 385.56L431.289 383.766Z" fill="black"/>
<path opacity="0.2" d="M494.536 386.036H486.326V395.829H494.536V386.036Z" fill="black"/>
<path d="M501.144 159.521C494.737 188.343 496.439 216.79 495.753 222.95L451.938 220.058C447.362 185.277 452.469 163.091 455.371 153.993C455.842 152.491 456.734 151.156 457.941 150.145C459.148 149.135 460.619 148.491 462.18 148.291C468.696 147.576 475.257 147.371 481.804 147.677C486.237 147.943 490.636 148.61 494.948 149.673C497.074 150.159 498.92 151.469 500.082 153.316C501.244 155.162 501.626 157.394 501.144 159.521V159.521Z" fill="#6ECD55"/>
<path d="M487.936 128.145C486.49 133.573 484.779 143.183 487.534 148.043C487.964 148.803 487.14 149.453 487.104 150.332C487.003 153.023 483.36 153.828 476.843 153.865C470.326 153.901 467.535 151.183 469.31 148.62C469.583 148.229 469.996 147.96 470.464 147.87C476.569 146.506 476.688 141.719 475.855 137.152L487.936 128.145Z" fill="#E4897B"/>
<path opacity="0.4" d="M476.376 152.373C478.088 154.753 479.174 157.526 479.534 160.436C486.042 157.379 489.145 149.956 489.145 149.956L487.186 147.86C487.186 147.86 479.955 149.224 476.376 152.373Z" fill="black"/>
<path opacity="0.4" d="M475.736 152.4C473.34 154.351 471.318 156.72 469.768 159.393C465.219 156.574 466.72 148.538 466.72 148.538L470.427 147.805C470.427 147.805 472.084 149.334 475.736 152.4Z" fill="black"/>
<path d="M476.029 152.199L474.628 152.336L472.258 153.901C472.107 154.844 472.274 155.81 472.734 156.647C474.111 156.916 475.516 157.011 476.916 156.931C477.856 156.477 478.605 155.705 479.031 154.752L477.292 152.528L476.029 152.199Z" fill="#263238"/>
<path d="M476.029 152.199C477.787 154.4 479.136 156.898 480.01 159.576C486.518 156.519 490.307 149.215 490.307 149.215L487.168 146.469C487.168 146.469 479.607 149.069 476.029 152.199Z" fill="#6ECD55"/>
<path d="M476.029 152.199C473.517 153.784 471.32 155.819 469.548 158.203C464.972 155.393 466.72 147.824 466.72 147.824L470.427 147.092C470.427 147.092 472.386 149.151 476.029 152.199Z" fill="#6ECD55"/>
<path opacity="0.2" d="M483.012 131.815L475.873 137.142C476.089 138.243 476.209 139.361 476.23 140.483C478.802 140.291 482.5 137.737 482.948 135.065C483.163 133.994 483.185 132.894 483.012 131.815V131.815Z" fill="black"/>
<path d="M489.245 119.175C488.211 127.257 488.019 131.989 483.644 135.934C477.063 141.783 467.297 137.408 465.896 129.179C464.633 121.775 466.537 109.803 474.692 107.103C476.488 106.498 478.408 106.362 480.271 106.708C482.134 107.054 483.878 107.871 485.336 109.08C486.794 110.29 487.919 111.853 488.603 113.62C489.287 115.386 489.508 117.299 489.245 119.175V119.175Z" fill="#E4897B"/>
<path d="M487.268 126.479C485.438 124.713 486.582 116.256 487.506 113.83C482.93 114.269 468.139 114.251 468.697 110.169C469.256 106.087 474.637 102.618 483.433 105.483C490.756 107.872 492.586 111.524 492.586 114.507C492.696 120.64 487.268 126.479 487.268 126.479Z" fill="#263238"/>
<path d="M492.083 126.571C491.213 128.232 489.728 129.487 487.946 130.067C485.612 130.79 484.458 128.639 485.117 126.333C485.703 124.264 487.634 121.381 489.968 121.674C492.302 121.967 493.154 124.511 492.083 126.571Z" fill="#E4897B"/>
<path d="M426.823 391.143L440.397 394.136C440.397 394.136 453.595 342.413 457.512 317.133C458.711 309.445 461.494 298.471 464.029 286.929C467.224 272.376 471.242 256.633 474.537 244.304C478.015 231.316 480.596 221.98 480.596 221.98L451.938 220.086C451.938 220.086 438.603 287.734 435.912 312.639C433.102 338.523 426.823 391.143 426.823 391.143Z" fill="#263238"/>
<path opacity="0.2" d="M464.029 286.91C467.224 272.357 471.242 256.615 474.537 244.286L471.525 237.879C464.414 246.372 462.592 272.65 464.029 286.91Z" fill="black"/>
<path d="M465.594 220.964C465.594 220.964 471.525 290.096 473.832 314.03C476.395 340.244 483.269 393.944 483.269 393.944H497.053C497.053 393.944 497.675 336.757 495.222 311.44C494.874 261.667 495.744 222.96 495.744 222.96L465.594 220.964Z" fill="#263238"/>
<path d="M481.511 394.264H499.213V388.974L480.825 387.958L481.511 394.264Z" fill="#6ECD55"/>
<path d="M425.047 391.088L441.22 394.658L442.374 389.431L425.441 385.166L425.047 391.088Z" fill="#6ECD55"/>
<path d="M477.429 120.622C477.429 121.281 476.999 121.793 476.569 121.766C476.138 121.738 475.818 121.18 475.864 120.521C475.91 119.862 476.294 119.349 476.724 119.377C477.154 119.404 477.475 119.963 477.429 120.622Z" fill="#263238"/>
<path d="M469.96 120.164C469.96 120.823 469.53 121.335 469.1 121.308C468.67 121.281 468.349 120.722 468.395 120.063C468.441 119.404 468.825 118.892 469.256 118.919C469.686 118.947 470.006 119.468 469.96 120.164Z" fill="#263238"/>
<path d="M471.672 120.622C470.749 122.585 469.564 124.414 468.148 126.058C469.237 127.23 471.26 126.864 471.26 126.864L471.672 120.622Z" fill="#ED893E"/>
<path d="M473.933 128.813C474.674 128.771 475.4 128.58 476.065 128.249C476.731 127.919 477.322 127.457 477.804 126.891C477.838 126.855 477.857 126.808 477.857 126.758C477.857 126.709 477.838 126.662 477.804 126.626C477.767 126.591 477.718 126.572 477.667 126.572C477.616 126.572 477.567 126.591 477.53 126.626C476.986 127.246 476.305 127.73 475.54 128.038C474.775 128.347 473.949 128.471 473.127 128.401C473.102 128.399 473.076 128.401 473.052 128.409C473.028 128.416 473.005 128.428 472.986 128.444C472.966 128.461 472.95 128.481 472.938 128.503C472.926 128.525 472.919 128.55 472.917 128.575C472.914 128.627 472.932 128.678 472.966 128.717C473 128.757 473.048 128.781 473.1 128.786C473.377 128.812 473.655 128.821 473.933 128.813V128.813Z" fill="#263238"/>
<path d="M479.25 118.333C479.315 118.326 479.378 118.304 479.433 118.269C479.52 118.213 479.582 118.125 479.604 118.024C479.626 117.923 479.608 117.817 479.552 117.729C479.226 117.203 478.778 116.762 478.246 116.443C477.714 116.125 477.114 115.938 476.495 115.899C476.402 115.913 476.318 115.96 476.257 116.031C476.195 116.103 476.162 116.194 476.162 116.288C476.162 116.382 476.195 116.473 476.257 116.544C476.318 116.615 476.402 116.662 476.495 116.677C476.984 116.713 477.457 116.864 477.875 117.119C478.294 117.374 478.646 117.724 478.903 118.141C478.937 118.202 478.987 118.253 479.049 118.287C479.11 118.321 479.18 118.337 479.25 118.333V118.333Z" fill="#263238"/>
<path d="M466.272 117.354C466.335 117.35 466.397 117.33 466.451 117.296C466.505 117.263 466.55 117.217 466.583 117.162C466.816 116.736 467.147 116.372 467.548 116.099C467.949 115.825 468.408 115.65 468.889 115.587C468.991 115.578 469.086 115.53 469.154 115.454C469.222 115.377 469.258 115.278 469.256 115.176C469.248 115.073 469.201 114.977 469.124 114.908C469.047 114.84 468.947 114.804 468.844 114.809C468.229 114.884 467.641 115.105 467.13 115.453C466.619 115.802 466.199 116.269 465.906 116.814C465.856 116.903 465.844 117.007 465.871 117.105C465.899 117.203 465.964 117.286 466.052 117.336C466.121 117.367 466.199 117.373 466.272 117.354Z" fill="#263238"/>
<path d="M482.756 405.522C483.485 405.505 484.209 405.406 484.916 405.229C484.953 405.221 484.987 405.201 485.013 405.174C485.039 405.146 485.056 405.111 485.063 405.074C485.072 405.038 485.071 405 485.057 404.966C485.044 404.931 485.02 404.902 484.989 404.881C484.696 404.689 482.115 403.051 481.182 403.527C481.081 403.58 480.995 403.658 480.934 403.755C480.873 403.851 480.839 403.962 480.834 404.076C480.801 404.265 480.817 404.458 480.88 404.639C480.942 404.82 481.049 404.982 481.191 405.11C481.649 405.424 482.202 405.57 482.756 405.522V405.522ZM484.358 404.955C482.957 405.238 481.886 405.183 481.456 404.808C481.359 404.722 481.286 404.611 481.244 404.487C481.202 404.364 481.193 404.231 481.218 404.103C481.218 403.957 481.292 403.902 481.346 403.875C481.832 403.637 483.314 404.332 484.358 404.955Z" fill="#6ECD55"/>
<path d="M484.87 405.238C484.903 405.251 484.939 405.251 484.971 405.238C485.002 405.222 485.028 405.196 485.046 405.166C485.064 405.135 485.073 405.1 485.072 405.065C485.072 404.964 484.971 402.593 484.047 401.815C483.935 401.717 483.804 401.645 483.662 401.602C483.519 401.559 483.37 401.548 483.223 401.568V401.568C483.076 401.569 482.934 401.618 482.819 401.71C482.705 401.801 482.624 401.929 482.591 402.072C482.381 402.987 483.946 404.817 484.779 405.248C484.81 405.254 484.841 405.251 484.87 405.238V405.238ZM483.351 401.907C483.514 401.908 483.67 401.97 483.79 402.081C484.376 402.575 484.587 403.957 484.651 404.653C483.836 404.012 482.82 402.648 482.967 402.108C482.967 402.062 482.967 401.943 483.259 401.916H483.351V401.907Z" fill="#6ECD55"/>
<path d="M426.182 401.522L435.811 404.268C435.965 404.312 436.098 404.409 436.188 404.541C436.279 404.673 436.32 404.832 436.305 404.991L435.591 412.378C435.568 412.559 435.506 412.734 435.409 412.889C435.312 413.045 435.183 413.177 435.03 413.278C434.877 413.379 434.704 413.446 434.523 413.473C434.342 413.501 434.157 413.49 433.98 413.439C430.896 412.524 428.699 411.691 424.828 410.584C422.43 409.906 414.622 407.106 411.776 405.165C408.929 403.225 410.604 400.232 411.95 400.781C418 403.234 422.256 402.84 424.764 401.696C425.201 401.472 425.704 401.411 426.182 401.522V401.522Z" fill="#263238"/>
<path d="M423.116 402.145C423.824 402.321 424.548 402.422 425.276 402.447C425.315 402.449 425.355 402.44 425.389 402.421C425.423 402.401 425.451 402.372 425.468 402.337C425.49 402.306 425.502 402.269 425.502 402.232C425.502 402.194 425.49 402.157 425.468 402.127C425.24 401.87 423.198 399.6 422.182 399.793C422.069 399.817 421.965 399.871 421.878 399.948C421.792 400.025 421.726 400.123 421.688 400.232C421.609 400.403 421.573 400.592 421.585 400.78C421.596 400.968 421.653 401.151 421.752 401.312C422.101 401.734 422.581 402.027 423.116 402.145V402.145ZM424.818 402.035C423.391 401.925 422.375 401.577 422.073 401.12C422.011 401.006 421.979 400.878 421.979 400.749C421.979 400.62 422.011 400.492 422.073 400.378C422.128 400.232 422.201 400.204 422.265 400.195C422.787 400.076 423.976 401.156 424.818 402.072V402.035Z" fill="#6ECD55"/>
<path d="M425.23 402.438C425.266 402.447 425.304 402.447 425.34 402.438C425.376 402.429 425.408 402.411 425.434 402.385C425.459 402.359 425.478 402.327 425.487 402.291C425.487 402.2 426.054 399.893 425.386 398.886C425.304 398.764 425.198 398.66 425.073 398.581C424.948 398.502 424.809 398.45 424.663 398.429V398.429C424.521 398.389 424.37 398.399 424.234 398.455C424.098 398.511 423.985 398.612 423.912 398.74C423.455 399.564 424.48 401.724 425.148 402.401C425.172 402.42 425.2 402.433 425.23 402.438V402.438ZM424.672 398.822C424.829 398.866 424.963 398.967 425.047 399.106C425.487 399.747 425.304 401.138 425.185 401.852C424.571 401.019 423.986 399.436 424.269 398.95C424.269 398.905 424.352 398.804 424.608 398.841L424.672 398.822Z" fill="#6ECD55"/>
<path d="M488.074 147.33C487.976 147.314 487.877 147.321 487.782 147.349C487.688 147.378 487.601 147.428 487.529 147.495C487.457 147.562 487.401 147.644 487.365 147.736C487.329 147.828 487.315 147.927 487.323 148.025C487.644 152.931 480.001 161.754 478.17 188.179C477.081 204.251 476.084 254.363 476.816 280.43C476.826 280.772 476.915 281.107 477.075 281.41C477.234 281.713 477.461 281.975 477.737 282.177C478.013 282.379 478.332 282.516 478.668 282.576C479.005 282.637 479.351 282.62 479.681 282.526C493.19 278.755 499.57 287.899 502.169 277.117C502.032 264.202 498.124 217.834 499.13 206.841C500.137 195.849 504.32 165.983 505.364 158.02C506.288 151.1 491.854 148.016 488.074 147.33Z" fill="#6ECD55"/>
<path opacity="0.7" d="M488.074 147.33C487.976 147.314 487.877 147.321 487.782 147.349C487.688 147.378 487.601 147.428 487.529 147.495C487.457 147.562 487.401 147.644 487.365 147.736C487.329 147.828 487.315 147.927 487.323 148.025C487.644 152.931 480.001 161.754 478.17 188.179C477.081 204.251 476.084 254.363 476.816 280.43C476.826 280.772 476.915 281.107 477.075 281.41C477.234 281.713 477.461 281.975 477.737 282.177C478.013 282.379 478.332 282.516 478.668 282.576C479.005 282.637 479.351 282.62 479.681 282.526C493.19 278.755 499.57 287.899 502.169 277.117C502.032 264.202 498.124 217.834 499.13 206.841C500.137 195.849 504.32 165.983 505.364 158.02C506.288 151.1 491.854 148.016 488.074 147.33Z" fill="white"/>
<path opacity="0.2" d="M496.98 169.727C496.385 173.809 496.156 190.302 500.082 198.238C500.741 192.746 501.602 186.22 502.435 179.932L496.98 169.727Z" fill="#6ECD55"/>
<path d="M502.59 241.055L498.691 241.512L495.24 247.672C495.051 248.006 494.934 248.375 494.896 248.756C494.858 249.138 494.901 249.523 495.021 249.887L496.266 253.676C496.477 254.325 496.922 254.872 497.514 255.21C498.106 255.548 498.803 255.654 499.469 255.507L501.208 255.141C501.847 255.011 502.419 254.658 502.822 254.145C503.224 253.631 503.431 252.992 503.405 252.34L503.295 248.972C503.295 248.972 506.389 241.824 502.59 241.055Z" fill="#E4897B"/>
<path d="M504.732 154.945C505.977 158.606 507.13 162.221 508.274 165.882C509.418 169.544 510.562 173.205 511.642 176.866C512.722 180.527 513.766 184.27 514.727 188.087C515.203 190 515.642 191.931 516.063 193.954C516.255 194.97 516.448 196.004 516.603 197.103C516.676 197.67 516.759 198.192 516.805 198.823L516.887 199.739L516.933 200.773C516.951 201.121 516.951 201.469 516.933 201.816C516.933 202.183 516.933 202.53 516.887 202.814L516.805 203.729L516.704 204.553C516.576 205.661 516.411 206.667 516.246 207.674C515.917 209.67 515.532 211.592 515.139 213.495C514.352 217.303 513.473 221.028 512.585 224.735C511.697 228.442 510.755 232.14 509.839 235.828L507.093 246.894L493.84 243.297C495.89 236.149 497.757 228.872 499.487 221.642C500.329 217.98 501.117 214.392 501.821 210.814C502.169 208.983 502.499 207.244 502.737 205.523C502.874 204.663 502.984 203.812 503.057 203.043C503.128 202.436 503.153 201.824 503.13 201.212V200.828L503.066 200.334C503.066 200.022 502.956 199.611 502.901 199.254C502.773 198.485 502.609 197.67 502.425 196.837C502.05 195.171 501.602 193.451 501.117 191.721C500.201 188.252 499.039 184.737 497.858 181.241C495.524 174.248 492.897 167.21 490.188 160.363L504.732 154.945Z" fill="#6ECD55"/>
<path opacity="0.7" d="M504.732 154.945C505.977 158.606 507.13 162.221 508.274 165.882C509.418 169.544 510.562 173.205 511.642 176.866C512.722 180.527 513.766 184.27 514.727 188.087C515.203 190 515.642 191.931 516.063 193.954C516.255 194.97 516.448 196.004 516.603 197.103C516.676 197.67 516.759 198.192 516.805 198.823L516.887 199.739L516.933 200.773C516.951 201.121 516.951 201.469 516.933 201.816C516.933 202.183 516.933 202.53 516.887 202.814L516.805 203.729L516.704 204.553C516.576 205.661 516.411 206.667 516.246 207.674C515.917 209.67 515.532 211.592 515.139 213.495C514.352 217.303 513.473 221.028 512.585 224.735C511.697 228.442 510.755 232.14 509.839 235.828L507.093 246.894L493.84 243.297C495.89 236.149 497.757 228.872 499.487 221.642C500.329 217.98 501.117 214.392 501.821 210.814C502.169 208.983 502.499 207.244 502.737 205.523C502.874 204.663 502.984 203.812 503.057 203.043C503.128 202.436 503.153 201.824 503.13 201.212V200.828L503.066 200.334C503.066 200.022 502.956 199.611 502.901 199.254C502.773 198.485 502.609 197.67 502.425 196.837C502.05 195.171 501.602 193.451 501.117 191.721C500.201 188.252 499.039 184.737 497.858 181.241C495.524 174.248 492.897 167.21 490.188 160.363L504.732 154.945Z" fill="white"/>
<path d="M470.272 146.643C470.473 146.642 470.67 146.697 470.841 146.804C471.012 146.91 471.149 147.063 471.236 147.244C471.323 147.425 471.357 147.628 471.334 147.828C471.311 148.027 471.231 148.217 471.104 148.373C468.926 150.899 467.553 154.368 464.972 165.498C461.86 178.925 455.233 246.482 453.989 279.588C453.982 279.863 453.917 280.134 453.796 280.381C453.675 280.628 453.502 280.846 453.289 281.02C453.076 281.194 452.828 281.32 452.561 281.389C452.295 281.458 452.017 281.468 451.746 281.419C445.284 280.229 440.854 283.359 440.149 279.213C439.372 274.636 442.273 230.922 447.701 210.365C446.849 192.133 449.925 155.558 456.066 150.698C459.398 147.998 466.482 146.707 470.272 146.643Z" fill="#6ECD55"/>
<path opacity="0.7" d="M470.272 146.643C470.473 146.642 470.67 146.697 470.841 146.804C471.012 146.91 471.149 147.063 471.236 147.244C471.323 147.425 471.357 147.628 471.334 147.828C471.311 148.027 471.231 148.217 471.104 148.373C468.926 150.899 467.553 154.368 464.972 165.498C461.86 178.925 455.233 246.482 453.989 279.588C453.982 279.863 453.917 280.134 453.796 280.381C453.675 280.628 453.502 280.846 453.289 281.02C453.076 281.194 452.828 281.32 452.561 281.389C452.295 281.458 452.017 281.468 451.746 281.419C445.284 280.229 440.854 283.359 440.149 279.213C439.372 274.636 442.273 230.922 447.701 210.365C446.849 192.133 449.925 155.558 456.066 150.698C459.398 147.998 466.482 146.707 470.272 146.643Z" fill="white"/>
<path d="M473.832 155.714C473.832 155.714 465.924 177.927 463.141 196.544C462.922 201.606 465.329 211.409 467.279 215.683C471.352 206.814 473.896 201.588 474.299 196.544C474.949 188.957 476.02 155.86 476.02 155.86L473.832 155.714Z" fill="#263238"/>
<path d="M490.38 182.138C490.3 182.135 490.223 182.106 490.161 182.056C490.099 182.005 490.055 181.935 490.036 181.857C490.018 181.779 490.025 181.697 490.057 181.624C490.09 181.551 490.145 181.49 490.216 181.451L491.717 180.664C493.118 179.943 494.266 178.813 495.009 177.423C495.751 176.033 496.052 174.45 495.872 172.884L494.243 158.13C494.123 157.03 493.636 156.003 492.86 155.213C492.085 154.424 491.066 153.919 489.969 153.78C488.871 153.64 487.759 153.874 486.811 154.444C485.862 155.014 485.134 155.887 484.742 156.922L479.47 170.788C478.902 172.258 478.795 173.865 479.163 175.397C479.531 176.929 480.356 178.313 481.529 179.364L482.793 180.509C482.86 180.577 482.897 180.669 482.897 180.765C482.897 180.861 482.86 180.953 482.793 181.021C482.724 181.088 482.632 181.126 482.536 181.126C482.44 181.126 482.348 181.088 482.28 181.021L481.017 179.886C479.739 178.732 478.842 177.217 478.445 175.542C478.047 173.866 478.169 172.109 478.793 170.505L484.111 156.665C484.565 155.483 485.402 154.487 486.49 153.838C487.577 153.188 488.851 152.922 490.107 153.082C491.364 153.243 492.53 153.82 493.419 154.722C494.308 155.624 494.869 156.798 495.012 158.057L496.641 172.802C496.834 174.518 496.499 176.252 495.681 177.772C494.864 179.293 493.602 180.529 492.064 181.314L490.563 182.092C490.509 182.127 490.445 182.143 490.38 182.138V182.138Z" fill="#263238"/>
<path d="M494.92 161.352C494.833 161.352 494.748 161.321 494.683 161.264C494.617 161.206 494.574 161.127 494.563 161.041C494.35 159.854 493.748 158.772 492.851 157.966C491.954 157.161 490.814 156.677 489.611 156.592C487.58 156.336 484.815 156.977 483.708 159.649C483.692 159.697 483.667 159.74 483.633 159.777C483.6 159.815 483.559 159.845 483.514 159.865C483.468 159.886 483.419 159.898 483.369 159.899C483.319 159.9 483.27 159.891 483.223 159.872C483.177 159.853 483.135 159.825 483.1 159.79C483.065 159.754 483.037 159.712 483.019 159.665C483.001 159.618 482.993 159.569 482.995 159.519C482.997 159.469 483.009 159.42 483.031 159.375C483.649 158.178 484.621 157.2 485.815 156.574C487.008 155.948 488.365 155.704 489.701 155.874C491.038 156.045 492.29 156.623 493.287 157.529C494.284 158.435 494.979 159.626 495.277 160.94C495.29 161.033 495.266 161.128 495.209 161.203C495.153 161.279 495.068 161.329 494.975 161.343L494.92 161.352Z" fill="#263238"/>
<path d="M489.996 153.782C489.948 153.78 489.901 153.768 489.858 153.747C489.815 153.727 489.777 153.698 489.745 153.662C489.714 153.626 489.69 153.584 489.674 153.539C489.659 153.493 489.653 153.446 489.657 153.398C489.767 151.613 489.511 148.364 487.827 147.522C487.74 147.477 487.676 147.4 487.646 147.307C487.617 147.214 487.626 147.114 487.671 147.027C487.716 146.941 487.793 146.877 487.886 146.847C487.979 146.818 488.079 146.827 488.165 146.872C490.6 148.126 490.38 152.904 490.344 153.444C490.339 153.534 490.301 153.618 490.236 153.681C490.172 153.744 490.086 153.78 489.996 153.782V153.782Z" fill="#263238"/>
<path d="M483.36 180.875C483.269 181.561 482.838 182.065 482.39 182C481.941 181.936 481.648 181.351 481.74 180.673C481.832 179.996 482.253 179.483 482.701 179.548C483.15 179.612 483.442 180.197 483.36 180.875Z" fill="#263238"/>
<path d="M462.08 166.038C461.503 167.493 460.249 168.372 459.334 167.997C458.419 167.621 458.062 166.166 458.638 164.674C459.215 163.182 460.469 162.34 461.384 162.715C462.299 163.091 462.647 164.583 462.08 166.038Z" fill="#263238"/>
<path d="M459.068 165.095H458.995C458.901 165.075 458.818 165.019 458.765 164.938C458.712 164.858 458.692 164.76 458.711 164.665C459.92 158.652 464.917 149.105 469.32 146.359C469.36 146.325 469.406 146.299 469.457 146.285C469.508 146.27 469.561 146.267 469.613 146.274C469.665 146.282 469.715 146.301 469.759 146.33C469.804 146.359 469.841 146.397 469.869 146.442C469.897 146.487 469.915 146.537 469.922 146.589C469.929 146.642 469.924 146.695 469.908 146.745C469.893 146.796 469.866 146.842 469.831 146.881C469.796 146.92 469.752 146.952 469.704 146.973C465.448 149.654 460.606 158.871 459.425 164.793C459.41 164.877 459.367 164.953 459.301 165.009C459.236 165.064 459.154 165.094 459.068 165.095V165.095Z" fill="#263238"/>
<path d="M463.123 166.34C462.702 167.594 461.622 168.372 460.707 168.07C459.791 167.768 459.38 166.496 459.791 165.232C460.203 163.969 461.293 163.201 462.208 163.503C463.123 163.805 463.544 165.077 463.123 166.34Z" fill="white"/>
<path d="M463.187 166.468C462.629 168.015 461.595 169.068 460.89 168.811C460.185 168.555 460.066 167.091 460.634 165.535C461.201 163.979 462.226 162.935 462.931 163.191C463.636 163.448 463.755 164.912 463.187 166.468Z" fill="#263238"/>
<path d="M491.195 181.882C491.113 182.559 490.673 183.062 490.225 183.007C489.776 182.952 489.483 182.348 489.575 181.671C489.666 180.994 490.097 180.49 490.545 180.545C490.994 180.6 491.286 181.195 491.195 181.882Z" fill="#263238"/>
<path d="M282.386 252.403C284.502 257.376 286.686 262.483 288.915 267.366C290.035 269.797 291.155 272.238 292.41 274.389C292.921 275.327 293.489 276.232 294.112 277.099C294.224 277.234 294.302 277.323 294.291 277.346C294.26 277.314 294.221 277.291 294.179 277.278C294.031 277.19 293.873 277.118 293.709 277.066C293.194 276.92 293.485 277.066 293.843 277.066C294.916 277.089 295.988 277.014 297.046 276.842C298.256 276.674 299.533 276.427 300.821 276.147C303.408 275.61 306.04 274.915 308.661 274.21C313.925 272.754 319.29 271.186 324.576 269.606L326.816 274.971C321.832 277.74 316.698 280.23 311.438 282.43C308.795 283.55 306.096 284.558 303.285 285.499C301.874 285.947 300.429 286.373 298.906 286.742C297.23 287.171 295.515 287.43 293.787 287.515C292.429 287.586 291.07 287.388 289.789 286.933C289.298 286.751 288.825 286.522 288.378 286.25L287.84 285.88L287.392 285.544C286.927 285.164 286.486 284.757 286.07 284.323C284.895 283.053 283.834 281.681 282.901 280.224C281.277 277.718 279.781 275.132 278.421 272.474C275.793 267.379 273.445 262.144 271.387 256.794L282.386 252.403Z" fill="#E4897B"/>
<path d="M327.309 268.33L335.149 267.21L330.333 275.744C330.333 275.744 324.15 275.666 322.291 272.115L322.784 271.309C323.265 270.504 323.922 269.817 324.705 269.301C325.489 268.786 326.379 268.453 327.309 268.33V268.33Z" fill="#E4897B"/>
<path d="M341.914 269.707L339.002 277.379L330.378 275.733L335.205 267.198L341.914 269.707Z" fill="#E4897B"/>
<path d="M239.826 229.398C239.826 229.398 261.61 230.238 281.971 250.522C281.971 250.522 271.622 280.246 261.811 294.325L220.058 287.258C220.058 287.258 232.131 267.87 239.826 229.398Z" fill="#263238"/>
<path d="M193.581 388.718L228.234 387.453L221.939 400.176L187.107 393.814L193.581 388.718Z" fill="#EBB376"/>
<path d="M197.389 388.102C197.982 388.786 189.336 395.685 189.336 395.685C189.336 395.685 179.659 395.147 173.734 398.44C167.81 401.733 167.877 396.323 173.331 391.362L186.827 379.042C190.702 375.558 191.285 381.058 197.389 388.102Z" fill="#263238"/>
<path d="M194.488 391.25H194.611H194.701L194.779 391.306L194.846 391.406C194.902 391.53 195.966 394.05 195.25 395.506C195.144 395.735 194.989 395.939 194.795 396.102C194.601 396.264 194.374 396.382 194.13 396.446C193.944 396.527 193.738 396.55 193.539 396.514C193.34 396.478 193.156 396.385 193.01 396.245C192.651 395.797 192.842 394.834 193.178 393.87C192.658 394.54 191.959 395.049 191.162 395.338C191.002 395.377 190.837 395.384 190.675 395.357C190.513 395.33 190.358 395.27 190.221 395.181C190.031 395.081 189.875 394.928 189.77 394.741C189.665 394.555 189.615 394.342 189.627 394.128C189.711 393.791 189.904 393.492 190.176 393.277C191.485 392.357 192.944 391.671 194.488 391.25ZM193.872 392.067C192.203 392.65 190.299 393.557 190.198 394.229C190.198 394.285 190.198 394.464 190.534 394.71C190.607 394.755 190.689 394.784 190.774 394.796C190.859 394.808 190.945 394.801 191.027 394.778C191.454 394.645 191.839 394.406 192.147 394.083C192.786 393.469 193.364 392.794 193.872 392.067ZM194.723 395.27C194.982 394.267 194.912 393.207 194.522 392.246C193.726 393.803 193.144 395.506 193.402 395.886C193.491 396.01 193.782 395.886 193.939 395.886C194.111 395.838 194.268 395.75 194.398 395.629C194.528 395.531 194.638 395.409 194.723 395.27V395.27Z" fill="#6ECD55"/>
<path d="M201.186 396.917L208.331 379.344L230.518 381.382L227.931 402.013L201.186 396.917Z" fill="#6ECD55"/>
<path opacity="0.2" d="M201.186 396.917L208.331 379.344L230.518 381.382L227.931 402.013L201.186 396.917Z" fill="black"/>
<path d="M176.333 392.706L210.986 391.44L204.68 404.163L169.859 397.802L176.333 392.706Z" fill="#EBB376"/>
<path d="M180.141 392.09C180.734 392.773 172.088 399.672 172.088 399.672C172.088 399.672 162.411 399.134 156.486 402.427C150.562 405.72 150.618 400.31 156.083 395.349L169.523 383.029C173.454 379.546 174.037 385.045 180.141 392.09Z" fill="#263238"/>
<path d="M170.24 399.448H170.352C170.352 399.448 170.419 399.448 170.442 399.448H170.52C170.55 399.476 170.573 399.511 170.587 399.549C170.643 399.683 171.707 402.192 170.99 403.659C170.884 403.887 170.728 404.089 170.535 404.25C170.341 404.41 170.114 404.526 169.87 404.589C169.686 404.677 169.479 404.705 169.278 404.669C169.077 404.632 168.892 404.534 168.75 404.387C168.381 403.939 168.571 402.976 168.918 402.024C168.395 402.69 167.697 403.198 166.902 403.491C166.743 403.53 166.578 403.535 166.416 403.508C166.254 403.482 166.1 403.422 165.962 403.334C165.772 403.234 165.616 403.082 165.511 402.895C165.405 402.708 165.356 402.495 165.368 402.282C165.449 401.946 165.638 401.647 165.906 401.43C167.226 400.526 168.692 399.855 170.24 399.448V399.448ZM169.613 400.266C167.944 400.848 166.04 401.766 165.939 402.427C165.939 402.494 165.939 402.662 166.275 402.909C166.349 402.956 166.432 402.987 166.519 403.001C166.606 403.014 166.694 403.009 166.779 402.987C167.201 402.844 167.584 402.607 167.899 402.293C168.527 401.674 169.094 400.995 169.59 400.266H169.613ZM170.464 403.48C170.728 402.474 170.661 401.41 170.274 400.445C169.478 402.013 168.885 403.704 169.154 404.096C169.254 404.208 169.534 404.152 169.691 404.096C169.86 404.048 170.017 403.964 170.15 403.85C170.273 403.748 170.372 403.622 170.442 403.48H170.464Z" fill="#6ECD55"/>
<path d="M321.653 387.867C319.144 398.418 311.394 401.8 303.598 402.338C294.134 402.998 284.648 399.414 284.648 399.414C284.648 399.414 283.786 403.01 267.064 404.746C243.253 407.21 192.27 405.082 192.27 405.082L196.314 389.838L245.997 379.758C245.997 379.758 208.824 347.368 211.277 319.906C212.421 309.465 215.061 299.243 219.117 289.554C219.419 288.792 219.744 288.03 220.058 287.314L261.811 294.381L262.36 300.339L267.064 312.256C267.064 312.256 327.04 365.4 321.653 387.867Z" fill="#6ECD55"/>
<path opacity="0.5" d="M220.707 288.154L219.173 292.578L260.926 299.746L261.038 294.616L220.707 288.154Z" fill="black"/>
<path d="M243.779 292.768L243.365 297.394C243.343 297.638 243.417 297.881 243.572 298.072C243.727 298.262 243.95 298.385 244.194 298.413L250.331 299.118C250.455 299.132 250.58 299.122 250.7 299.087C250.819 299.052 250.93 298.994 251.027 298.916C251.124 298.838 251.205 298.741 251.264 298.632C251.323 298.522 251.36 298.402 251.373 298.278L251.821 293.731C251.846 293.488 251.774 293.245 251.621 293.054C251.468 292.863 251.246 292.74 251.003 292.712L244.832 291.928C244.707 291.911 244.58 291.919 244.459 291.953C244.337 291.986 244.224 292.044 244.125 292.122C244.027 292.201 243.946 292.299 243.886 292.41C243.827 292.521 243.79 292.643 243.779 292.768V292.768Z" fill="white"/>
<path d="M233.094 289.811L231.56 295.042L230.059 294.751L231.347 289.464L233.094 289.811Z" fill="#6ECD55"/>
<path d="M256.245 293.507L255.741 299.208L257.118 299.477L257.578 293.776L256.245 293.507Z" fill="#6ECD55"/>
<path opacity="0.2" d="M303.598 402.338C294.134 402.998 284.648 399.414 284.648 399.414C284.648 399.414 289.038 393.624 287.851 383.634C286.664 373.643 256.077 326.514 255.192 325.125C256.514 326.346 298.603 365.445 304.259 384.955C306.41 392.37 305.547 398.093 303.598 402.338Z" fill="black"/>
<path d="M275.677 197.12C275.677 197.12 285.398 191.24 293.507 197.512C301.616 203.784 304.774 232.758 290.438 239.624C276.102 246.49 249.29 229.376 249.29 229.376C249.29 229.376 256.816 200.794 263.267 196.896C265.157 195.792 267.315 195.229 269.503 195.269C271.692 195.308 273.828 195.949 275.677 197.12V197.12Z" fill="#263238"/>
<path d="M278.443 247.43C276.091 250.197 267.915 262.125 257.891 257.958C246.467 253.221 248.987 233.218 249.29 230.53C259.965 234.32 269.849 240.05 278.443 247.43V247.43Z" fill="#E4897B"/>
<path d="M268.072 239.68C267.154 241.808 268.072 242.861 268.072 242.861C267.877 243.551 267.527 244.187 267.048 244.721C266.57 245.255 265.975 245.672 265.311 245.941C264.646 246.211 263.929 246.324 263.214 246.274C262.498 246.223 261.804 246.01 261.184 245.65C254.912 241.92 256.48 232.96 256.48 232.96C262.192 233.262 265.72 228.48 267.378 225.378C267.816 224.583 268.19 223.756 268.498 222.902L274.893 232.725C273.547 233.642 272.267 234.652 271.062 235.749C269.81 236.844 268.793 238.181 268.072 239.68Z" fill="#E4897B"/>
<path opacity="0.2" d="M274.926 232.714C273.58 233.63 272.3 234.641 271.096 235.738C269.833 236.826 268.804 238.16 268.072 239.658C263.043 237.194 267.4 225.456 267.4 225.456V225.366C267.838 224.572 268.213 223.745 268.52 222.891L274.926 232.714Z" fill="black"/>
<path d="M282.878 203.728C292.488 206.584 294.078 212.688 291.838 222.768C289.027 235.413 283.662 243.387 272.429 237.16C257.141 228.715 266.907 198.968 282.878 203.728Z" fill="#E4897B"/>
<path d="M285.746 220.382C286.086 222.051 286.628 223.672 287.358 225.21C286.96 225.524 286.481 225.721 285.977 225.778C285.472 225.835 284.962 225.751 284.502 225.534L285.746 220.382Z" fill="#D58745"/>
<path d="M280.101 217.851C279.877 218.646 279.272 219.173 278.746 219.027C278.219 218.882 277.962 218.12 278.174 217.325C278.387 216.53 279.003 216.003 279.53 216.205C280.056 216.406 280.314 217.056 280.101 217.851Z" fill="#263238"/>
<path d="M279.294 216.16L281.21 215.947C281.21 215.947 280 217.134 279.294 216.16Z" fill="#263238"/>
<path d="M290.08 220.371C289.867 221.166 289.262 221.704 288.736 221.558C288.21 221.413 287.952 220.651 288.165 219.856C288.378 219.061 288.982 218.534 289.52 218.68C290.058 218.826 290.248 219.576 290.08 220.371Z" fill="#263238"/>
<path d="M289.229 218.658L291.2 218.4C291.2 218.4 289.89 219.666 289.229 218.658Z" fill="#263238"/>
<path d="M277.379 211.837C277.311 211.839 277.243 211.823 277.182 211.792C277.122 211.761 277.07 211.714 277.032 211.658C277 211.612 276.977 211.561 276.964 211.506C276.952 211.451 276.95 211.395 276.959 211.34C276.969 211.285 276.989 211.232 277.019 211.185C277.048 211.137 277.087 211.096 277.133 211.064C277.888 210.626 278.735 210.371 279.606 210.318C280.477 210.266 281.348 210.418 282.15 210.762C282.202 210.783 282.249 210.815 282.287 210.856C282.326 210.896 282.357 210.944 282.376 210.996C282.396 211.048 282.405 211.104 282.403 211.16C282.401 211.216 282.387 211.271 282.363 211.322C282.341 211.373 282.309 211.42 282.269 211.459C282.229 211.498 282.182 211.529 282.13 211.55C282.078 211.571 282.022 211.581 281.966 211.58C281.91 211.58 281.855 211.568 281.803 211.546C281.136 211.263 280.412 211.137 279.689 211.175C278.965 211.214 278.259 211.417 277.626 211.77C277.55 211.812 277.466 211.835 277.379 211.837V211.837Z" fill="#263238"/>
<path d="M292.656 215.253C292.592 215.251 292.529 215.237 292.471 215.21C292.414 215.183 292.362 215.144 292.32 215.096C291.962 214.566 291.49 214.123 290.937 213.801C290.384 213.479 289.766 213.286 289.128 213.237C289.071 213.24 289.014 213.231 288.961 213.212C288.907 213.193 288.858 213.163 288.816 213.124C288.775 213.086 288.741 213.039 288.718 212.987C288.694 212.935 288.681 212.879 288.68 212.822C288.68 212.71 288.723 212.603 288.8 212.521C288.877 212.44 288.982 212.391 289.094 212.386C289.872 212.434 290.629 212.662 291.305 213.05C291.981 213.439 292.558 213.978 292.992 214.626C293.061 214.714 293.093 214.825 293.08 214.936C293.067 215.047 293.012 215.149 292.925 215.219C292.841 215.26 292.747 215.272 292.656 215.253Z" fill="#263238"/>
<path d="M267.534 216.798C267.534 216.798 274.389 210.235 275.52 203.941C275.52 203.941 296.901 201.824 292.074 221.446C292.074 221.446 299.051 204.826 282.643 199.528C266.235 194.23 259.09 218.4 265.44 228.166C265.44 228.166 263.29 220.909 267.534 216.798Z" fill="#263238"/>
<path d="M268.509 219.296C268.746 218.161 268.526 216.978 267.897 216.003C267.268 215.028 266.281 214.34 265.149 214.088C262.069 213.528 258.832 219.218 265.798 222.891C266.762 223.429 267.68 222.566 268.509 219.296Z" fill="#E4897B"/>
<path d="M284.48 228.816C283.562 229.961 282.727 231.17 281.982 232.434L281.254 232.154C277.995 230.854 276.909 229.163 276.696 227.674C276.607 226.95 276.695 226.216 276.954 225.534C277.079 225.135 277.264 224.758 277.502 224.414C278.813 226.139 281.77 227.595 283.382 228.301C284.054 228.648 284.48 228.816 284.48 228.816Z" fill="#263238"/>
<path d="M283.36 228.346L282.587 229.398C279.518 228.166 277.514 226.878 276.931 225.557C277.056 225.158 277.241 224.78 277.48 224.437C278.88 226.24 281.781 227.64 283.36 228.346Z" fill="white"/>
<path d="M281.266 232.154C278.006 230.854 276.92 229.163 276.707 227.674C277.947 228.188 279.085 228.92 280.067 229.835C280.701 230.462 281.121 231.274 281.266 232.154V232.154Z" fill="#DE5753"/>
<path d="M250.88 223.742C249.816 227.416 246.669 234.752 251.586 242.189C256.502 249.626 250.006 258.843 250.006 258.843C250.006 258.843 258.966 256.346 259.314 247.766C260.276 250.569 260.152 253.63 258.966 256.346C258.966 256.346 265.216 252.986 262.562 244.776C259.907 236.566 259.403 231.952 261.195 229.566C262.987 227.181 250.88 223.742 250.88 223.742Z" fill="#263238"/>
<path d="M240.397 245.493C236.645 249.234 232.814 253.232 229.342 257.197C227.618 259.19 225.982 261.229 224.56 263.222C223.921 264.127 223.345 265.073 222.835 266.056C222.658 266.39 222.501 266.734 222.365 267.086C222.275 267.299 222.365 267.4 222.23 266.93C222.193 266.791 222.144 266.657 222.085 266.526C222.057 266.437 222.019 266.35 221.973 266.269C221.973 266.213 221.973 266.269 221.973 266.269C222.023 266.393 222.083 266.512 222.152 266.627C222.351 266.94 222.58 267.232 222.835 267.501C223.538 268.243 224.327 268.897 225.187 269.45C227.275 270.776 229.484 271.901 231.784 272.81C234.181 273.829 236.712 274.714 239.277 275.542C241.842 276.371 244.507 277.144 247.117 277.85L246.389 283.629C240.52 283.508 234.684 282.715 228.995 281.266C225.966 280.492 223.029 279.392 220.237 277.984C218.636 277.168 217.133 276.172 215.757 275.016C214.979 274.341 214.27 273.59 213.64 272.776C213.287 272.331 212.969 271.859 212.688 271.365L212.576 271.174C212.526 271.092 212.481 271.006 212.442 270.917C212.315 270.67 212.203 270.424 212.106 270.178C211.928 269.73 211.786 269.27 211.68 268.8C211.426 267.369 211.468 265.902 211.803 264.488C212.033 263.49 212.344 262.512 212.733 261.565C213.406 260.018 214.188 258.521 215.074 257.085C216.672 254.508 218.438 252.038 220.36 249.693C224.035 245.179 228.012 240.921 232.266 236.947L240.397 245.493Z" fill="#E4897B"/>
<path d="M281.971 250.522C285.23 253.826 289.072 265.574 289.072 265.574C289.072 265.574 282.554 274.534 272.776 271.118C262.998 267.702 281.971 250.522 281.971 250.522Z" fill="#263238"/>
<path d="M239.826 229.398C233.106 228.57 222.611 242.715 222.611 242.715C222.611 242.715 228.894 252.661 237.507 254.576C246.12 256.491 239.826 229.398 239.826 229.398Z" fill="#263238"/>
<path d="M340.749 280.112C340.749 280.112 343.963 279.227 345.15 280.112C346.338 280.997 345.363 282.867 341.701 283.707C338.038 284.547 338.24 281.882 340.749 280.112Z" fill="#6ECD55"/>
<path opacity="0.6" d="M340.749 280.112C340.749 280.112 343.963 279.227 345.15 280.112C346.338 280.997 345.363 282.867 341.701 283.707C338.038 284.547 338.24 281.882 340.749 280.112Z" fill="white"/>
<path d="M327.398 267.523C328.115 267.523 340.357 278.51 340.357 278.51C340.357 278.51 342.933 278.23 343.168 279.731H342.272C342.272 279.731 342.194 278.79 339.864 278.958L327.04 268.43L327.398 267.523Z" fill="#263238"/>
<path d="M341.914 282.24C341.182 282.109 340.485 281.831 339.864 281.422C339.304 280.896 339.36 279.35 339.36 279.35L327.398 267.478L326.771 268.386L338.912 279.675C338.912 279.675 338.419 281.59 339.416 282.24C339.809 282.416 340.234 282.507 340.665 282.507C341.095 282.507 341.521 282.416 341.914 282.24V282.24Z" fill="#263238"/>
<path opacity="0.2" d="M341.914 282.24C341.182 282.109 340.485 281.831 339.864 281.422C339.304 280.896 339.36 279.35 339.36 279.35L327.398 267.478L326.771 268.386L338.912 279.675C338.912 279.675 338.419 281.59 339.416 282.24C339.809 282.416 340.234 282.507 340.665 282.507C341.095 282.507 341.521 282.416 341.914 282.24V282.24Z" fill="white"/>
<path d="M257.99 273.56L263.275 274.478C263.481 274.514 263.678 274.59 263.854 274.702C264.03 274.814 264.183 274.959 264.303 275.13C264.424 275.301 264.509 275.493 264.555 275.697C264.6 275.901 264.605 276.112 264.57 276.318L262.088 290.596L253.669 289.133L256.148 274.865C256.183 274.658 256.258 274.46 256.369 274.282C256.481 274.105 256.626 273.951 256.797 273.829C256.968 273.708 257.162 273.622 257.366 273.575C257.571 273.529 257.783 273.524 257.99 273.56V273.56Z" fill="#6ECD55"/>
<path opacity="0.6" d="M257.99 273.56L263.275 274.478C263.481 274.514 263.678 274.59 263.854 274.702C264.03 274.814 264.183 274.959 264.303 275.13C264.424 275.301 264.509 275.493 264.555 275.697C264.6 275.901 264.605 276.112 264.57 276.318L262.088 290.596L253.669 289.133L256.148 274.865C256.183 274.658 256.258 274.46 256.369 274.282C256.481 274.105 256.626 273.951 256.797 273.829C256.968 273.708 257.162 273.622 257.366 273.575C257.571 273.529 257.783 273.524 257.99 273.56V273.56Z" fill="white"/>
<path d="M263.845 269.659L259.056 268.826L258.224 273.615L263.013 274.448L263.845 269.659Z" fill="#6ECD55"/>
<path d="M249.122 277.514H257.096L251.093 285.253C251.093 285.253 244.978 284.29 243.656 280.515L244.261 279.776C244.852 279.062 245.595 278.488 246.436 278.097C247.277 277.706 248.194 277.507 249.122 277.514V277.514Z" fill="#E4897B"/>
<path d="M263.379 280.974L259.381 288.154L251.093 285.275L257.096 277.536L263.379 280.974Z" fill="#E4897B"/>
<path d="M322.141 198.039C321.669 198.079 321.228 198.29 320.9 198.632C320.572 198.975 320.38 199.424 320.36 199.898C319.89 203.661 317.706 204.703 315.79 205.632L315.522 205.755C314.614 206.208 313.67 206.583 312.699 206.875C313.151 206.65 313.585 206.392 313.999 206.103C315.522 204.983 316.642 203 315.835 201.32C314.458 198.453 309.373 197.12 306.651 196.403C305.957 196.213 305.408 196.067 305.128 195.955C295.048 192.707 288.586 186.245 288.25 179.066C287.701 167.72 302.015 157.786 320.159 156.89C321.021 156.89 321.872 156.834 322.712 156.834C339.714 156.834 353.535 165.077 354.072 175.874C354.61 187.186 340.285 197.165 322.141 198.039Z" stroke="#6ECD55" stroke-linecap="round" stroke-linejoin="round"/>
<path d="M307.715 172.032L307.805 183.355C307.805 183.355 315.376 191.375 322.197 190.311C327.056 189.48 331.456 186.933 334.595 183.131L334.506 171.819L321.536 170.016C320.203 169.859 307.715 172.032 307.715 172.032Z" fill="#6ECD55" stroke="#6ECD55" stroke-miterlimit="10"/>
<path d="M307.715 172.032C307.715 172.032 299.976 166.791 300.637 172.783C301.298 178.775 307.805 183.356 307.805 183.356" stroke="#6ECD55" stroke-miterlimit="10"/>
<path d="M334.685 172.032C334.685 172.032 342.424 166.791 341.763 172.783C341.103 178.775 334.595 183.356 334.595 183.356" stroke="#6ECD55" stroke-miterlimit="10"/>
<g opacity="0.8">
<g opacity="0.8">
<path opacity="0.8" d="M320.943 176.714C317.923 176.711 314.907 176.505 311.915 176.098C311.842 176.088 311.771 176.063 311.707 176.025C311.643 175.988 311.587 175.938 311.542 175.878C311.498 175.819 311.465 175.752 311.446 175.68C311.428 175.608 311.423 175.533 311.434 175.459C311.444 175.386 311.469 175.315 311.506 175.251C311.544 175.187 311.594 175.131 311.653 175.086C311.712 175.042 311.78 175.009 311.852 174.99C311.924 174.972 311.999 174.968 312.072 174.978C317.9 175.762 323.806 175.762 329.634 174.978C329.707 174.968 329.782 174.973 329.854 174.993C329.925 175.012 329.992 175.045 330.051 175.09C330.11 175.136 330.159 175.192 330.196 175.256C330.233 175.321 330.257 175.392 330.267 175.465C330.276 175.539 330.271 175.613 330.252 175.685C330.232 175.757 330.199 175.824 330.154 175.882C330.109 175.941 330.052 175.99 329.988 176.027C329.924 176.064 329.853 176.088 329.779 176.098C326.85 176.493 323.898 176.699 320.943 176.714V176.714Z" fill="white"/>
</g>
<g opacity="0.8">
<path opacity="0.8" d="M320.943 184.218C317.923 184.218 314.907 184.016 311.915 183.613C311.767 183.592 311.633 183.513 311.542 183.394C311.452 183.274 311.413 183.123 311.434 182.975C311.455 182.826 311.533 182.692 311.653 182.602C311.773 182.511 311.924 182.472 312.072 182.493C317.9 183.277 323.806 183.277 329.634 182.493C329.781 182.474 329.929 182.514 330.047 182.604C330.164 182.695 330.241 182.828 330.261 182.975C330.28 183.122 330.24 183.27 330.15 183.388C330.059 183.505 329.926 183.582 329.779 183.602C326.85 183.997 323.898 184.203 320.943 184.218V184.218Z" fill="white"/>
</g>
</g>
</svg>
