<svg width="532" height="345" viewBox="0 0 532 345" fill="none" xmlns="http://www.w3.org/2000/svg">
<path d="M453.746 304.073H0.609985V304.299H453.746V304.073Z" fill="#E0E0E0"/>
<path d="M72.9578 318.283H48.1531V318.51H72.9578V318.283Z" fill="#E0E0E0"/>
<path d="M86.8056 318.283H78.9301V318.51H86.8056V318.283Z" fill="#E0E0E0"/>
<path d="M227.178 315.156H209.633V315.383H227.178V315.156Z" fill="#E0E0E0"/>
<path d="M379.396 315.039H340.254V315.265H379.396V315.039Z" fill="#E0E0E0"/>
<path d="M393.207 315.039H387.471V315.265H393.207V315.039Z" fill="#E0E0E0"/>
<path d="M309.35 309.673H224.45V309.9H309.35V309.673Z" fill="#E0E0E0"/>
<path d="M215.397 263.653H40.4044C39.0336 263.651 37.7197 263.104 36.7511 262.134C35.7826 261.164 35.2387 259.849 35.2387 258.478V12.4885C35.2506 11.1254 35.7998 9.82218 36.7671 8.86175C37.7343 7.90131 39.0414 7.36128 40.4044 7.35895H215.397C216.769 7.35895 218.085 7.90415 219.056 8.87462C220.026 9.84508 220.572 11.1613 220.572 12.5338V258.478C220.572 259.851 220.026 261.167 219.056 262.137C218.085 263.108 216.769 263.653 215.397 263.653V263.653ZM40.4044 7.5402C39.0937 7.5426 37.8374 8.06499 36.9114 8.99271C35.9853 9.92043 35.4652 11.1777 35.4653 12.4885V258.478C35.4652 259.789 35.9853 261.046 36.9114 261.974C37.8374 262.902 39.0937 263.424 40.4044 263.426H215.397C216.708 263.424 217.966 262.902 218.893 261.974C219.82 261.047 220.343 259.79 220.345 258.478V12.4885C220.343 11.1768 219.82 9.91962 218.893 8.99216C217.966 8.0647 216.708 7.5426 215.397 7.5402H40.4044Z" fill="#E0E0E0"/>
<path d="M411.433 263.653H236.431C235.06 263.651 233.745 263.105 232.775 262.135C231.805 261.165 231.259 259.85 231.256 258.478V12.4885C231.271 11.1246 231.822 9.82136 232.791 8.86118C233.759 7.901 235.067 7.36126 236.431 7.35895H411.433C412.794 7.36366 414.099 7.90475 415.064 8.86493C416.029 9.8251 416.577 11.127 416.589 12.4885V258.478C416.589 259.847 416.047 261.161 415.08 262.131C414.113 263.101 412.802 263.648 411.433 263.653V263.653ZM236.431 7.5402C235.12 7.5426 233.862 8.0647 232.935 8.99216C232.008 9.91962 231.485 11.1768 231.483 12.4885V258.478C231.485 259.79 232.008 261.047 232.935 261.974C233.862 262.902 235.12 263.424 236.431 263.426H411.433C412.744 263.424 414.001 262.902 414.929 261.974C415.856 261.047 416.378 259.79 416.381 258.478V12.4885C416.378 11.1768 415.856 9.91962 414.929 8.99216C414.001 8.0647 412.744 7.5426 411.433 7.5402H236.431Z" fill="#E0E0E0"/>
<path d="M283.567 3.73384C283.569 2.7443 283.963 1.79597 284.663 1.09626C285.362 0.396547 286.311 0.0023931 287.3 0H403.602C404.592 0.0023931 405.54 0.396547 406.24 1.09626C406.94 1.79597 407.334 2.7443 407.336 3.73384V15.7238H283.567V3.73384Z" fill="#E0E0E0"/>
<path d="M310.927 7.84836C310.925 8.40798 311.089 8.95555 311.399 9.42173C311.709 9.88791 312.15 10.2517 312.666 10.4671C313.183 10.6825 313.751 10.7398 314.301 10.6318C314.85 10.5237 315.354 10.2551 315.751 9.86002C316.147 9.46494 316.417 8.96113 316.527 8.41239C316.637 7.86365 316.581 7.29466 316.368 6.77746C316.154 6.26026 315.792 5.81811 315.326 5.50701C314.861 5.19591 314.314 5.02985 313.754 5.02985C313.006 5.02984 312.288 5.3265 311.758 5.85482C311.228 6.38313 310.929 7.10001 310.927 7.84836V7.84836Z" fill="white"/>
<path d="M300.922 7.84836C300.92 8.40798 301.084 8.95555 301.394 9.42173C301.703 9.88791 302.144 10.2517 302.661 10.4671C303.177 10.6825 303.746 10.7398 304.295 10.6318C304.844 10.5237 305.349 10.2551 305.745 9.86002C306.142 9.46494 306.412 8.96113 306.522 8.41239C306.632 7.86365 306.576 7.29466 306.362 6.77746C306.149 6.26026 305.786 5.81811 305.321 5.50701C304.856 5.19591 304.309 5.02985 303.749 5.02985C303.001 5.02984 302.283 5.3265 301.753 5.85482C301.223 6.38313 300.924 7.10001 300.922 7.84836V7.84836Z" fill="white"/>
<path d="M290.916 7.84836C290.915 8.40798 291.079 8.95555 291.389 9.42173C291.698 9.88791 292.139 10.2517 292.656 10.4671C293.172 10.6825 293.741 10.7398 294.29 10.6318C294.839 10.5237 295.344 10.2551 295.74 9.86002C296.136 9.46494 296.407 8.96113 296.517 8.41239C296.626 7.86365 296.571 7.29466 296.357 6.77746C296.143 6.26026 295.781 5.81811 295.316 5.50701C294.851 5.19591 294.304 5.02985 293.744 5.02985C292.996 5.02984 292.278 5.3265 291.748 5.85482C291.218 6.38313 290.919 7.10001 290.916 7.84836V7.84836Z" fill="white"/>
<path d="M403.602 96.6721H287.3C286.311 96.6697 285.362 96.2756 284.663 95.5759C283.963 94.8761 283.569 93.9278 283.567 92.9383V15.7238H407.336V92.9383C407.334 93.9278 406.94 94.8761 406.24 95.5759C405.54 96.2756 404.592 96.6697 403.602 96.6721V96.6721Z" fill="#F0F0F0"/>
<path d="M275.211 16.2042C275.213 15.2146 275.607 14.2663 276.307 13.5666C277.007 12.8669 277.955 12.4727 278.945 12.4703H395.274C396.263 12.4727 397.212 12.8669 397.911 13.5666C398.611 14.2663 399.005 15.2146 399.008 16.2042V28.2032H275.211V16.2042Z" fill="#F0F0F0"/>
<path d="M302.598 20.3458C302.596 20.9058 302.761 21.4537 303.071 21.9201C303.381 22.3865 303.823 22.7503 304.34 22.9655C304.857 23.1806 305.426 23.2373 305.975 23.1285C306.525 23.0197 307.029 22.7502 307.425 22.3542C307.821 21.9583 308.091 21.4536 308.2 20.9043C308.308 20.3549 308.252 19.7857 308.036 19.2686C307.821 18.7516 307.457 18.3101 306.991 18C306.525 17.69 305.977 17.5255 305.417 17.5273C304.67 17.5297 303.955 17.8274 303.426 18.3555C302.898 18.8835 302.601 19.599 302.598 20.3458V20.3458Z" fill="#E0E0E0"/>
<path d="M292.593 20.3459C292.591 20.9055 292.756 21.453 293.065 21.9192C293.375 22.3854 293.816 22.7492 294.332 22.9646C294.849 23.18 295.418 23.2373 295.967 23.1293C296.516 23.0212 297.02 22.7526 297.417 22.3575C297.813 21.9624 298.083 21.4586 298.193 20.9099C298.303 20.3611 298.248 19.7922 298.034 19.275C297.82 18.7578 297.458 18.3156 296.992 18.0045C296.527 17.6934 295.98 17.5273 295.421 17.5273C294.672 17.5273 293.954 17.824 293.424 18.3523C292.894 18.8806 292.595 19.5975 292.593 20.3459V20.3459Z" fill="#E0E0E0"/>
<path d="M282.588 20.3459C282.586 20.9055 282.75 21.453 283.06 21.9192C283.369 22.3854 283.81 22.7492 284.327 22.9646C284.843 23.18 285.412 23.2373 285.961 23.1293C286.51 23.0212 287.015 22.7526 287.411 22.3575C287.808 21.9624 288.078 21.4586 288.188 20.9099C288.298 20.3611 288.242 19.7922 288.029 19.275C287.815 18.7578 287.452 18.3156 286.987 18.0045C286.522 17.6934 285.975 17.5273 285.415 17.5273C284.667 17.5273 283.949 17.824 283.419 18.3523C282.889 18.8806 282.59 19.5975 282.588 20.3459V20.3459Z" fill="#E0E0E0"/>
<path d="M395.274 109.17H278.963C277.973 109.167 277.025 108.773 276.325 108.073C275.625 107.374 275.231 106.425 275.229 105.436V28.2032H399.008V105.418C399.009 105.909 398.913 106.396 398.726 106.851C398.539 107.305 398.264 107.719 397.918 108.067C397.571 108.415 397.159 108.692 396.705 108.881C396.252 109.07 395.765 109.168 395.274 109.17Z" fill="#FAFAFA"/>
<path d="M266.9 28.7017C266.901 28.2078 267 27.7191 267.191 27.2637C267.382 26.8083 267.661 26.3951 268.012 26.048C268.364 25.7009 268.78 25.4268 269.238 25.2414C269.696 25.056 270.186 24.963 270.679 24.9678H386.945C387.935 24.9702 388.883 25.3644 389.583 26.0641C390.282 26.7638 390.677 27.7121 390.679 28.7017V40.7189H266.9V28.7017Z" fill="#FAFAFA"/>
<path d="M294.242 32.8433C294.242 33.4018 294.408 33.9477 294.718 34.4123C295.028 34.8769 295.468 35.2393 295.984 35.4539C296.499 35.6684 297.067 35.7255 297.615 35.6178C298.163 35.5102 298.667 35.2427 299.063 34.849C299.459 34.4554 299.73 33.9533 299.841 33.406C299.952 32.8587 299.899 32.2907 299.688 31.7737C299.476 31.2568 299.117 30.8139 298.654 30.5011C298.191 30.1882 297.647 30.0193 297.088 30.0157C296.715 30.0134 296.346 30.0847 296 30.2258C295.655 30.3668 295.342 30.5747 295.077 30.8375C294.813 31.1003 294.603 31.4128 294.459 31.757C294.316 32.1013 294.242 32.4705 294.242 32.8433Z" fill="#F0F0F0"/>
<path d="M284.273 32.8433C284.273 33.4033 284.44 33.9507 284.751 34.4161C285.063 34.8815 285.505 35.2439 286.023 35.4573C286.541 35.6708 287.11 35.7257 287.659 35.6152C288.208 35.5046 288.712 35.2335 289.107 34.8362C289.502 34.439 289.769 33.9334 289.876 33.3838C289.983 32.8341 289.925 32.265 289.708 31.7486C289.491 31.2323 289.126 30.7919 288.659 30.4834C288.191 30.1749 287.643 30.0122 287.083 30.0157C286.336 30.0205 285.622 30.3205 285.095 30.8503C284.569 31.3801 284.273 32.0965 284.273 32.8433Z" fill="#F0F0F0"/>
<path d="M277.078 35.6709C278.639 35.6709 279.905 34.4049 279.905 32.8433C279.905 31.2817 278.639 30.0157 277.078 30.0157C275.516 30.0157 274.25 31.2817 274.25 32.8433C274.25 34.4049 275.516 35.6709 277.078 35.6709Z" fill="#F0F0F0"/>
<path d="M386.945 121.667H270.679C269.69 121.665 268.741 121.271 268.042 120.571C267.342 119.871 266.948 118.923 266.945 117.933V40.7188H390.679V117.924C390.679 118.915 390.286 119.866 389.586 120.568C388.886 121.269 387.936 121.665 386.945 121.667V121.667Z" fill="#E0E0E0"/>
<path d="M72.3234 73.4081C72.3304 72.4793 72.7019 71.5904 73.3579 70.9327C74.0139 70.2751 74.9018 69.9013 75.8306 69.8918H251.131C252.068 69.8942 252.965 70.2673 253.628 70.9297C254.29 71.592 254.663 72.4896 254.665 73.4263V84.8272H72.3234V73.4081Z" fill="#E0E0E0"/>
<path d="M100.962 80.2505C100.386 80.2505 99.8238 80.0798 99.3454 79.7602C98.867 79.4405 98.4941 78.9862 98.2739 78.4546C98.0537 77.923 97.9961 77.3381 98.1084 76.7738C98.2206 76.2095 98.4977 75.6911 98.9045 75.2842C99.3114 74.8774 99.8297 74.6003 100.394 74.4881C100.958 74.3758 101.543 74.4334 102.075 74.6536C102.606 74.8738 103.061 75.2467 103.38 75.7251C103.7 76.2035 103.871 76.766 103.871 77.3413C103.871 78.1129 103.564 78.8528 103.019 79.3984C102.473 79.944 101.733 80.2505 100.962 80.2505ZM100.962 74.8944C100.477 74.8926 100.003 75.0346 99.5997 75.3024C99.1961 75.5701 98.8811 75.9517 98.6945 76.3986C98.5079 76.8456 98.4581 77.3379 98.5515 77.8131C98.6449 78.2884 98.8772 78.7252 99.2191 79.0683C99.5609 79.4115 99.9969 79.6454 100.472 79.7406C100.947 79.8357 101.439 79.7878 101.887 79.6029C102.334 79.4179 102.717 79.1043 102.986 78.7017C103.256 78.2991 103.399 77.8257 103.399 77.3413C103.399 76.6939 103.143 76.0729 102.686 75.6143C102.229 75.1556 101.609 74.8968 100.962 74.8944V74.8944Z" fill="white"/>
<path d="M91.4729 80.2505C90.8975 80.2505 90.3351 80.0798 89.8567 79.7602C89.3783 79.4405 89.0054 78.9862 88.7852 78.4546C88.565 77.923 88.5074 77.3381 88.6197 76.7738C88.7319 76.2095 89.009 75.6911 89.4158 75.2842C89.8227 74.8774 90.341 74.6003 90.9054 74.4881C91.4697 74.3758 92.0546 74.4334 92.5862 74.6536C93.1178 74.8738 93.5721 75.2467 93.8918 75.7251C94.2114 76.2035 94.382 76.766 94.382 77.3413C94.382 78.1129 94.0756 78.8528 93.53 79.3984C92.9844 79.944 92.2445 80.2505 91.4729 80.2505ZM91.4729 74.8944C90.989 74.8944 90.5159 75.0379 90.1135 75.3068C89.7111 75.5756 89.3974 75.9578 89.2122 76.4049C89.027 76.852 88.9786 77.344 89.073 77.8187C89.1674 78.2934 89.4005 78.7294 89.7427 79.0716C90.0849 79.4138 90.5209 79.6468 90.9955 79.7412C91.4702 79.8357 91.9622 79.7872 92.4093 79.602C92.8564 79.4168 93.2386 79.1032 93.5075 78.7008C93.7763 78.2984 93.9198 77.8253 93.9198 77.3413C93.9198 76.6924 93.662 76.07 93.2032 75.6111C92.7443 75.1522 92.1219 74.8944 91.4729 74.8944Z" fill="white"/>
<path d="M81.9842 80.2505C81.4089 80.2505 80.8464 80.0798 80.368 79.7602C79.8896 79.4405 79.5167 78.9862 79.2965 78.4546C79.0764 77.923 79.0187 77.3381 79.131 76.7738C79.2432 76.2095 79.5203 75.6911 79.9272 75.2842C80.334 74.8774 80.8524 74.6003 81.4167 74.4881C81.981 74.3758 82.5659 74.4334 83.0975 74.6536C83.6291 74.8738 84.0834 75.2467 84.4031 75.7251C84.7228 76.2035 84.8934 76.766 84.8934 77.3413C84.8934 78.1129 84.5869 78.8528 84.0413 79.3984C83.4957 79.944 82.7558 80.2505 81.9842 80.2505V80.2505ZM81.9842 74.8944C81.5003 74.8944 81.0272 75.0379 80.6248 75.3068C80.2224 75.5756 79.9088 75.9578 79.7236 76.4049C79.5384 76.852 79.4899 77.344 79.5843 77.8187C79.6787 78.2934 79.9118 78.7294 80.254 79.0716C80.5962 79.4138 81.0322 79.6468 81.5069 79.7412C81.9815 79.8357 82.4735 79.7872 82.9206 79.602C83.3678 79.4168 83.7499 79.1032 84.0188 78.7008C84.2877 78.2984 84.4312 77.8253 84.4312 77.3413C84.4312 77.02 84.3679 76.7018 84.2449 76.4049C84.1219 76.108 83.9417 75.8383 83.7145 75.6111C83.4873 75.3839 83.2175 75.2036 82.9206 75.0806C82.6238 74.9577 82.3056 74.8944 81.9842 74.8944Z" fill="white"/>
<path d="M251.131 179.551H75.8306C74.8916 179.548 73.9917 179.174 73.3276 178.51C72.6636 177.846 72.2895 176.946 72.2871 176.007V84.809H254.629V176.034C254.622 176.962 254.252 177.849 253.598 178.507C252.944 179.164 252.058 179.539 251.131 179.551Z" fill="#F0F0F0"/>
<path d="M64.4207 97.4516C64.4231 96.5125 64.7972 95.6126 65.4612 94.9485C66.1252 94.2845 67.0251 93.9104 67.9642 93.908H243.228C244.167 93.9104 245.066 94.2848 245.728 94.9491C246.391 95.6134 246.763 96.5133 246.763 97.4516V108.862H64.4207V97.4516Z" fill="#FAFAFA"/>
<path d="M93.0498 104.33C92.4745 104.33 91.912 104.16 91.4336 103.84C90.9552 103.52 90.5823 103.066 90.3621 102.534C90.1419 102.003 90.0843 101.418 90.1966 100.853C90.3088 100.289 90.5859 99.7708 90.9928 99.364C91.3996 98.9571 91.918 98.6801 92.4823 98.5678C93.0466 98.4556 93.6315 98.5132 94.1631 98.7333C94.6947 98.9535 95.149 99.3264 95.4687 99.8048C95.7883 100.283 95.959 100.846 95.959 101.421C95.959 102.193 95.6525 102.933 95.1069 103.478C94.5613 104.024 93.8214 104.33 93.0498 104.33V104.33ZM93.0498 98.9741C92.5659 98.9741 92.0928 99.1176 91.6904 99.3865C91.288 99.6554 90.9744 100.038 90.7891 100.485C90.6039 100.932 90.5555 101.424 90.6499 101.898C90.7443 102.373 90.9774 102.809 91.3196 103.151C91.6618 103.493 92.0978 103.727 92.5725 103.821C93.0471 103.915 93.5391 103.867 93.9862 103.682C94.4333 103.497 94.8155 103.183 95.0844 102.78C95.3532 102.378 95.4968 101.905 95.4968 101.421C95.5077 101.093 95.4525 100.766 95.3344 100.46C95.2164 100.153 95.0379 99.8737 94.8096 99.6378C94.5812 99.4019 94.3078 99.2143 94.0055 99.0863C93.7031 98.9583 93.3781 98.8924 93.0498 98.8925V98.9741Z" fill="#E0E0E0"/>
<path d="M83.5702 104.33C82.9948 104.33 82.4324 104.16 81.954 103.84C81.4756 103.52 81.1027 103.066 80.8825 102.534C80.6623 102.003 80.6047 101.418 80.717 100.853C80.8292 100.289 81.1063 99.7708 81.5131 99.364C81.92 98.9571 82.4383 98.6801 83.0027 98.5678C83.567 98.4556 84.1519 98.5132 84.6835 98.7333C85.2151 98.9535 85.6694 99.3264 85.9891 99.8048C86.3087 100.283 86.4793 100.846 86.4793 101.421C86.4793 102.193 86.1729 102.933 85.6273 103.478C85.0817 104.024 84.3418 104.33 83.5702 104.33ZM83.5702 98.9741C83.0863 98.9741 82.6132 99.1176 82.2108 99.3865C81.8084 99.6554 81.4947 100.038 81.3095 100.485C81.1243 100.932 81.0759 101.424 81.1703 101.898C81.2647 102.373 81.4978 102.809 81.84 103.151C82.1822 103.493 82.6182 103.727 83.0928 103.821C83.5675 103.915 84.0595 103.867 84.5066 103.682C84.9537 103.497 85.3359 103.183 85.6048 102.78C85.8736 102.378 86.0171 101.905 86.0171 101.421C86.0281 101.093 85.9729 100.766 85.8548 100.46C85.7368 100.153 85.5583 99.8737 85.3299 99.6378C85.1016 99.4019 84.8282 99.2143 84.5258 99.0863C84.2235 98.9583 83.8985 98.8924 83.5702 98.8925V98.9741Z" fill="#E0E0E0"/>
<path d="M74.0815 104.33C73.5062 104.33 72.9437 104.16 72.4653 103.84C71.9869 103.52 71.614 103.066 71.3938 102.534C71.1737 102.003 71.116 101.418 71.2283 100.853C71.3405 100.289 71.6176 99.7708 72.0245 99.364C72.4313 98.9571 72.9497 98.6801 73.514 98.5678C74.0783 98.4556 74.6632 98.5132 75.1948 98.7333C75.7264 98.9535 76.1807 99.3264 76.5004 99.8048C76.82 100.283 76.9907 100.846 76.9907 101.421C76.9907 102.193 76.6842 102.933 76.1386 103.478C75.593 104.024 74.8531 104.33 74.0815 104.33ZM74.0815 98.9741C73.5976 98.9741 73.1245 99.1176 72.7221 99.3865C72.3197 99.6554 72.0061 100.038 71.8209 100.485C71.6357 100.932 71.5872 101.424 71.6816 101.898C71.776 102.373 72.0091 102.809 72.3513 103.151C72.6935 103.493 73.1295 103.727 73.6042 103.821C74.0788 103.915 74.5708 103.867 75.0179 103.682C75.4651 103.497 75.8472 103.183 76.1161 102.78C76.385 102.378 76.5285 101.905 76.5285 101.421C76.5394 101.093 76.4842 100.766 76.3662 100.46C76.2481 100.153 76.0696 99.8737 75.8413 99.6378C75.6129 99.4019 75.3395 99.2143 75.0372 99.0863C74.7348 98.9583 74.4098 98.8924 74.0815 98.8925V98.9741Z" fill="#E0E0E0"/>
<path d="M243.228 221.602H67.9642C67.0251 221.599 66.1252 221.225 65.4612 220.561C64.7972 219.897 64.4231 218.997 64.4207 218.058V108.862H246.763V218.058C246.763 218.997 246.391 219.897 245.728 220.561C245.066 221.225 244.167 221.599 243.228 221.602V221.602Z" fill="#F0F0F0"/>
<path d="M124.28 11.7453H60.424C59.4465 11.7429 58.5097 11.3535 57.8185 10.6623C57.1272 9.97112 56.7379 9.03431 56.7355 8.05679C56.7403 7.08084 57.1307 6.14636 57.8216 5.4571C58.5126 4.76784 59.448 4.3797 60.424 4.37732H124.298C125.273 4.38208 126.206 4.77127 126.895 5.46028C127.584 6.14928 127.973 7.0824 127.978 8.05679C127.975 9.03588 127.585 9.97405 126.891 10.6655C126.198 11.357 125.259 11.7453 124.28 11.7453V11.7453Z" fill="#E0E0E0"/>
<path d="M150.807 27.1882L60.6053 26.8257C59.6372 26.8067 58.7152 26.4087 58.0374 25.7173C57.3596 25.026 56.98 24.0963 56.9802 23.1281C56.985 22.1514 57.3769 21.2165 58.0701 20.5284C58.7633 19.8403 59.7011 19.4552 60.6778 19.4577L150.87 19.8202C151.846 19.8273 152.78 20.2201 153.467 20.9127C154.155 21.6054 154.54 22.5418 154.54 23.5178V23.5178C154.538 24.0045 154.439 24.4859 154.25 24.9343C154.061 25.3827 153.785 25.7892 153.438 26.1303C153.091 26.4715 152.679 26.7407 152.228 26.9222C151.776 27.1038 151.293 27.1941 150.807 27.1882V27.1882Z" fill="#F0F0F0"/>
<path d="M102.792 44.2533H60.424C59.4465 44.2509 58.5097 43.8615 57.8185 43.1703C57.1272 42.4791 56.7379 41.5423 56.7355 40.5648C56.7403 39.5888 57.1307 38.6543 57.8216 37.9651C58.5126 37.2758 59.448 36.8877 60.424 36.8853H102.81C103.786 36.8877 104.722 37.2758 105.413 37.9651C106.104 38.6543 106.494 39.5888 106.499 40.5648C106.498 41.0504 106.401 41.5309 106.214 41.9791C106.027 42.4273 105.754 42.8342 105.41 43.1767C105.065 43.5192 104.657 43.7906 104.208 43.9753C103.759 44.16 103.278 44.2545 102.792 44.2533V44.2533Z" fill="#E6E6E6"/>
<path d="M395.6 148.538H375.925C375.182 148.536 374.47 148.24 373.944 147.716C373.418 147.191 373.12 146.481 373.115 145.738V145.738C373.12 144.994 373.418 144.282 373.943 143.756C374.469 143.231 375.181 142.933 375.925 142.928H395.6C396.343 142.933 397.054 143.231 397.578 143.757C398.102 144.283 398.398 144.995 398.4 145.738V145.738C398.398 146.48 398.102 147.191 397.578 147.715C397.053 148.24 396.342 148.536 395.6 148.538V148.538Z" fill="#E0E0E0"/>
<path d="M404.944 154.909H375.916C374.369 154.909 373.115 156.163 373.115 157.71V157.719C373.115 159.265 374.369 160.519 375.916 160.519H404.944C406.49 160.519 407.744 159.265 407.744 157.719V157.71C407.744 156.163 406.49 154.909 404.944 154.909Z" fill="#F0F0F0"/>
<path d="M387.969 173.288H375.925C375.555 173.291 375.188 173.22 374.845 173.081C374.502 172.941 374.19 172.736 373.927 172.476C373.663 172.216 373.454 171.906 373.31 171.565C373.166 171.224 373.091 170.858 373.088 170.488V170.488C373.093 169.744 373.39 169.033 373.916 168.507C374.442 167.981 375.154 167.683 375.898 167.679H387.942C388.686 167.681 389.4 167.978 389.926 168.504C390.452 169.03 390.749 169.744 390.751 170.488V170.488C390.749 171.227 390.456 171.935 389.935 172.459C389.414 172.983 388.708 173.281 387.969 173.288V173.288Z" fill="#E6E6E6"/>
<path d="M396.253 185.26H375.925C375.182 185.258 374.47 184.962 373.944 184.438C373.418 183.914 373.12 183.203 373.115 182.46V182.46C373.12 181.716 373.418 181.004 373.943 180.479C374.469 179.953 375.181 179.655 375.925 179.65H396.253C396.995 179.655 397.706 179.953 398.231 180.479C398.755 181.005 399.051 181.717 399.053 182.46V182.46C399.05 183.202 398.755 183.913 398.23 184.437C397.705 184.962 396.994 185.258 396.253 185.26V185.26Z" fill="#F0F0F0"/>
<path d="M393.026 198.039H375.925C375.182 198.036 374.47 197.741 373.944 197.217C373.418 196.692 373.12 195.981 373.115 195.238V195.238C373.12 194.495 373.418 193.783 373.943 193.257C374.469 192.731 375.181 192.434 375.925 192.429H393.026C393.77 192.434 394.482 192.731 395.008 193.257C395.533 193.783 395.831 194.495 395.836 195.238V195.238C395.831 195.981 395.533 196.692 395.007 197.217C394.481 197.741 393.769 198.036 393.026 198.039Z" fill="#E6E6E6"/>
<path d="M328.182 163.319H269.701C268.957 163.317 268.245 163.02 267.72 162.493C267.195 161.967 266.9 161.254 266.9 160.51V160.51C266.903 159.768 267.198 159.057 267.723 158.533C268.248 158.008 268.959 157.712 269.701 157.71H328.182C328.924 157.712 329.635 158.008 330.16 158.533C330.685 159.057 330.98 159.768 330.983 160.51V160.51C330.983 161.254 330.688 161.967 330.163 162.493C329.638 163.02 328.926 163.317 328.182 163.319V163.319Z" fill="#E0E0E0"/>
<path d="M351.854 175.291H269.701C268.959 175.289 268.248 174.993 267.723 174.468C267.198 173.944 266.903 173.233 266.9 172.491V172.491C266.9 171.747 267.195 171.034 267.72 170.508C268.245 169.981 268.957 169.684 269.701 169.681H351.854C352.599 169.684 353.312 169.981 353.838 170.507C354.364 171.033 354.661 171.747 354.664 172.491V172.491C354.659 173.234 354.361 173.945 353.835 174.469C353.309 174.993 352.597 175.289 351.854 175.291V175.291Z" fill="#F0F0F0"/>
<path d="M308.852 188.07H269.701C268.957 188.067 268.245 187.77 267.72 187.244C267.195 186.717 266.9 186.004 266.9 185.26V185.26C266.903 184.518 267.198 183.807 267.723 183.283C268.248 182.758 268.959 182.462 269.701 182.46H308.852C309.594 182.462 310.306 182.758 310.832 183.282C311.358 183.807 311.656 184.517 311.661 185.26V185.26C311.659 186.005 311.362 186.718 310.835 187.244C310.309 187.771 309.596 188.067 308.852 188.07V188.07Z" fill="#E6E6E6"/>
<path d="M329.832 200.042H269.701C268.957 200.039 268.245 199.742 267.72 199.216C267.195 198.689 266.9 197.976 266.9 197.232V197.232C266.903 196.49 267.198 195.779 267.723 195.255C268.248 194.73 268.959 194.434 269.701 194.432H329.832C330.575 194.432 331.289 194.727 331.815 195.252C332.342 195.776 332.639 196.489 332.641 197.232V197.232C332.641 197.601 332.569 197.967 332.427 198.307C332.286 198.648 332.079 198.958 331.818 199.219C331.557 199.48 331.248 199.687 330.907 199.828C330.566 199.969 330.201 200.042 329.832 200.042V200.042Z" fill="#F0F0F0"/>
<path d="M321.548 212.82H269.701C268.957 212.818 268.245 212.521 267.72 211.994C267.195 211.467 266.9 210.754 266.9 210.011V210.011C266.903 209.269 267.198 208.558 267.723 208.033C268.248 207.508 268.959 207.213 269.701 207.21H321.548C322.29 207.213 323.001 207.508 323.526 208.033C324.051 208.558 324.346 209.269 324.349 210.011V210.011C324.349 210.754 324.054 211.467 323.529 211.994C323.004 212.521 322.292 212.818 321.548 212.82V212.82Z" fill="#E6E6E6"/>
<path d="M227.178 345C324.224 345 402.896 340.407 402.896 334.741C402.896 329.075 324.224 324.482 227.178 324.482C130.132 324.482 51.461 329.075 51.461 334.741C51.461 340.407 130.132 345 227.178 345Z" fill="#F5F5F5"/>
<path opacity="0.7" d="M318.141 272.697H206.452C202.743 272.719 199.068 271.979 195.657 270.522C192.246 269.065 189.17 266.923 186.621 264.229C184.072 261.534 182.103 258.345 180.838 254.858C179.572 251.371 179.036 247.662 179.264 243.96L188.816 61.6537C189.604 45.8483 203.207 32.9158 219.022 32.9158H330.711C334.424 32.8877 338.103 33.6235 341.52 35.0775C344.936 36.5315 348.017 38.6726 350.571 41.3678C353.125 44.0629 355.098 47.2546 356.366 50.7444C357.635 54.2342 358.172 57.9475 357.944 61.6537L348.383 243.96C347.558 259.765 333.946 272.697 318.141 272.697Z" fill="#6ECD55"/>
<path d="M252.182 22.4121H245.231V23.3184H252.182V22.4121Z" fill="#6ECD55"/>
<path d="M239.295 22.4121H215.125V23.3184H239.295V22.4121Z" fill="#6ECD55"/>
<path d="M176.742 84.5763L176.379 91.4453L177.284 91.4932L177.647 84.6242L176.742 84.5763Z" fill="#6ECD55"/>
<path opacity="0.6" d="M311.715 266.281H199.99C196.282 266.303 192.608 265.563 189.198 264.107C185.787 262.65 182.712 260.509 180.163 257.816C177.614 255.122 175.645 251.934 174.379 248.448C173.113 244.962 172.576 241.254 172.802 237.552L182.363 55.2373C183.188 39.4319 196.8 26.4994 212.605 26.4994H324.285C327.998 26.4713 331.678 27.2071 335.094 28.6611C338.511 30.1151 341.592 32.2562 344.146 34.9514C346.7 37.6466 348.673 40.8383 349.941 44.3281C351.209 47.8178 351.746 51.5312 351.519 55.2373L341.967 237.552C341.133 253.349 327.521 266.281 311.715 266.281Z" fill="#6ECD55"/>
<path d="M220.916 240.48C194.362 240.48 169.929 230.139 152.112 211.37C134.294 192.601 125.195 167.543 126.591 140.934C127.563 123.276 133.039 106.16 142.496 91.2164C151.756 76.5684 164.4 64.3597 179.363 55.6179C179.418 55.5953 179.48 55.5953 179.535 55.6179C179.596 55.6351 179.647 55.6738 179.68 55.7267L188.825 73.1725C189.151 72.9912 189.477 72.8099 189.813 72.6378L190.166 72.4384C190.222 72.4203 190.282 72.4203 190.338 72.4384C190.368 72.4472 190.396 72.4622 190.419 72.4826C190.442 72.5029 190.461 72.528 190.474 72.5562L192.975 77.3141C193.002 77.3661 193.007 77.4261 192.99 77.4818C192.973 77.5375 192.935 77.5845 192.885 77.6132C169.621 90.6182 154.314 114.897 152.954 140.989C151.921 160.546 158.582 178.935 171.705 192.755C178.217 199.599 186.066 205.03 194.766 208.711C203.465 212.392 212.829 214.244 222.275 214.152C222.306 214.152 222.337 214.158 222.365 214.17C222.393 214.183 222.418 214.201 222.438 214.225C222.461 214.245 222.478 214.271 222.489 214.299C222.5 214.327 222.504 214.358 222.502 214.388L221.142 240.307C221.132 240.358 221.103 240.404 221.061 240.436C221.02 240.467 220.968 240.483 220.916 240.48V240.48ZM179.381 56.1345C148.903 73.9881 128.848 106.469 127.035 140.953C125.648 167.443 134.675 192.338 152.411 211.053C170.146 229.767 194.326 239.972 220.68 240.054L222.012 214.596C212.546 214.655 203.167 212.774 194.454 209.071C185.742 205.368 177.879 199.92 171.352 193.063C158.147 179.143 151.414 160.637 152.474 140.962C153.843 114.789 169.15 90.4188 192.441 77.3141L190.157 72.9549L189.994 73.0456C189.604 73.254 189.205 73.4625 188.825 73.689C188.767 73.7122 188.702 73.7122 188.644 73.689C188.586 73.6715 188.537 73.6326 188.508 73.5803L179.381 56.1345Z" fill="#6ECD55"/>
<path d="M227.369 249.932C227.304 249.932 227.242 249.905 227.196 249.859C227.176 249.836 227.161 249.808 227.152 249.779C227.143 249.749 227.139 249.718 227.142 249.687L228.592 221.964C228.597 221.907 228.622 221.854 228.664 221.816C228.706 221.777 228.762 221.756 228.819 221.756C272.002 221.756 308.978 186.62 311.244 143.427C311.249 143.37 311.275 143.317 311.317 143.278C311.359 143.24 311.414 143.218 311.471 143.218H318.068C318.098 143.217 318.127 143.222 318.154 143.232C318.182 143.243 318.207 143.258 318.228 143.279C318.249 143.299 318.266 143.323 318.278 143.35C318.289 143.377 318.295 143.406 318.295 143.436C318.349 145.683 318.295 147.967 318.213 150.188H338.595C338.626 150.187 338.657 150.193 338.685 150.205C338.713 150.218 338.738 150.237 338.759 150.26C338.8 150.311 338.823 150.375 338.822 150.441C335.609 176.533 323.394 200.686 304.284 218.738C283.412 238.558 255.381 249.932 227.369 249.932ZM229.036 222.209L227.604 249.479C255.427 249.415 283.249 238.096 303.967 218.403C322.942 200.489 335.095 176.533 338.342 150.641H317.978C317.944 150.641 317.91 150.633 317.88 150.617C317.85 150.601 317.825 150.578 317.806 150.55C317.783 150.53 317.765 150.505 317.754 150.476C317.743 150.448 317.739 150.417 317.742 150.387C317.86 148.158 317.887 145.856 317.842 143.653H311.679C309.305 186.919 272.292 222.091 229.036 222.209V222.209Z" fill="#6ECD55"/>
<path d="M318.068 143.671C318.009 143.669 317.953 143.645 317.911 143.603C317.869 143.561 317.844 143.504 317.842 143.445C316.691 97.6509 279.778 61.7806 233.767 61.7806C218.615 61.8165 203.71 65.6091 190.384 72.819C190.358 72.8347 190.329 72.8448 190.299 72.8487C190.269 72.8525 190.238 72.8502 190.21 72.8416C190.181 72.8331 190.154 72.8186 190.131 72.7991C190.107 72.7796 190.089 72.7555 190.075 72.7284C190.049 72.6751 190.043 72.6137 190.06 72.5565C190.077 72.4993 190.115 72.4506 190.166 72.4203C203.559 65.1747 218.54 61.3633 233.767 61.3275C255.845 61.0727 277.127 69.5648 292.964 84.9491C308.802 100.333 317.909 121.36 318.295 143.436C318.296 143.466 318.291 143.495 318.281 143.523C318.271 143.551 318.255 143.577 318.235 143.599C318.215 143.621 318.19 143.638 318.163 143.651C318.136 143.663 318.107 143.67 318.077 143.671H318.068Z" fill="#6ECD55"/>
<path d="M349.344 150.641H338.595C338.535 150.641 338.478 150.617 338.435 150.574C338.393 150.532 338.369 150.474 338.369 150.414C338.369 150.354 338.393 150.296 338.435 150.254C338.478 150.211 338.535 150.188 338.595 150.188H349.126C350.237 129.47 345.771 108.833 336.194 90.4279C322.156 63.7201 298.203 44.208 268.74 35.4715C237.401 26.1732 204.041 30.0339 174.778 46.3468L179.68 55.6814C179.706 55.7358 179.71 55.798 179.692 55.8553C179.673 55.9126 179.634 55.9607 179.581 55.9896C179.554 56.0036 179.525 56.0121 179.495 56.0147C179.465 56.0172 179.434 56.0138 179.406 56.0045C179.377 55.9952 179.35 55.9803 179.328 55.9606C179.305 55.9409 179.286 55.9169 179.273 55.8899L174.279 46.3649C174.265 46.3395 174.256 46.3114 174.253 46.2824C174.25 46.2534 174.253 46.2241 174.261 46.1962C174.269 46.1683 174.283 46.1424 174.302 46.12C174.321 46.0976 174.344 46.0792 174.37 46.0659C188.969 37.8439 205.084 32.6675 221.741 30.8495C237.571 29.0849 253.595 30.5086 268.867 35.0365C298.448 43.8092 322.5 63.4029 336.593 90.2195C346.243 108.759 350.726 129.554 349.57 150.423C349.568 150.482 349.543 150.537 349.501 150.578C349.459 150.618 349.402 150.641 349.344 150.641V150.641Z" fill="#6ECD55"/>
<path d="M188.734 73.6891H188.671C188.613 73.6715 188.565 73.6326 188.535 73.5803L179.273 55.9261C179.245 55.872 179.24 55.8092 179.259 55.7514C179.277 55.6936 179.318 55.6456 179.372 55.618C179.426 55.5903 179.489 55.5853 179.547 55.604C179.605 55.6227 179.653 55.6636 179.68 55.7177L188.825 73.1634C189.151 72.9822 189.477 72.8009 189.813 72.6287L190.166 72.4294C190.193 72.4153 190.222 72.4068 190.252 72.4042C190.282 72.4017 190.312 72.4051 190.341 72.4144C190.37 72.4237 190.396 72.4386 190.419 72.4583C190.442 72.478 190.461 72.502 190.474 72.529C190.488 72.5545 190.497 72.5826 190.5 72.6116C190.503 72.6406 190.501 72.6699 190.492 72.6978C190.484 72.7257 190.47 72.7516 190.451 72.774C190.432 72.7964 190.409 72.8148 190.384 72.8281L190.021 73.0275C189.631 73.2359 189.233 73.4444 188.852 73.6709C188.815 73.6863 188.774 73.6925 188.734 73.6891V73.6891Z" fill="#6ECD55"/>
<g opacity="0.3">
<path opacity="0.3" d="M220.916 240.48C194.362 240.48 169.929 230.139 152.112 211.37C134.294 192.601 125.195 167.543 126.591 140.934C127.563 123.276 133.039 106.16 142.496 91.2164C151.756 76.5684 164.4 64.3597 179.363 55.6179C179.418 55.5953 179.48 55.5953 179.535 55.6179C179.596 55.6351 179.647 55.6738 179.68 55.7267L188.825 73.1725C189.151 72.9912 189.477 72.8099 189.813 72.6378L190.166 72.4384C190.222 72.4203 190.282 72.4203 190.338 72.4384C190.368 72.4472 190.396 72.4622 190.419 72.4826C190.442 72.5029 190.461 72.528 190.474 72.5562L192.975 77.3141C193.002 77.3661 193.007 77.4261 192.99 77.4818C192.973 77.5375 192.935 77.5845 192.885 77.6132C169.621 90.6182 154.314 114.897 152.954 140.989C151.921 160.546 158.582 178.935 171.705 192.755C178.217 199.599 186.066 205.03 194.766 208.711C203.465 212.392 212.829 214.244 222.275 214.152C222.306 214.152 222.337 214.158 222.365 214.17C222.393 214.183 222.418 214.201 222.438 214.225C222.461 214.245 222.478 214.271 222.489 214.299C222.5 214.327 222.504 214.358 222.502 214.388L221.142 240.307C221.132 240.358 221.103 240.404 221.061 240.436C221.02 240.467 220.968 240.483 220.916 240.48V240.48ZM179.381 56.1345C148.903 73.9881 128.848 106.469 127.035 140.953C125.648 167.443 134.675 192.338 152.411 211.053C170.146 229.767 194.326 239.972 220.68 240.054L222.012 214.596C212.546 214.655 203.167 212.774 194.454 209.071C185.742 205.368 177.879 199.92 171.352 193.063C158.147 179.143 151.414 160.637 152.474 140.962C153.843 114.789 169.15 90.4188 192.441 77.3141L190.157 72.9549L189.994 73.0456C189.604 73.254 189.205 73.4625 188.825 73.689C188.767 73.7122 188.702 73.7122 188.644 73.689C188.586 73.6715 188.537 73.6326 188.508 73.5803L179.381 56.1345Z" fill="white"/>
<path opacity="0.3" d="M227.369 249.932C227.304 249.932 227.242 249.905 227.196 249.859C227.176 249.836 227.161 249.808 227.152 249.779C227.143 249.749 227.139 249.718 227.142 249.687L228.592 221.964C228.597 221.907 228.622 221.854 228.664 221.816C228.706 221.777 228.762 221.756 228.819 221.756C272.002 221.756 308.978 186.62 311.244 143.427C311.249 143.37 311.275 143.317 311.317 143.278C311.359 143.24 311.414 143.218 311.471 143.218H318.068C318.098 143.217 318.127 143.222 318.154 143.232C318.182 143.243 318.207 143.258 318.228 143.279C318.249 143.299 318.266 143.323 318.278 143.35C318.289 143.377 318.295 143.406 318.295 143.436C318.349 145.683 318.295 147.967 318.213 150.188H338.595C338.626 150.187 338.657 150.193 338.685 150.205C338.713 150.218 338.738 150.237 338.759 150.26C338.8 150.311 338.823 150.375 338.822 150.441C335.609 176.533 323.394 200.686 304.284 218.738C283.412 238.558 255.381 249.932 227.369 249.932ZM229.036 222.209L227.604 249.479C255.427 249.415 283.249 238.096 303.967 218.403C322.942 200.489 335.095 176.533 338.342 150.641H317.978C317.944 150.641 317.91 150.633 317.88 150.617C317.85 150.601 317.825 150.578 317.806 150.55C317.783 150.53 317.765 150.505 317.754 150.476C317.743 150.448 317.739 150.417 317.742 150.387C317.86 148.158 317.887 145.856 317.842 143.653H311.679C309.305 186.919 272.292 222.091 229.036 222.209V222.209Z" fill="white"/>
<path opacity="0.3" d="M318.068 143.671C318.009 143.669 317.953 143.645 317.911 143.603C317.869 143.561 317.844 143.504 317.842 143.445C316.691 97.6509 279.778 61.7806 233.767 61.7806C218.615 61.8165 203.71 65.6091 190.384 72.819C190.358 72.8347 190.329 72.8448 190.299 72.8487C190.269 72.8525 190.238 72.8502 190.21 72.8416C190.181 72.8331 190.154 72.8186 190.131 72.7991C190.107 72.7796 190.089 72.7555 190.075 72.7284C190.049 72.6751 190.043 72.6137 190.06 72.5565C190.077 72.4993 190.115 72.4506 190.166 72.4203C203.559 65.1747 218.54 61.3633 233.767 61.3275C255.845 61.0727 277.127 69.5648 292.964 84.9491C308.802 100.333 317.909 121.36 318.295 143.436C318.296 143.466 318.291 143.495 318.281 143.523C318.271 143.551 318.255 143.577 318.235 143.599C318.215 143.621 318.19 143.638 318.163 143.651C318.136 143.663 318.107 143.67 318.077 143.671H318.068Z" fill="white"/>
<path opacity="0.3" d="M349.344 150.641H338.595C338.535 150.641 338.478 150.617 338.435 150.574C338.393 150.532 338.369 150.474 338.369 150.414C338.369 150.354 338.393 150.296 338.435 150.254C338.478 150.211 338.535 150.188 338.595 150.188H349.126C350.237 129.47 345.771 108.833 336.194 90.4279C322.156 63.7201 298.203 44.208 268.74 35.4715C237.401 26.1732 204.041 30.0339 174.778 46.3468L179.68 55.6814C179.706 55.7358 179.71 55.798 179.692 55.8553C179.673 55.9126 179.634 55.9607 179.581 55.9896C179.554 56.0036 179.525 56.0121 179.495 56.0147C179.465 56.0172 179.434 56.0138 179.406 56.0045C179.377 55.9952 179.35 55.9803 179.328 55.9606C179.305 55.9409 179.286 55.9169 179.273 55.8899L174.279 46.3649C174.265 46.3395 174.256 46.3114 174.253 46.2824C174.25 46.2534 174.253 46.2241 174.261 46.1962C174.269 46.1683 174.283 46.1424 174.302 46.12C174.321 46.0976 174.344 46.0792 174.37 46.0659C188.969 37.8439 205.084 32.6675 221.741 30.8495C237.571 29.0849 253.595 30.5086 268.867 35.0365C298.448 43.8092 322.5 63.4029 336.593 90.2195C346.243 108.759 350.726 129.554 349.57 150.423C349.568 150.482 349.543 150.537 349.501 150.578C349.459 150.618 349.402 150.641 349.344 150.641V150.641Z" fill="white"/>
<path opacity="0.3" d="M188.734 73.6891H188.671C188.613 73.6715 188.565 73.6326 188.535 73.5803L179.273 55.9261C179.245 55.872 179.24 55.8092 179.259 55.7514C179.277 55.6936 179.318 55.6456 179.372 55.618C179.426 55.5903 179.489 55.5853 179.547 55.604C179.605 55.6227 179.653 55.6636 179.68 55.7177L188.825 73.1634C189.151 72.9822 189.477 72.8009 189.813 72.6287L190.166 72.4294C190.193 72.4153 190.222 72.4068 190.252 72.4042C190.282 72.4017 190.312 72.4051 190.341 72.4144C190.37 72.4237 190.396 72.4386 190.419 72.4583C190.442 72.478 190.461 72.502 190.474 72.529C190.488 72.5545 190.497 72.5826 190.5 72.6116C190.503 72.6406 190.501 72.6699 190.492 72.6978C190.484 72.7257 190.47 72.7516 190.451 72.774C190.432 72.7964 190.409 72.8148 190.384 72.8281L190.021 73.0275C189.631 73.2359 189.233 73.4444 188.852 73.6709C188.815 73.6863 188.774 73.6925 188.734 73.6891V73.6891Z" fill="white"/>
</g>
<path d="M227.93 202.833L227.024 219.481C191.779 219.481 164.691 190.897 166.539 155.661C167.781 132.044 181.701 111.408 201.359 100.379L208.935 114.798C201.554 118.891 195.325 124.782 190.826 131.924C186.326 139.065 183.702 147.227 183.197 155.652C181.865 181.708 201.884 202.833 227.93 202.833Z" fill="#6ECD55"/>
<path opacity="0.6" d="M227.93 202.833L227.024 219.481C191.779 219.481 164.691 190.897 166.539 155.661C167.781 132.044 181.701 111.408 201.359 100.379L208.935 114.798C201.554 118.891 195.325 124.782 190.826 131.924C186.326 139.065 183.702 147.227 183.197 155.652C181.865 181.708 201.884 202.833 227.93 202.833Z" fill="black"/>
<path d="M303.07 157.266C301.928 175.62 293.884 192.863 280.553 205.53C267.222 218.197 249.591 225.351 231.202 225.553L232.108 207.736C259.976 207.736 283.766 185.133 285.225 157.266H303.07Z" fill="#6ECD55"/>
<path opacity="0.3" d="M303.07 157.266C301.928 175.62 293.884 192.863 280.553 205.53C267.222 218.197 249.591 225.351 231.202 225.553L232.108 207.736C259.976 207.736 283.766 185.133 285.225 157.266H303.07Z" fill="black"/>
<path d="M309.586 161.752H289.43C291.08 130.186 266.846 104.656 235.317 104.656C225.157 104.653 215.171 107.285 206.334 112.296L197.172 94.8324C234.99 73.6437 281.944 86.4222 301.23 123.126C307.432 135.018 310.318 148.36 309.586 161.752V161.752Z" fill="#FAFAFA"/>
<path d="M307.383 212.032H288.823L286.82 250.258H305.381L307.383 212.032Z" fill="#FAFAFA"/>
<path d="M333.874 199.398H315.313L312.649 250.258H331.209L333.874 199.398Z" fill="#6ECD55"/>
<path opacity="0.6" d="M333.874 199.398H315.313L312.649 250.258H331.209L333.874 199.398Z" fill="black"/>
<path d="M359.032 212.032H340.471L338.469 250.258H357.029L359.032 212.032Z" fill="#6ECD55"/>
<path opacity="0.3" d="M359.032 212.032H340.471L338.469 250.258H357.029L359.032 212.032Z" fill="black"/>
<path d="M356.857 253.512H286.648L286.693 252.642H356.902L356.857 253.512Z" fill="#263238"/>
<path opacity="0.8" d="M366.345 91.7782H285.415L287.808 46.0568H368.747L366.345 91.7782Z" fill="#FAFAFA"/>
<path d="M286.874 63.8741L285.415 91.7782H366.345L368.158 57.1314C354.727 57.1314 346.761 72.4202 330.149 72.4202C313.537 72.4202 308.978 63.8741 286.874 63.8741Z" fill="#6ECD55"/>
<path opacity="0.1" d="M286.874 63.8741L285.415 91.7782H366.345L368.158 57.1314C354.727 57.1314 346.761 72.4202 330.149 72.4202C313.537 72.4202 308.978 63.8741 286.874 63.8741Z" fill="black"/>
<path d="M286.177 77.2144C304.366 77.2144 310.9 67.2454 321.113 67.2454C331.327 67.2454 335.795 77.731 348.519 77.731C361.787 77.731 367.551 69.4839 367.551 69.4839L366.382 91.7964H285.452L286.177 77.2144Z" fill="#6ECD55"/>
<path opacity="0.5" d="M286.177 77.2144C304.366 77.2144 310.9 67.2454 321.113 67.2454C331.327 67.2454 335.795 77.731 348.519 77.731C361.787 77.731 367.551 69.4839 367.551 69.4839L366.382 91.7964H285.452L286.177 77.2144Z" fill="black"/>
<path d="M82.7247 93.3101C76.8064 87.2096 66.9747 72.9848 66.9747 72.9848L60.9126 52.0169C60.7688 52.0745 64.0012 52.0841 64.9796 52.0169C71.5309 52.4581 73.4589 52.9761 77.5354 57.4747C80.7679 61.0141 92.729 79.6128 97.0262 85.2912L108.786 69.0425C111.51 64.918 111.069 60.3043 112.488 56.928C113.908 53.5516 116.191 52.0745 118.023 49.0338C119.855 45.9932 120.296 43.9981 121.802 45.552C123.308 47.1059 121.572 51.3071 121.342 52.2663C121.111 53.2255 118.829 56.1031 122.656 54.5875C126.483 53.072 132.411 46.0891 133.945 44.6599C135.48 43.2307 136.276 45.4465 135.931 47.2018C135.586 48.9571 137.235 52.9569 136.631 55.8345C135.998 58.9135 135.547 60.3235 132.583 63.3066C129.811 66.0978 123.049 69.5126 120.402 73.1671C117.754 76.8216 112.105 88.1784 108.652 95.027C104.258 103.727 99.4433 108.676 93.7649 103.813C89.4102 100.024 84.9212 95.5738 82.7247 93.3101Z" fill="#E4897B"/>
<path d="M67.5887 51.8539C72.6052 52.3143 75.2622 53.4557 80.2692 60.0166C85.2761 66.5775 96.9015 83.8525 96.9015 83.8525L106.944 71.5653C106.944 71.5653 113.86 76.8312 117.495 82.9892C117.495 82.9892 107.779 99.2954 103.884 103.41C99.9901 107.525 96.9782 107.851 91.6835 103.41C86.3888 98.9693 71.1185 82.1259 71.1185 82.1259L67.5887 51.8539Z" fill="#F0F0F0"/>
<path d="M96.9015 83.8524C94.6282 87.1424 93.1606 92.4851 93.5635 95.1805C93.5635 95.1805 90.3982 91.5355 95.7217 82.1067L96.9015 83.8524Z" fill="#E0E0E0"/>
<path d="M23.3316 296.515H34.7364L37.0096 276.324H23.3316V296.515Z" fill="#E4897B"/>
<path d="M61.0086 275.748L73.1615 276.151L72.9409 255.25L59.1957 254.982L61.0086 275.748Z" fill="#E4897B"/>
<path d="M23.4563 134.219C23.2357 145.289 20.8856 218.542 20.8856 218.542C20.0733 224.528 19.5897 230.555 19.4373 236.594C19.1303 251.231 22.1997 285.973 22.1997 285.973C22.8808 289.129 34.6692 290.414 36.2327 287.565C36.2327 287.565 42.6785 237.169 44.5105 222.686C46.1028 210.043 51.3687 168.702 51.3687 168.702L55.4357 209.324C55.2801 214.059 55.3922 218.798 55.7714 223.52C56.2414 230.234 59.6082 269.743 59.6082 269.743C59.6657 272.209 71.9242 274.242 73.996 270.616C73.996 270.616 77.8328 212.911 77.9959 206.763C78.1301 199.751 77.1518 133.423 77.1518 133.423L23.4563 134.219Z" fill="#37474F"/>
<path d="M35.3886 290.712L35.5804 288.995C36.2135 288.995 36.4917 289.704 36.7507 291.22C37.2869 294.452 38.3054 297.585 39.7721 300.514C41.6905 304.495 42.8415 306.155 46.6591 310.95C47.5607 312.092 49.6038 313.905 50.3232 315.171C51.0426 316.437 51.2824 319.967 50.0738 320.782C45.6232 323.746 38.8609 323.832 34.0745 322.432C32.2603 321.991 30.6236 321.008 29.3829 319.613C28.1421 318.218 27.3562 316.477 27.13 314.624C26.353 310.269 25.9406 307.574 23.7248 304.284C22.9095 303.076 21.5954 302.097 21.0487 300.754C20.0895 298.328 20.8473 295.603 21.4803 293.186C22.0271 291.105 22.6218 288.812 23.3316 289.004V290.29C24.1852 291.249 27.1683 292.208 29.8541 292.285C31.5806 292.352 35.4078 292.035 35.3886 290.712Z" fill="#263238"/>
<path d="M73.1232 272.851C73.4205 273.053 74.0824 273.81 75.3389 274.981C76.5905 276.069 77.9035 277.084 79.2716 278.021C82.0535 280.058 84.9768 281.895 88.0194 283.517C91.6356 285.503 94.8968 286.712 99.2227 288.659C99.6767 288.841 100.088 289.116 100.431 289.464C100.693 289.774 100.874 290.143 100.959 290.539C101.085 291.355 100.983 292.191 100.663 292.953C100.343 293.715 99.8177 294.374 99.146 294.855C97.7903 295.802 96.2514 296.456 94.6282 296.773C90.9584 297.804 87.092 297.919 83.3673 297.109C80.1489 296.197 77.0934 294.786 74.3126 292.927C71.9958 291.284 69.3579 290.15 66.5719 289.599C64.1452 289.253 61.1621 289.369 59.0519 287.92C56.721 286.309 57.6514 282.865 58.3133 279.901C59.0327 276.678 59.1957 271.748 60.6633 271.854L60.7784 273.149C60.9127 274.539 64.289 275.182 66.898 275.182C69.0658 275.182 73.1615 274.616 73.1424 273.599L73.1232 272.851Z" fill="#263238"/>
<path d="M52.6157 153.202C57.2676 151.401 61.5086 148.68 65.0851 145.202C65.0851 145.202 63.0996 150.957 54.9561 155.753L55.4932 206.303L51.3879 168.683L52.6157 153.202Z" fill="#263238"/>
<path d="M41.8343 50.6164C39.7721 51.1056 33.2016 52.8801 27.8685 54.7601C25.1794 55.7868 22.8467 57.573 21.1542 59.9014C17.3174 65.551 20.7705 78.126 23.6193 101.76C23.4083 117.031 22.9671 136.023 22.9671 136.023C29.9883 141.135 62.7447 144.607 77.5258 133.817C77.5258 133.817 78.015 76.505 77.0367 69.052C75.1183 54.7793 69.5837 50.9713 58.0543 50.2999L41.8343 50.6164Z" fill="#6ECD55"/>
<path opacity="0.6" d="M41.8343 50.6164C39.7721 51.1056 33.2016 52.8801 27.8685 54.7601C25.1794 55.7868 22.8467 57.573 21.1542 59.9014C17.3174 65.551 20.7705 78.126 23.6193 101.76C23.4083 117.031 22.9671 136.023 22.9671 136.023C29.9883 141.135 62.7447 144.607 77.5258 133.817C77.5258 133.817 78.015 76.505 77.0367 69.052C75.1183 54.7793 69.5837 50.9713 58.0543 50.2999L41.8343 50.6164Z" fill="white"/>
<path d="M61.9677 67.364C63.0037 70.9322 69.1329 96.0054 68.2696 104.83C67.6118 109.358 66.3872 113.786 64.6247 118.009C61.9678 124.292 60.1933 118.671 58.7161 114.959C57.4665 111.498 56.6294 107.902 56.2222 104.245C55.733 99.5065 57.6418 85.109 56.9032 68.2273C57.4608 67.4417 58.3073 66.9096 59.2569 66.7477C60.2065 66.5859 61.1815 66.8075 61.9677 67.364V67.364Z" fill="#6ECD55"/>
<path opacity="0.2" d="M61.9677 67.364C63.0037 70.9322 69.1329 96.0054 68.2696 104.83C67.6118 109.358 66.3872 113.786 64.6247 118.009C61.9678 124.292 60.1933 118.671 58.7161 114.959C57.4665 111.498 56.6294 107.902 56.2222 104.245C55.733 99.5065 57.6418 85.109 56.9032 68.2273C57.4608 67.4417 58.3073 66.9096 59.2569 66.7477C60.2065 66.5859 61.1815 66.8075 61.9677 67.364V67.364Z" fill="black"/>
<path d="M62.1979 59.3068C64.6247 61.3787 61.9677 67.3544 61.9677 67.3544C60.2313 66.9802 58.4175 67.2894 56.9032 68.2177C56.9032 68.2177 52.1073 66.1554 52.0593 62.5681C52.0593 59.3068 55.522 60.3523 57.9871 59.9207C60.5673 59.4699 61.9102 57.5611 62.1979 59.3068Z" fill="#6ECD55"/>
<path opacity="0.2" d="M62.1979 59.3068C64.6247 61.3787 61.9677 67.3544 61.9677 67.3544C60.2313 66.9802 58.4175 67.2894 56.9032 68.2177C56.9032 68.2177 52.1073 66.1554 52.0593 62.5681C52.0593 59.3068 55.522 60.3523 57.9871 59.9207C60.5673 59.4699 61.9102 57.5611 62.1979 59.3068Z" fill="black"/>
<path opacity="0.2" d="M61.9677 67.3639C61.5745 65.9635 59.6657 66.0978 58.131 65.6182C57.2705 65.2771 56.5505 64.6551 56.0879 63.8533C55.3014 62.5008 56.0879 60.2563 57.1814 60.0165C54.8314 60.1796 52.0401 59.6425 52.0497 62.568C52.0497 66.1554 56.8936 68.2176 56.8936 68.2176C58.4119 67.2901 60.2296 66.9843 61.9677 67.3639V67.3639Z" fill="black"/>
<path d="M45.2875 17.486C45.3717 20.4334 46.327 23.2898 48.0329 25.6948C49.7388 28.0998 52.1189 29.9456 54.8728 30.9994C57.6267 32.0531 60.631 32.2674 63.5066 31.6155C66.3822 30.9635 69.0002 29.4743 71.0304 27.3359C73.0605 25.1975 74.4118 22.5057 74.9136 19.6001C75.4155 16.6946 75.0454 13.7054 73.8502 11.01C72.655 8.31447 70.6881 6.03342 68.1978 4.45463C65.7075 2.87583 62.8054 2.07005 59.8576 2.13897C57.8916 2.18493 55.9541 2.61894 54.1564 3.41607C52.3588 4.21319 50.7363 5.35771 49.3824 6.78386C48.0284 8.21001 46.9697 9.88966 46.2669 11.7263C45.5642 13.5629 45.2313 15.5203 45.2875 17.486V17.486Z" fill="#455A64"/>
<path d="M34.6692 28.325C34.6692 28.325 37.3645 39.6242 38.3716 41.4659C39.0394 42.6004 40.1177 43.4348 41.3835 43.7967L41.0286 35.8066L34.6692 28.325Z" fill="#455A64"/>
<path d="M37.3165 11.9707C36.473 11.897 35.6237 12.0158 34.8328 12.3183C34.0419 12.6207 33.33 13.0987 32.7508 13.7164C30.8324 15.7978 32.0698 22.1381 34.6692 28.3249L39.2349 28.7373L37.3165 11.9707Z" fill="#455A64"/>
<path d="M40.6066 28.7086C39.705 29.2746 38.3621 27.548 37.2015 26.397C36.0409 25.246 32.3384 23.7304 30.5927 27.6343C28.847 31.5382 32.4343 36.7371 35.3886 37.5811C40.4148 39.0295 41.0862 35.8066 41.0862 35.8066L41.9399 56.1798C45.4985 60.525 53.8722 60.7648 58.0255 59.9207C61.3443 59.2493 61.3923 56.8992 58.1215 53.2927L57.968 47.4512C60.1928 47.7556 62.4438 47.8199 64.6823 47.6431C68.3368 46.9812 70.5909 44.0365 71.5981 40.0367C73.1328 33.9266 73.5165 27.1068 71.9722 15.9418C70.0538 2.21579 53.9873 2.51314 45.4793 8.10522C36.9713 13.6973 40.6066 28.7086 40.6066 28.7086Z" fill="#E4897B"/>
<path d="M40.645 30.2433C40.1846 30.2433 38.3621 27.3657 37.2015 26.4065C35.5997 25.0157 37.3166 12.0187 37.3166 12.0187C36.752 10.8859 36.5415 9.60943 36.7125 8.35539C36.8836 7.10135 37.4284 5.92788 38.2758 4.98779C40.3764 2.56104 43.3115 -0.412453 53.1336 0.50837C60.1357 1.17021 67.7901 3.16533 73.8522 0C74.4697 1.98895 74.4791 4.11699 73.8792 6.11133C73.2794 8.10568 72.0976 9.87544 70.4854 11.1938C70.4854 11.1938 68.2889 12.6805 62.4666 13.5246C56.6443 14.3687 47.5128 13.7452 46.2658 13.6109C44.5681 13.4191 44.242 15.0689 43.4362 19.5771C42.6881 23.4906 42.1893 30.1761 40.645 30.2433Z" fill="#455A64"/>
<path d="M37.3549 12.9874L31.7533 10.1099C31.9207 9.73309 32.1631 9.3943 32.4656 9.1141C32.7681 8.83391 33.1244 8.61817 33.5129 8.48C33.9014 8.34183 34.3139 8.28411 34.7254 8.31037C35.1369 8.33663 35.5388 8.4463 35.9066 8.63273C36.6659 9.02872 37.2415 9.70442 37.5118 10.517C37.7821 11.3297 37.7258 12.2155 37.3549 12.9874V12.9874Z" fill="#455A64"/>
<path d="M57.9296 47.4511C57.9296 47.4511 49.6997 46.0028 46.803 44.5736C45.0966 43.7336 43.6852 42.3958 42.7552 40.7368C43.2278 42.4015 44.0303 43.9542 45.1148 45.3026C47.273 47.9307 57.9871 49.8108 57.9871 49.8108L57.9296 47.4511Z" fill="#9A4A4D"/>
<path d="M55.1767 26.7039C55.1463 27.0236 55.0227 27.3274 54.8212 27.5774C54.6198 27.8275 54.3493 28.013 54.0434 28.1108C53.7376 28.2086 53.4097 28.2145 53.1005 28.1277C52.7913 28.0409 52.5144 27.8652 52.3041 27.6225C52.0939 27.3798 51.9595 27.0807 51.9176 26.7623C51.8758 26.4439 51.9283 26.1202 52.0687 25.8314C52.2091 25.5426 52.4313 25.3013 52.7075 25.1376C52.9838 24.9738 53.302 24.8948 53.6228 24.9102C54.0667 24.9422 54.4797 25.149 54.7711 25.4854C55.0625 25.8217 55.2084 26.26 55.1767 26.7039V26.7039Z" fill="#263238"/>
<path d="M54.112 20.5267L50.5054 22.282C50.278 21.7883 50.2509 21.2255 50.4298 20.7121C50.6086 20.1988 50.9796 19.7747 51.4646 19.5292C51.702 19.409 51.9617 19.3394 52.2274 19.325C52.4931 19.3106 52.7588 19.3516 53.0078 19.4454C53.2568 19.5392 53.4835 19.6838 53.6736 19.87C53.8637 20.0561 54.013 20.2798 54.112 20.5267Z" fill="#263238"/>
<path d="M56.1167 37.7538L61.2388 39.1542C61.1582 39.4927 61.0107 39.8116 60.805 40.0923C60.5993 40.3729 60.3396 40.6096 60.041 40.7883C59.7425 40.9671 59.4113 41.0843 59.0668 41.1331C58.7223 41.1819 58.3715 41.1614 58.035 41.0726C57.352 40.8689 56.7728 40.4117 56.4161 39.7946C56.0594 39.1775 55.9522 38.4473 56.1167 37.7538V37.7538Z" fill="#9A4A4D"/>
<path d="M71.1184 22.0517L67.2816 20.7376C67.3477 20.48 67.4666 20.239 67.6308 20.0298C67.795 19.8207 68.0009 19.6479 68.2354 19.5226C68.4699 19.3972 68.7279 19.3219 68.993 19.3016C69.2582 19.2812 69.5246 19.3162 69.7755 19.4043C70.3014 19.582 70.7366 19.9587 70.9877 20.4537C71.2388 20.9487 71.2857 21.5225 71.1184 22.0517Z" fill="#263238"/>
<path d="M69.2001 26.2435C69.224 26.4614 69.2049 26.682 69.1436 26.8925C69.0823 27.103 68.9802 27.2994 68.843 27.4704C68.7058 27.6414 68.5363 27.7837 68.3441 27.8892C68.1519 27.9947 67.9408 28.0613 67.7229 28.0852C67.2796 28.1143 66.8427 27.9675 66.507 27.6766C66.1712 27.3857 65.9636 26.9742 65.9292 26.5313C65.9103 26.3165 65.9339 26.1001 65.9986 25.8945C66.0634 25.6888 66.168 25.498 66.3065 25.3327C66.445 25.1675 66.6147 25.0312 66.8059 24.9315C66.997 24.8319 67.206 24.7709 67.4207 24.752C67.6355 24.7331 67.8519 24.7567 68.0576 24.8214C68.2632 24.8861 68.4541 24.9907 68.6193 25.1292C68.7845 25.2678 68.9209 25.4374 69.0205 25.6286C69.1201 25.8198 69.1812 26.0288 69.2001 26.2435V26.2435Z" fill="#263238"/>
<path d="M60.3467 25.313L60.9414 35.1831L66.0827 33.399L60.3467 25.313Z" fill="#9A4A4D"/>
<path d="M57.9871 59.9206C53.431 58.9614 42.6401 54.7506 41.6233 49.4846L41.489 46.6071C39.7145 46.6071 38.9088 48.5734 38.036 51.403C37.6715 58.8463 45.5273 65.647 53.383 67.479C53.6467 65.7532 54.2359 64.0931 55.1192 62.5872C55.7889 61.4331 56.7874 60.5047 57.9871 59.9206V59.9206Z" fill="#6ECD55"/>
<path d="M57.9487 48.1801C59.1514 48.5489 60.2451 49.2077 61.1333 50.0985C67.0323 56.2085 63.6655 64.2178 63.6655 64.2178C63.3608 62.8859 62.6009 61.702 61.5169 60.8702C60.4802 60.1659 59.2378 59.8283 57.9871 59.911C59.4355 58.3667 58.8696 55.6714 58.083 53.283L57.9487 48.1801Z" fill="#6ECD55"/>
<path d="M75.099 21.7832L74.3029 21.7065C71.6392 21.3825 68.9417 21.4666 66.3033 21.9559C63.7326 22.6561 62.8022 23.433 61.3922 23.4522C59.9822 23.4714 58.9559 22.6753 56.2701 21.9847C53.4518 21.5116 50.5804 21.4438 47.7429 21.7832L46.8797 21.8792L34.6692 25.1596C35.7188 25.3251 36.6837 25.8346 37.4124 26.608L46.3138 24.2004C46.4384 24.373 46.5631 24.5265 46.6494 24.632C46.7724 24.8122 46.8602 25.014 46.9084 25.2267C47.0784 26.6072 47.3771 27.9688 47.8005 29.2937C48.0513 29.8403 48.4027 30.3349 48.8364 30.7517C49.0024 30.911 49.1822 31.0555 49.3735 31.1833L49.6901 31.3751C49.9959 31.5404 50.3172 31.6754 50.6493 31.778L50.8123 31.826L51.0617 31.8931L51.3303 31.9507C51.609 32.0064 51.8909 32.0448 52.1744 32.0658H52.5293H52.9801C56.4907 32.0658 58.0063 30.5694 58.9367 29.0251C59.8671 27.4808 59.7232 25.3035 61.3347 25.3035H61.4881H61.632C62.8214 25.5433 62.5912 27.548 63.301 28.9772C63.5686 29.5793 63.9422 30.1283 64.4041 30.5982L64.663 30.838L64.8069 30.9531L64.9604 31.0682L65.0947 31.1545L65.2386 31.2504L65.3537 31.3176H65.44C65.8744 31.5486 66.3395 31.7166 66.8212 31.8164H66.9459C67.505 31.9259 68.074 31.9773 68.6437 31.9698C71.9241 31.9698 73.1231 30.2145 73.6986 29.0923C74.2018 27.77 74.587 26.4059 74.8497 25.0157C74.9107 24.8117 75.023 24.6268 75.1758 24.4786C75.5854 24.071 75.8628 23.5496 75.9719 22.9822C75.9803 22.7138 75.8991 22.4502 75.741 22.2331C75.5829 22.016 75.3571 21.8577 75.099 21.7832V21.7832ZM58.0638 27.5959C57.8272 28.4219 57.3656 29.1658 56.7305 29.7445C55.6583 30.635 54.2842 31.0781 52.8938 30.9819C52.2107 31.0312 51.5257 30.9159 50.8964 30.6455C50.2671 30.3751 49.712 29.9575 49.2776 29.428L49.1625 29.2745C49.1271 29.2256 49.0951 29.1743 49.0666 29.121C49.031 29.0776 49.0019 29.0291 48.9803 28.9772L48.9035 28.8525L48.8556 28.747C48.8556 28.747 48.8556 28.6798 48.8076 28.651C48.7597 28.6223 48.7597 28.5551 48.7405 28.4976C48.6734 28.3441 48.6254 28.1906 48.5774 28.0467C48.5774 27.9508 48.5199 27.8645 48.5007 27.7782C48.4815 27.6918 48.424 27.4712 48.3952 27.3369C48.3664 27.2027 48.3952 27.289 48.3952 27.2602V27.1739C48.165 26.0996 47.9252 23.9894 48.5487 23.5098C49.1721 23.0302 50.7836 22.5506 53.3446 22.7424H53.6228C54.0194 22.779 54.4134 22.8398 54.8026 22.9247L55.263 23.0206C55.6522 23.1127 56.0364 23.2248 56.414 23.3563L56.7593 23.4906L57.143 23.6537H57.2197L57.354 23.7304C57.6432 23.86 57.9015 24.0496 58.1118 24.2867C58.6489 24.9965 58.3996 26.3969 58.0638 27.5959ZM73.3054 27.078C73.1683 27.8164 72.8623 28.5132 72.4114 29.1139C71.9605 29.7146 71.3768 30.2029 70.706 30.5406C70.098 30.7937 69.4461 30.9241 68.7876 30.9243C68.0647 31.0047 67.3332 30.8998 66.662 30.6196C65.9908 30.3394 65.402 29.893 64.9508 29.3225V29.3225C64.9253 29.2928 64.9028 29.2607 64.8837 29.2265C64.8548 29.1905 64.8291 29.152 64.8069 29.1115V29.0539L64.711 28.8812L64.6151 28.6798C64.6135 28.6479 64.6135 28.6158 64.6151 28.5839V28.4976C64.6094 28.4755 64.6094 28.4524 64.6151 28.4304C64.5131 28.1738 64.4391 27.9068 64.3945 27.6343C64.1643 26.4353 64.078 25.0349 64.5959 24.373C65.1139 23.7112 67.061 22.9822 68.9219 22.7712C69.3535 22.7712 69.7563 22.6945 70.1208 22.6849H71.1856H71.5021C71.705 22.7022 71.9067 22.731 72.1064 22.7712H72.2407H72.3366H72.4805L72.6531 22.8192L72.9313 22.9247C73.1594 23.0095 73.373 23.1292 73.5643 23.2796C73.996 23.8935 73.5931 26.0133 73.3054 27.078Z" fill="#37474F"/>
<path d="M41.6425 49.8012C41.6425 49.8012 45.1148 67.2297 46.6111 79.0181C48.1075 90.8066 47.8293 124.1 47.0236 145.202C46.4481 160.549 44.146 189.018 44.146 189.018C44.146 189.018 40.3092 189.785 31.1873 188.27C23.3795 186.985 19.4277 184.673 17.7587 183.666C17.7587 183.666 19.207 140.435 20.3101 125.337C21.3173 111.42 21.2693 103.765 21.2693 103.765L17.9889 71.9873C17.9889 71.9873 18.2383 52.0169 24.4346 51.1729C30.8324 50.3 41.6425 49.8012 41.6425 49.8012Z" fill="#FAFAFA"/>
<path d="M35.7147 78.3851C35.7147 77.6561 35.638 76.083 35.5133 74.0879C34.8994 64.3521 35.7914 50.2616 39.0719 49.5614L39.3692 50.9043C36.9616 51.4222 36.5876 69.2728 36.8849 74.0016C37.0192 76.0351 37.1151 77.6369 37.0863 78.4426L35.7147 78.3851Z" fill="#6ECD55"/>
<path d="M23.2548 153.566C21.6722 150.871 21.5858 148.857 19.1974 146.449C18.1749 145.46 17.4306 144.22 17.0393 142.852C16.3103 140.694 16.3487 138.44 16.176 136.08L2.31568 136.723C2.43194 141.879 3.00328 147.015 4.02304 152.07C6.65122 163.648 9.19309 168.52 14.1713 169.643C22.1134 171.436 24.0701 168.012 21.2789 162.286C20.0802 159.897 19.2214 157.353 18.7274 154.727C19.5873 155.741 20.585 156.628 21.6913 157.365C22.2553 157.786 22.9578 157.977 23.6573 157.901C24.3568 157.824 25.0013 157.485 25.461 156.952C25.8063 156.444 24.5018 155.686 23.2548 153.566Z" fill="#E4897B"/>
<path d="M26.9957 51.1729C26.9957 51.1729 19.6195 51.0673 15.4854 54.789C11.3513 58.5107 9.1547 68.467 6.47856 78.4522C3.80242 88.4374 1.42363 98.1252 0.72342 105.07C0.128722 110.825 2.06631 141.385 2.06631 141.385C2.06631 141.385 10.4976 143.159 16.9817 139.601L17.2599 105.693L27.9549 71.6995C29.9078 64.9388 29.5706 57.722 26.9957 51.1729Z" fill="#F0F0F0"/>
<path d="M41.3835 44.1228C40.4243 43.9214 39.5323 44.4297 38.7457 45.7726C37.9592 47.1155 36.2231 49.9355 36.2231 49.9355C36.2231 49.9355 35.331 59.2972 36.2231 61.628C37 63.6423 42.1508 73.1383 42.1508 73.1383C42.1508 73.1383 41.8151 82.3849 41.7288 85.1474C41.6425 87.9098 46.9948 99.4393 47.5991 104.792C47.5991 104.792 47.8676 83.0276 47.0715 76.9751C45.6903 66.424 43.9637 53.8586 41.6329 49.5422L41.3835 44.1228Z" fill="#EBEBEB"/>
<path d="M33.71 110.681H33.5949V109.722C34.7324 109.634 35.8224 109.228 36.7411 108.552C35.7558 107.896 34.8733 107.097 34.1225 106.182C32.5782 104.178 29.1922 89.8762 30.2282 86.5478C31.1106 83.7566 33.8539 77.5986 36.2902 77.493H36.3574C38.7937 77.493 42.007 83.3153 43.0717 86.0011C44.3954 89.2335 42.2372 103.765 40.8656 105.895C40.1973 106.871 39.3857 107.741 38.458 108.475C39.4273 109.078 40.549 109.391 41.6905 109.377L41.8152 110.336C40.3232 110.358 38.8592 109.93 37.6139 109.108C36.4847 109.986 35.1325 110.531 33.71 110.681ZM36.4053 78.4426C34.9666 78.5002 32.3959 83.0755 31.2161 86.8164C30.2569 89.8762 33.5182 103.717 34.9474 105.569C35.7193 106.495 36.6321 107.295 37.6523 107.938C38.62 107.214 39.4653 106.34 40.1558 105.348C41.4219 103.382 43.4938 89.3199 42.2756 86.3464C40.7984 82.711 37.8825 78.4426 36.4341 78.4426H36.4053Z" fill="#455A64"/>
<path d="M43.3019 109.789C43.3109 109.974 43.2833 110.158 43.2205 110.332C43.1578 110.506 43.0612 110.666 42.9363 110.803C42.8115 110.939 42.6608 111.049 42.4931 111.127C42.3254 111.205 42.1439 111.249 41.9591 111.257C41.7739 111.265 41.5889 111.236 41.4147 111.173C41.2405 111.11 41.0805 111.013 40.9438 110.888C40.807 110.763 40.6963 110.612 40.6179 110.444C40.5395 110.276 40.4949 110.094 40.4867 109.909C40.4785 109.724 40.5069 109.539 40.5702 109.365C40.6334 109.19 40.7304 109.03 40.8556 108.894C40.9807 108.757 41.1316 108.646 41.2995 108.568C41.4675 108.489 41.6492 108.445 41.8344 108.437C42.0196 108.429 42.2045 108.458 42.3785 108.522C42.5525 108.585 42.7123 108.683 42.8486 108.808C42.9849 108.934 43.0951 109.085 43.1729 109.254C43.2506 109.422 43.2945 109.604 43.3019 109.789V109.789Z" fill="#263238"/>
<path d="M35.0529 110.134C35.0606 110.319 35.0317 110.504 34.9679 110.678C34.9041 110.852 34.8066 111.012 34.681 111.148C34.5553 111.285 34.4041 111.395 34.2359 111.473C34.0676 111.551 33.8857 111.594 33.7004 111.602C33.5157 111.611 33.331 111.583 33.1571 111.52C32.9831 111.458 32.8232 111.361 32.6868 111.236C32.5504 111.111 32.44 110.961 32.3621 110.793C32.2842 110.625 32.2403 110.444 32.2329 110.259C32.2247 110.074 32.2531 109.889 32.3164 109.715C32.3797 109.54 32.4767 109.38 32.6018 109.244C32.7269 109.107 32.8778 108.996 33.0457 108.918C33.2136 108.839 33.3954 108.795 33.5805 108.787C33.7657 108.778 33.9507 108.807 34.1249 108.87C34.2991 108.933 34.4591 109.03 34.5958 109.155C34.7326 109.281 34.8433 109.431 34.9217 109.599C35.0001 109.767 35.0447 109.949 35.0529 110.134V110.134Z" fill="#263238"/>
<path d="M43.4074 92.3028L42.6017 92.2453C42.5601 92.2428 42.5194 92.2322 42.4819 92.214C42.4445 92.1958 42.411 92.1704 42.3833 92.1392C42.3557 92.108 42.3345 92.0716 42.321 92.0322C42.3074 91.9928 42.3018 91.9511 42.3044 91.9096C42.4674 89.2238 42.3811 87.2479 42.055 86.4614C40.6354 82.9891 37.6907 78.644 36.4149 78.7015C35.1392 78.7591 32.5782 83.3344 31.4463 86.9122C31.2058 88.727 31.2771 90.5696 31.6573 92.3604C31.6712 92.443 31.6518 92.5278 31.6032 92.5962C31.5547 92.6645 31.481 92.7108 31.3984 92.7249L30.5926 92.8496C30.551 92.8549 30.5088 92.8519 30.4683 92.8408C30.4278 92.8297 30.39 92.8106 30.357 92.7848C30.3239 92.7589 30.2964 92.7267 30.2759 92.6901C30.2555 92.6534 30.2425 92.6131 30.2377 92.5714C29.7965 89.5883 29.739 87.5356 30.0747 86.4805C30.6694 84.5622 33.499 77.3778 36.3478 77.2531C39.1966 77.1284 42.6305 84.0538 43.3882 85.8858C43.8103 86.9122 43.935 88.9552 43.7431 91.9671C43.7459 92.0119 43.7392 92.0568 43.7233 92.0988C43.7074 92.1408 43.6828 92.179 43.651 92.2107C43.6193 92.2425 43.5811 92.2671 43.5391 92.283C43.4971 92.2989 43.4522 92.3056 43.4074 92.3028Z" fill="#6ECD55"/>
<path d="M57.9296 47.4511C59.1957 47.5662 60.2988 49.4366 63.2147 50.3287C68.6629 51.9401 73.6123 54.4148 75.1374 57.7624C77.6697 63.3065 78.0822 64.4 78.9742 89.0896C79.8663 113.779 80.1828 184.049 80.1828 184.049C77.5669 185.232 74.717 185.806 71.8474 185.728C71.8474 185.728 72.068 108.13 71.5501 90.6818C71.0321 73.2342 68.3847 64.7165 64.6055 58.9614C63.5408 54.1654 60.1453 50.9617 57.8912 48.6213L57.9296 47.4511Z" fill="#FAFAFA"/>
<path d="M64.6247 58.9806C68.4039 64.7358 71.0417 73.2438 71.5693 90.701C71.6268 92.7729 71.6844 95.6888 71.7323 99.1899C71.7323 99.1899 74.8401 83.3824 74.2934 80.0061C73.7466 76.6297 70.1017 69.6852 70.1017 69.6852C70.5717 63.93 69.2288 57.35 67.0131 53.3789C66.4976 52.4535 65.8515 51.6071 65.0947 50.8659C64.3584 50.2688 63.5721 49.7361 62.7447 49.2736C61.3262 48.2648 59.6771 47.6283 57.9487 47.4224V48.6118C60.1645 50.981 63.56 54.1655 64.6247 58.9806Z" fill="#EBEBEB"/>
<path d="M472.617 64.3904C465.902 64.5727 463.984 67.268 459.975 73.0232C455.965 78.7783 442.182 100.667 442.182 100.667L422.7 108.149L425.309 119.525C425.309 119.525 441.788 116.244 450.248 114.518C451.349 114.366 452.4 113.961 453.319 113.335C454.237 112.71 454.999 111.88 455.543 110.911C456.627 109.271 467.456 92.2357 467.456 92.2357L472.617 64.3904Z" fill="#E6E6E6"/>
<path d="M477.758 64.5727C471.418 62.99 468.617 66.491 466.507 70.4045C463.13 76.6009 461.097 89.2622 460.809 112.398C460.627 127.275 455.447 145.26 454.526 159.398C453.126 180.577 452.474 197.046 452.474 197.046C465.017 195.424 477.658 194.68 490.304 194.821L477.758 64.5727Z" fill="#E0E0E0"/>
<path d="M514.303 280.323C514.303 280.323 518.14 254.281 516.519 239.021C515.157 225.928 513.229 220.451 512.96 217.468C512.96 217.468 510.754 186.773 511.358 160.693C511.637 148.348 511.013 134.737 502.227 120.186L501.91 119.611C501.133 124.407 493.776 127.476 487.216 128.244C480.898 128.947 473.032 127.697 463.619 124.493C461.519 136.838 459.14 160.367 456.704 186.006C455.524 198.543 455.745 209.094 455.514 217.151C455.236 228.086 456.234 270.923 456.234 270.923V272.736C456.167 274.731 455.687 276.122 454.315 279.287C452.565 283.37 450.125 287.121 447.102 290.376C446.143 291.335 439.688 296.62 438.815 297.771C436.004 300.84 441.549 302.797 445.731 302.385C450.143 301.943 457.011 300.466 459.035 297.886C460.387 296.15 461.557 289.944 462.938 288.179C467.61 282.242 469.528 279.681 469.653 277.743C469.825 274.223 468.694 272.794 468.3 270.799C468.79 266.664 477.192 245.025 477.748 232.949C478.017 227.194 476.789 216.988 476.789 216.988L484.05 174.985C485.69 186.783 488.846 213.353 489.93 221.841C491.494 233.496 497.249 253.207 500.874 268.688C502.236 274.511 502.908 277.1 503.244 280.899L503.33 282.261C503.33 283.978 503.503 302.327 504.059 306.241C505.21 314.365 512.413 313.588 513.785 307.094C514.946 301.569 514.294 284.333 514.332 282.213L514.303 280.323Z" fill="#E4897B"/>
<path d="M514.514 280.208C516.538 280.314 514.946 288.102 515.301 293.167C515.684 298.586 517.325 302.596 517.679 307.037C518.092 312.121 517.574 314.231 515.617 318.326C514.102 321.521 506.86 325.722 504.318 321.003C501.776 316.283 501.373 310.979 501.853 305.943C502.342 300.745 502.812 296.946 503.023 292.985C503.224 289.493 500.807 281.206 503.455 280.793L503.531 282.155C504.414 284.074 513.353 285.666 514.543 282.079L514.514 280.208Z" fill="#37474F"/>
<path d="M470.104 281.868C470.641 284.41 469.768 291.316 469.768 291.316C469.768 291.316 468.598 293.666 464.646 295.152L463.217 285.465L470.104 281.868Z" fill="#263238"/>
<path d="M464.646 295.124L456.147 292.016L454.335 284.323L463.821 289.532L464.646 295.124Z" fill="black"/>
<path d="M456.454 272.592V270.779C455.275 271.307 452.397 280.621 448.704 286.951C445.347 292.707 438.949 295.795 436.829 298.289C433.952 301.627 439.141 306.221 447.716 304.677C451.965 303.919 458.459 301.426 460.281 298.634C462.104 295.843 462.871 290.625 464.358 288.572C465.845 286.52 469.298 284.227 470.113 281.858C470.74 279.715 470.81 277.446 470.315 275.268C469.72 273.072 469.221 270.472 468.473 270.645L468.367 272.295C467.763 273.436 465.663 274.722 461.356 274.808C459.294 274.856 457.327 274.482 456.454 272.592Z" fill="#37474F"/>
<path d="M478.803 237.543C479.3 230.938 479.059 224.298 478.084 217.746L484.28 176.501C484.28 176.501 488.501 215.827 489.211 221.889C489.92 227.952 501.239 293.675 501.239 293.675C506.994 297.109 514.466 296.016 519.301 293.455C519.301 266.885 518.476 240.258 517.516 232.901C516.669 227.874 515.519 222.903 514.073 218.014C514.073 218.014 513.459 179.253 513.488 164.539C513.517 149.826 512.414 139.984 509.651 133.366C507.483 128.559 504.916 123.941 501.978 119.563C501.978 119.563 499.829 126.824 482.794 126.843C465.758 126.862 463.878 122.537 463.878 122.537C463.878 122.537 458.891 139.965 457.231 166.285C455.888 187.493 455.581 197.142 455.179 206.571C454.833 214.628 454.622 223.933 454.44 240.21C454.296 252.488 452.522 279.537 452.522 279.537C452.522 279.537 460.838 283.892 474.583 278.923C474.525 278.885 477.95 248.133 478.803 237.543Z" fill="#455A64"/>
<path d="M484.28 176.462L480.914 151.523C475.971 151.013 471.361 148.794 467.878 145.25C467.878 145.25 469.797 151.293 477.777 154.689L482.295 176.587L479.024 211.693L484.28 176.462Z" fill="#37474F"/>
<path d="M492.251 66.3088L500.27 67.1625C505.603 68.467 508.001 70.817 508.548 75.5363C509.532 80.6149 509.437 85.8437 508.27 90.8833C506.582 97.5209 502.093 113.779 502.093 113.779C502.093 113.779 507.915 128.407 510.668 135.841C491.743 148.185 468.377 143.313 460.531 135.841C461.193 128.771 463.696 122.201 464.253 115.899C464.253 115.899 463.84 106.058 463.063 101.789C457.078 95.2572 457.836 89.0033 460.531 83.958C465.49 74.6538 473 66.4719 475.398 66.4815L492.251 66.3088Z" fill="#6ECD55"/>
<path opacity="0.6" d="M492.251 66.3088L500.27 67.1625C505.603 68.467 508.001 70.817 508.548 75.5363C509.532 80.6149 509.437 85.8437 508.27 90.8833C506.582 97.5209 502.093 113.779 502.093 113.779C502.093 113.779 507.915 128.407 510.668 135.841C491.743 148.185 468.377 143.313 460.531 135.841C461.193 128.771 463.696 122.201 464.253 115.899C464.253 115.899 463.84 106.058 463.063 101.789C457.078 95.2572 457.836 89.0033 460.531 83.958C465.49 74.6538 473 66.4719 475.398 66.4815L492.251 66.3088Z" fill="white"/>
<path d="M477.672 60.6688C475.293 60.6688 475.024 61.0716 472.972 63.8053C471.753 65.4359 464.061 78.126 464.061 78.126C464.061 78.126 470.19 70.0784 474.804 67.6421C475.699 67.1176 476.67 66.7327 477.681 66.5006L477.672 60.6688Z" fill="#EBEBEB"/>
<path d="M492.702 66.3088C492.702 66.3088 486.093 83.6893 484.587 95.4874C483.081 107.285 488.251 142.919 489.048 164.041C489.633 179.388 491.091 201.564 491.091 201.564C495.781 202.023 500.51 201.875 505.162 201.123C512.931 199.655 515.339 198.38 519.78 195.483C519.78 195.483 515.943 156.856 514.025 141.845C512.25 127.716 504.654 113.779 504.654 113.779L513.785 75.9774C513.785 75.9774 513.334 69.6084 507.33 67.8243C501.642 66.1265 492.702 66.3088 492.702 66.3088Z" fill="#FAFAFA"/>
<path d="M504.395 101.636C504.395 101.636 503.157 97.1372 501.45 89.4541C499.743 81.7709 500.011 77.3203 500.596 73.9631L510.524 88.4853L504.673 113.77C508.653 121.39 511.592 129.51 513.411 137.912V137.912C507.435 121.002 500.884 115.928 500.884 115.928L504.395 101.636Z" fill="#F5F5F5"/>
<path d="M495.196 87.6988C495.196 86.9698 495.263 85.3871 495.388 83.4016C496.011 73.6562 496.299 64.8604 493.009 64.1506L492.721 65.4935C495.119 66.0115 494.323 78.5769 494.026 83.3153C493.891 85.3487 493.786 86.9506 493.824 87.7563L495.196 87.6988Z" fill="#6ECD55"/>
<path d="M513.238 166.631C514.514 164.204 514.495 162.458 516.48 160.262C517.332 159.359 517.927 158.247 518.207 157.039C518.622 155.089 518.78 153.092 518.677 151.101L530.053 151.274C530.139 155.053 530.648 160.482 529.938 164.511C528.125 174.707 526.101 179.052 521.823 180.242C514.984 182.16 513.142 179.282 515.329 174.122C516.281 171.985 516.926 169.725 517.248 167.408C516.537 168.326 515.705 169.142 514.773 169.834C514.299 170.222 513.695 170.416 513.084 170.379C512.472 170.342 511.897 170.075 511.473 169.633C511.138 169.23 512.25 168.52 513.238 166.631Z" fill="#E4897B"/>
<path d="M502.15 66.8076C502.15 66.8076 509.498 66.3472 513.804 69.8675C518.111 73.3877 520.778 83.229 523.933 93.0703C527.089 102.912 529.919 112.484 530.955 119.381C531.828 125.136 530.696 155.667 530.696 155.667C526.183 156.092 521.64 155.29 517.545 153.346L514.514 120.791L502.198 87.3631C499.915 80.7042 499.898 73.4771 502.15 66.8076V66.8076Z" fill="#F0F0F0"/>
<path d="M410.893 90.3461L447.342 103.209L457.375 146.583L456.56 147.447L421.904 134.507L410.077 91.2093L410.893 90.3461Z" fill="#6ECD55"/>
<path opacity="0.35" d="M446.527 104.072L456.56 147.447L457.375 146.583L447.342 103.209L446.527 104.072Z" fill="black"/>
<path opacity="0.25" d="M410.077 91.2094L446.527 104.072L456.56 147.447L421.904 134.507L410.077 91.2094Z" fill="black"/>
<g opacity="0.2">
<path opacity="0.2" d="M427.324 125.692C426.988 126.536 424.197 128.416 420.149 128.081L419.468 125.577L427.324 125.692Z" fill="black"/>
</g>
<g opacity="0.1">
<path opacity="0.1" d="M421.051 100.101L420.753 98.643C420.59 97.8373 422.729 98.2593 425.549 99.6022L432.129 101.597C434.94 102.921 437.587 103.909 437.75 104.705L438.057 106.163L421.051 100.101Z" fill="black"/>
</g>
<path d="M418.892 93.5211C418.787 93.0127 419.612 93.1182 420.811 93.4252L422.911 94.1446C422.911 94.1446 422.048 92.0343 427.017 93.3772C432.484 94.8639 432.599 97.5881 432.599 97.5881C433.456 97.9589 434.333 98.2792 435.227 98.5472C437.04 99.1419 437.242 99.5064 437.395 100.005L437.664 100.964L419.055 94.4131C419.055 94.4131 418.998 94.0199 418.892 93.5211Z" fill="#37474F"/>
<path d="M420.84 96.3314C422.566 97.1083 423.276 97.492 423.535 98.7294C423.823 100.139 423.89 100.734 423.89 100.734L433.568 104.571C433.568 104.571 433.04 102.489 432.916 101.789C432.791 101.089 434.067 101.089 435.736 101.866L435.343 100.13L420.293 94.5377L420.84 96.3314Z" fill="#37474F"/>
<path d="M420.513 100.168L420.216 98.7198C420.053 97.9141 422.192 98.3362 425.012 99.679L431.592 101.665C434.393 102.988 437.05 103.976 437.213 104.782L437.51 106.24L420.513 100.168Z" fill="#37474F"/>
<path d="M414.125 106.048C414.125 106.048 415.42 110.844 415.756 112.014C416.092 113.184 422.067 115.966 425.06 116.34C430.815 117.06 431.419 118.259 430.048 122.354C428.782 126.095 425.06 127.505 419.9 126.901C418.283 126.583 416.78 125.845 415.54 124.76C414.301 123.676 413.369 122.283 412.84 120.724C411.161 115.928 412.063 110.834 411.401 108.034C410.739 105.233 412.677 104.389 414.125 106.048Z" fill="#E4897B"/>
<path d="M506.188 23.7495L501.085 27.9411C500.807 27.6226 500.596 27.2505 500.467 26.8477C500.337 26.445 500.291 26.02 500.332 25.5988C500.372 25.1776 500.498 24.7691 500.702 24.3983C500.906 24.0275 501.183 23.7023 501.517 23.4425C502.187 22.8868 503.045 22.6089 503.914 22.666C504.783 22.7231 505.597 23.1108 506.188 23.7495V23.7495Z" fill="#455A64"/>
<path d="M492.798 61.3018C492.798 58.0885 500.289 53.2734 504.155 46.5015C508.02 39.7296 506.073 28.6318 500.798 26.9244C500.798 26.9244 500.692 16.8145 487.053 14.1288C473.413 11.4431 469.135 8.43122 466.718 7.99958C464.301 7.56795 463.84 16.1623 467.015 18.4164C464.732 17.5188 462.646 16.1828 460.876 14.4837C458.891 12.5653 458.104 22.5601 462.392 26.0707C462.392 26.0707 458.843 28.1522 459.274 33.4085C459.359 35.3229 460.067 37.157 461.292 38.6309C462.516 40.1049 464.189 41.1375 466.056 41.5713L492.798 61.3018Z" fill="#455A64"/>
<path d="M469.538 23.4329C466.248 24.8621 463.121 29.8883 463.169 43.9596C463.169 55.8823 466.862 58.9038 468.713 59.7862C470.564 60.6687 474.161 60.2275 477.672 59.6807V66.5389C477.672 66.5389 475.053 69.1192 475.964 70.7498C476.875 72.3804 480.3 73.7425 485.556 72.0831C491.551 70.1647 492.923 66.2032 492.923 66.2032L493.038 51.2015C493.038 51.2015 495.062 53.3213 498.601 50.2423C501.536 47.6813 502.591 43.2786 500.385 40.8614C498.179 38.4443 495.359 38.2524 492.817 40.9573L490.976 39.9981C487.724 39.6145 482.899 39.0389 479.408 37.2932C470.391 32.622 469.432 27.615 469.538 23.4329Z" fill="#E4897B"/>
<path d="M492.798 38.9431V45.5711C492.372 45.5858 491.947 45.5127 491.55 45.3566C491.153 45.2004 490.792 44.9644 490.49 44.6632C490.188 44.362 489.951 44.0019 489.793 43.6054C489.636 43.2089 489.562 42.7843 489.575 42.3578C489.576 41.4852 489.91 40.6458 490.509 40.0111C491.108 39.3765 491.927 38.9944 492.798 38.9431V38.9431Z" fill="#455A64"/>
<path d="M469.221 39.8735C469.233 40.0847 469.202 40.2962 469.132 40.4956C469.061 40.695 468.952 40.8785 468.81 41.0354C468.669 41.1924 468.497 41.3197 468.306 41.41C468.115 41.5003 467.907 41.5519 467.696 41.5617C467.37 41.5845 467.044 41.5092 466.761 41.3456C466.478 41.1819 466.25 40.9373 466.107 40.6432C465.964 40.3492 465.912 40.019 465.958 39.6952C466.004 39.3714 466.145 39.0686 466.365 38.826C466.584 38.5833 466.871 38.4117 467.188 38.3332C467.506 38.2547 467.839 38.273 468.146 38.3856C468.454 38.4982 468.72 38.7 468.911 38.9652C469.103 39.2303 469.211 39.5467 469.221 39.8735V39.8735Z" fill="#263238"/>
<path d="M481.844 40.5737C481.858 40.8008 481.827 41.0285 481.753 41.2435C481.678 41.4585 481.562 41.6565 481.41 41.8261C481.258 41.9957 481.074 42.1334 480.869 42.2313C480.664 42.3291 480.441 42.3852 480.213 42.3962C479.862 42.4228 479.511 42.3437 479.206 42.1692C478.9 41.9947 478.653 41.7328 478.497 41.417C478.342 41.1013 478.284 40.7461 478.332 40.3973C478.379 40.0485 478.53 39.7219 478.765 39.4595C479 39.1971 479.308 39.0109 479.649 38.9249C479.99 38.8389 480.35 38.8569 480.681 38.9767C481.012 39.0965 481.3 39.3126 481.507 39.5972C481.714 39.8818 481.832 40.2219 481.844 40.5737V40.5737Z" fill="#263238"/>
<path d="M479.264 50.3383L474.161 51.9305C474.24 52.276 474.388 52.6018 474.597 52.8878C474.807 53.1738 475.072 53.414 475.378 53.5937C475.683 53.7733 476.022 53.8887 476.373 53.9325C476.725 53.9764 477.082 53.948 477.422 53.8489C478.112 53.5999 478.684 53.1013 479.025 52.4515C479.366 51.8017 479.451 51.0477 479.264 50.3383Z" fill="#9A4A4D"/>
<path d="M465.029 36.9287L469.116 35.3077C469.021 35.0274 468.869 34.7701 468.669 34.5521C468.469 34.3341 468.226 34.1604 467.955 34.0421C467.684 33.9237 467.391 33.8634 467.096 33.865C466.8 33.8665 466.508 33.9299 466.238 34.0511C465.71 34.2895 465.293 34.7187 465.068 35.2525C464.844 35.7863 464.83 36.3851 465.029 36.9287V36.9287Z" fill="#263238"/>
<path d="M473.087 38.5786L473.288 48.3528L468.041 47.1826L473.087 38.5786Z" fill="#9A4A4D"/>
<path d="M477.672 59.6424C481.364 59.2107 488.98 57.0909 490.218 54.0023C489.722 55.5529 488.773 56.9194 487.494 57.9254C485.192 59.9013 477.662 61.954 477.662 61.954L477.672 59.6424Z" fill="#9A4A4D"/>
<path d="M492.971 60.7168C493.93 60.5249 494.803 60.9374 495.589 62.2802C496.376 63.6231 498.112 66.4431 498.112 66.4431C498.112 66.4431 499.004 75.8048 498.112 78.1261C497.335 80.15 488.779 87.718 488.779 87.718C488.779 87.718 491.014 96.1301 491.091 98.8829C491.167 101.636 485.786 112.12 485.182 117.482C485.182 117.482 483.494 100.629 484.28 94.5762C485.662 84.0251 490.601 70.4717 492.913 66.165L492.971 60.7168Z" fill="#EBEBEB"/>
<path d="M493.191 118.633C491.946 119.455 490.482 119.883 488.99 119.86L489.115 118.901C490.256 118.916 491.378 118.603 492.347 118C491.42 117.265 490.608 116.396 489.94 115.419C488.568 113.29 486.41 98.7582 487.734 95.5257C488.827 92.84 492.04 87.0177 494.448 87.0177H494.505C496.951 87.1232 499.695 93.2812 500.567 96.0725C501.613 99.4009 498.227 113.702 496.683 115.707C495.93 116.62 495.047 117.418 494.064 118.076C494.983 118.753 496.073 119.158 497.21 119.247V120.206H497.095C495.673 120.055 494.321 119.511 493.191 118.633ZM488.616 95.8902C487.407 98.8637 489.479 112.925 490.745 114.892C491.435 115.881 492.277 116.755 493.239 117.482C494.264 116.844 495.177 116.044 495.944 115.112C497.383 113.261 500.644 99.42 499.685 96.3602C498.505 92.6194 495.935 88.044 494.496 87.9865C493.019 87.9769 490.103 92.2837 488.616 95.8902Z" fill="#455A64"/>
<path d="M487.657 119.352C487.649 119.537 487.678 119.722 487.742 119.896C487.806 120.07 487.903 120.23 488.029 120.366C488.154 120.503 488.306 120.613 488.474 120.691C488.642 120.768 488.824 120.812 489.009 120.82C489.384 120.833 489.748 120.698 490.024 120.445C490.301 120.192 490.466 119.841 490.486 119.467C490.502 119.086 490.365 118.713 490.106 118.433C489.847 118.152 489.487 117.986 489.105 117.971C488.724 117.955 488.352 118.092 488.071 118.351C487.79 118.611 487.624 118.97 487.609 119.352H487.657Z" fill="#263238"/>
<path d="M495.848 119.669C495.832 120.043 495.964 120.408 496.217 120.684C496.47 120.96 496.822 121.124 497.196 121.141C497.57 121.157 497.935 121.025 498.211 120.772C498.487 120.519 498.652 120.167 498.668 119.793C498.676 119.608 498.648 119.423 498.585 119.249C498.521 119.075 498.425 118.915 498.299 118.778C498.174 118.641 498.023 118.531 497.855 118.452C497.688 118.374 497.506 118.329 497.321 118.321C497.135 118.313 496.95 118.341 496.776 118.404C496.602 118.468 496.442 118.565 496.305 118.69C496.169 118.815 496.058 118.966 495.979 119.134C495.901 119.302 495.856 119.483 495.848 119.669V119.669Z" fill="#263238"/>
<path d="M487.494 101.828L488.299 101.77C488.341 101.768 488.382 101.757 488.419 101.739C488.457 101.721 488.49 101.695 488.518 101.664C488.545 101.633 488.567 101.596 488.58 101.557C488.594 101.518 488.599 101.476 488.597 101.434C488.366 99.6174 488.451 97.7744 488.846 95.9861C490.266 92.5139 493.201 88.1687 494.486 88.2263C495.771 88.2838 498.323 92.8592 499.455 96.437C499.714 97.2523 499.627 99.2282 499.244 101.885C499.23 101.968 499.249 102.053 499.298 102.121C499.346 102.189 499.42 102.236 499.503 102.25L500.308 102.374C500.35 102.38 500.392 102.377 500.433 102.366C500.473 102.354 500.511 102.335 500.544 102.31C500.577 102.284 500.605 102.251 500.625 102.215C500.646 102.178 500.659 102.138 500.663 102.096C501.105 99.1131 501.162 97.0604 500.826 96.0053C500.232 94.0869 497.402 86.9026 494.553 86.7779C491.705 86.6532 488.271 93.5786 487.513 95.4106C487.091 96.437 486.966 98.48 487.158 101.492C487.155 101.537 487.162 101.582 487.178 101.624C487.194 101.666 487.218 101.704 487.25 101.736C487.282 101.767 487.32 101.792 487.362 101.808C487.404 101.824 487.449 101.83 487.494 101.828Z" fill="#6ECD55"/>
</svg>
